<?xml version="1.0" encoding="utf-8"?>
<!-- Generator: Adobe Illustrator 23.0.2, SVG Export Plug-In . SVG Version: 6.00 Build 0)  -->
<svg version="1.1" xmlns="http://www.w3.org/2000/svg" xmlns:xlink="http://www.w3.org/1999/xlink" x="0px" y="0px"
	 viewBox="0 0 58.4 79.5" style="enable-background:new 0 0 58.4 79.5;" xml:space="preserve">
<style type="text/css">
	.st0{fill:#0093D4;}
</style>
<g id="Layer_2">
</g>
<g id="Laag_1">
	<g>
		<g>
			<g>
				<path class="st0" d="M53.4,79.5H5c-2.8,0-5-2.2-5-5V5c0-2.8,2.2-5,5-5h48.4c2.8,0,5,2.2,5,5v69.5C58.4,77.3,56.2,79.5,53.4,79.5
					z M5,3.3C4,3.3,3.3,4,3.3,5v69.5c0,1,0.8,1.7,1.7,1.7h48.4c1,0,1.7-0.8,1.7-1.7V5c0-1-0.8-1.7-1.7-1.7H5z M50.7,26.8h-43v-19h43
					V26.8z M11,23.5h36.4V11H11V23.5z"/>
				<path class="st0" d="M32.5,66.1L32.5,66.1c-4.1,0-8-1.6-10.9-4.5c-2.9-2.9-4.5-6.8-4.5-10.9s1.6-8,4.5-10.9
					c2.9-2.9,6.8-4.5,10.9-4.5c0,0,0,0,0,0c4.1,0,8,1.6,10.9,4.5L41.1,42c-2.3-2.3-5.4-3.6-8.6-3.6c0,0,0,0,0,0
					c-3.3,0-6.3,1.3-8.6,3.6c-2.3,2.3-3.6,5.4-3.6,8.6c0,3.3,1.3,6.3,3.6,8.6c2.3,2.3,5.4,3.6,8.6,3.6s6.3-1.3,8.6-3.6l2.3,2.3
					C40.5,64.5,36.6,66.1,32.5,66.1z"/>
			</g>
			<rect x="11.7" y="47" class="st0" width="19.6" height="3.3"/>
			<rect x="11.7" y="53.7" class="st0" width="19.6" height="3.3"/>
		</g>
	</g>
</g>
</svg>
