<?xml version="1.0" encoding="utf-8"?>
<!-- Generator: Adobe Illustrator 23.0.2, SVG Export Plug-In . SVG Version: 6.00 Build 0)  -->
<svg version="1.1" id="Laag_1" xmlns="http://www.w3.org/2000/svg" xmlns:xlink="http://www.w3.org/1999/xlink" x="0px" y="0px"
	 viewBox="0 0 78.2 94.3" style="enable-background:new 0 0 78.2 94.3;" xml:space="preserve">
<style type="text/css">
	.st0{fill:#FCC621;}
</style>
<g>
	<path class="st0" d="M26,94.3c-0.3,0-0.5,0-0.8-0.1c-1-0.2-1.8-0.8-2.3-1.7L22.1,91c-1.7,0.3-3.5,0.3-5.1,0l-0.8,1.4
		c-0.5,0.8-1.3,1.5-2.2,1.7c-0.9,0.3-1.9,0.1-2.8-0.4l-2.7-1.6c-0.8-0.4-1.4-1.2-1.7-2.2c-0.3-0.9-0.1-1.9,0.4-2.8L8,85.8
		c-1.2-1.3-2.1-2.9-2.7-4.6H3.6c-2,0-3.6-1.6-3.6-3.6v-3.2c0-2,1.6-3.6,3.6-3.6h1.7C6,69,6.9,67.5,8,66.1l-0.8-1.4
		c-0.5-0.8-0.7-1.7-0.5-2.6c0.2-1,0.8-1.8,1.7-2.3l2.7-1.6c0.7-0.5,1.7-0.7,2.6-0.5c1,0.2,1.8,0.8,2.3,1.7l0.8,1.5
		c1.7-0.3,3.5-0.3,5.2,0l0.8-1.4c0.5-0.8,1.3-1.5,2.2-1.7c0.9-0.3,1.9-0.1,2.8,0.4l2.7,1.6c0.8,0.4,1.4,1.2,1.7,2.2
		c0.3,0.9,0.1,1.9-0.4,2.8l-0.8,1.4c1.2,1.3,2.1,2.9,2.7,4.6h1.6c2,0,3.6,1.6,3.6,3.6v3.2c0,2-1.6,3.6-3.6,3.6h-1.7
		c-0.6,1.7-1.5,3.2-2.7,4.6l0.8,1.4c0.5,0.8,0.7,1.7,0.5,2.6c-0.2,1-0.8,1.8-1.7,2.3l-2.7,1.6C27.3,94.1,26.7,94.3,26,94.3z
		 M23.7,87.2l2,3.6c0,0.1,0.1,0.1,0.2,0.2c0.1,0,0.1,0,0.1,0l2.8-1.6c0.1-0.1,0.2-0.2,0.2-0.2c0-0.1,0-0.1,0-0.1L29,88.8l-2-3.6
		l0.9-0.9c1.5-1.5,2.5-3.3,3.1-5.3l0.3-1.2h4.1c0.2,0,0.4-0.2,0.4-0.4v-3.2c0-0.2-0.2-0.4-0.4-0.4h-4l-0.3-1.2
		c-0.6-2.1-1.6-3.9-3-5.2l-0.9-0.9l2-3.6c0.1-0.1,0.1-0.2,0.1-0.3c0-0.1-0.1-0.1-0.1-0.2L26.3,61c-0.1-0.1-0.2-0.1-0.3,0
		c-0.1,0-0.1,0.1-0.2,0.1l-2,3.6l-1.2-0.3c-2-0.5-4.1-0.5-6.1,0l-1.2,0.3l-2-3.6c0-0.1-0.1-0.1-0.2-0.2c-0.1,0-0.1,0-0.1,0l-2.8,1.6
		c-0.1,0.1-0.2,0.2-0.2,0.2c0,0.1,0,0.1,0,0.1l0.1,0.1l2,3.6l-0.9,0.9c-1.5,1.5-2.5,3.3-3.1,5.3L7.8,74H3.6c-0.2,0-0.4,0.2-0.4,0.4
		v3.2c0,0.2,0.2,0.4,0.4,0.4h4.1l0.3,1.2c0.6,2.1,1.6,3.9,3,5.2l0.9,0.9l-2,3.6C10,89,10,89.1,10,89.1c0,0.1,0.1,0.1,0.1,0.2
		l2.7,1.6C13,91,13,91,13.1,91c0.1,0,0.1-0.1,0.2-0.1l2-3.6l1.2,0.4c1.8,0.5,3.9,0.5,5.9,0L23.7,87.2z"/>
	<path class="st0" d="M61.4,71c-0.4,0-0.8-0.1-1.2-0.2c-1.1-0.3-2-1-2.6-2l-1.3-2.2c-2.5,0.5-5.1,0.5-7.6-0.1l-1.3,2.2
		c-0.5,1-1.4,1.7-2.6,2c-1.1,0.3-2.2,0.2-3.2-0.4l-3.6-2.1c-1-0.5-1.7-1.4-2-2.6c-0.3-1.1-0.2-2.2,0.4-3.2l1.3-2.2
		c-1.7-1.9-2.9-4.1-3.8-6.6h-2.6c-2.4,0-4.3-1.9-4.3-4.3v-4.2c0-2.4,1.9-4.3,4.3-4.3H34c0.8-2.5,2.1-4.7,3.8-6.6L36.5,32
		c-0.6-1-0.7-2.2-0.4-3.3c0.3-1.1,1-2,2-2.6l3.6-2.1c1-0.6,2.2-0.7,3.3-0.4c1.1,0.3,2,1,2.6,2l1.3,2.2c2.5-0.5,5.1-0.5,7.6,0
		l1.3-2.3c0.5-1,1.4-1.7,2.6-2c1.1-0.3,2.2-0.2,3.2,0.4l3.6,2.1c1,0.5,1.7,1.4,2,2.6c0.3,1.1,0.2,2.2-0.4,3.2l-1.3,2.3
		c1.7,1.9,2.9,4.1,3.8,6.6h2.6c2.4,0,4.3,1.9,4.3,4.3v4.2c0,2.4-1.9,4.3-4.3,4.3h-2.6c-0.8,2.5-2.1,4.7-3.8,6.6l1.3,2.3
		c0.6,1,0.7,2.2,0.4,3.3c-0.3,1.1-1,2-2,2.6l-3.6,2.1C62.9,70.8,62.2,71,61.4,71z M58,62.8l2.5,4.4c0.2,0.3,0.4,0.4,0.6,0.5
		c0.3,0.1,0.6,0,0.8-0.1l3.6-2.1c0.3-0.2,0.4-0.5,0.5-0.6c0.1-0.3,0-0.6-0.1-0.8l-2.5-4.4l0.9-0.9c2-2,3.4-4.5,4.2-7.3l0.3-1.2h5
		c0.6,0,1.1-0.5,1.1-1.1v-4.2c0-0.6-0.5-1.1-1.1-1.1h-5l-0.3-1.2c-0.8-2.8-2.2-5.3-4.2-7.3l-0.9-0.9l2.5-4.4
		c0.1-0.2,0.2-0.5,0.1-0.8c0-0.2-0.2-0.4-0.4-0.6l-3.6-2.1c-0.2-0.1-0.5-0.2-0.8-0.1c-0.2,0-0.4,0.2-0.6,0.4L58,31.6l-1.2-0.3
		c-2.7-0.7-5.6-0.7-8.4,0l-1.2,0.3l-2.5-4.4c-0.2-0.3-0.4-0.4-0.6-0.5c-0.3-0.1-0.5,0-0.8,0.1L39.8,29c-0.3,0.2-0.4,0.5-0.5,0.6
		c-0.1,0.3,0,0.6,0.1,0.8l2.5,4.4L41,35.6c-2,2-3.4,4.5-4.2,7.3l-0.3,1.2h-5c-0.6,0-1.1,0.5-1.1,1.1v4.2c0,0.6,0.5,1.1,1.1,1.1h5
		l0.3,1.2c0.8,2.8,2.2,5.3,4.2,7.3l0.9,0.9l-2.5,4.3c-0.1,0.2-0.1,0.5-0.1,0.8c0,0.2,0.2,0.4,0.4,0.6l3.7,2.1
		c0.2,0.1,0.5,0.2,0.8,0.1c0.2,0,0.4-0.2,0.6-0.4l2.6-4.5l1.2,0.4c2.8,0.8,5.6,0.8,8.3,0.1L58,62.8z"/>
	<path class="st0" d="M14,37.5c-0.6,0-1.1-0.1-1.6-0.4l-2.9-1.4c-1.8-0.9-2.6-3.1-1.7-4.9l0.7-1.5c-1.3-1.3-2.3-2.8-3-4.4L4,25.1
		c-2,0.2-3.7-1.3-3.8-3.3l-0.2-3.1c-0.1-0.9,0.2-1.9,0.8-2.6c0.6-0.7,1.5-1.1,2.4-1.2l1.7-0.1c0.5-1.8,1.3-3.4,2.3-4.8l-1-1.4
		c-1.1-1.7-0.7-4,1-5.1l2.6-1.8c0.8-0.5,1.8-0.7,2.7-0.6c1,0.2,1.8,0.7,2.4,1.5l0.9,1.4c1.7-0.4,3.5-0.6,5.2-0.4l0.7-1.5
		c0.9-1.8,3.1-2.6,4.9-1.7l2.9,1.4c1.8,0.9,2.6,3.1,1.7,4.9l-0.7,1.5c1.3,1.3,2.3,2.8,3,4.4l1.7-0.1c0.9-0.1,1.8,0.2,2.6,0.8
		c0.7,0.6,1.1,1.5,1.2,2.4l0.2,3.1c0.2,1.9-1.3,3.6-3.3,3.8l-1.7,0.1c-0.5,1.8-1.3,3.4-2.4,4.8l0.9,1.4c0.5,0.8,0.7,1.7,0.6,2.7
		c-0.2,1-0.7,1.8-1.5,2.4l-2.6,1.8c-0.8,0.5-1.8,0.7-2.7,0.6c-1-0.2-1.8-0.7-2.4-1.5l-0.9-1.4c-1.7,0.4-3.5,0.6-5.2,0.4l-0.7,1.5
		c-0.5,0.9-1.2,1.6-2.1,1.9C14.8,37.4,14.4,37.5,14,37.5z M7.8,21.5l0.4,1.2c0.7,1.9,1.8,3.6,3.4,5l0.9,0.8l-1.7,3.7
		c-0.1,0.2-0.1,0.3,0,0.3c0,0.1,0.1,0.2,0.2,0.2l2.9,1.4c0.2,0.1,0.4,0,0.5-0.2l1.7-3.7l1.2,0.2c2.1,0.4,4.2,0.2,6.1-0.4l1.2-0.4
		l2.3,3.5c0,0.1,0.2,0.1,0.2,0.1c0.1,0,0.2,0,0.3-0.1l2.6-1.8c0.1-0.1,0.1-0.2,0.1-0.2c0-0.1,0-0.2-0.1-0.3l-2.3-3.5l0.9-0.9
		c1.4-1.4,2.3-3.2,2.6-5.3l0.2-1.3l4.2-0.3c0,0,0.3,0,0.3-0.3l-0.2-3.1c0-0.1,0-0.2-0.1-0.2c-0.1,0-0.1-0.1-0.2-0.1l-4.2,0.1
		l-0.4-1.1c-0.7-1.9-1.8-3.6-3.4-5L26.5,9l1.7-3.7c0.1-0.2,0-0.5-0.1-0.6l-2.9-1.4c-0.2-0.1-0.4,0-0.5,0.2L23,7.2L21.7,7
		c-2.1-0.4-4.2-0.2-6.1,0.4l-1.2,0.4l-2.3-3.5c0-0.1-0.2-0.1-0.2-0.1c-0.1,0-0.2,0-0.3,0.1L9.1,6.1C8.9,6.2,8.9,6.5,9,6.6l2.3,3.4
		L10.5,11c-1.3,1.6-2.2,3.5-2.7,5.6l-0.3,1.2l-4.1,0.3c-0.1,0-0.2,0-0.2,0.1c0,0.1-0.1,0.1-0.1,0.2l0.2,3.1c0,0,0,0.3,0.3,0.3
		L7.8,21.5z"/>
	<path class="st0" d="M19.5,25.7c-3.8,0-6.8-3.1-6.8-6.8c0-3.8,3.1-6.8,6.8-6.8c3.8,0,6.8,3.1,6.8,6.8
		C26.4,22.6,23.3,25.7,19.5,25.7z M19.5,15.3c-1.9,0-3.6,1.6-3.6,3.6c0,1.9,1.6,3.6,3.6,3.6c1.9,0,3.6-1.6,3.6-3.6
		C23.1,16.9,21.5,15.3,19.5,15.3z"/>
	<path class="st0" d="M19.4,82.8c-3.8,0-6.8-3.1-6.8-6.8s3.1-6.8,6.8-6.8c3.8,0,6.8,3.1,6.8,6.8C26.3,79.8,23.3,82.8,19.4,82.8z
		 M19.4,72.4c-1.9,0-3.6,1.6-3.6,3.6s1.6,3.6,3.6,3.6c2,0,3.6-1.6,3.6-3.6C23,74,21.4,72.4,19.4,72.4z"/>
	<path class="st0" d="M52.6,53.5c-1.6,0-3.2-0.6-4.4-1.8c-2.4-2.6-2.4-6.5,0-8.9c2.6-2.4,6.5-2.4,8.9,0c2.5,2.5,2.5,6.5,0,8.9
		C55.8,52.9,54.2,53.5,52.6,53.5z M52.7,44.2c-0.8,0-1.6,0.3-2.2,0.9c-1.1,1.1-1.1,3,0.1,4.3c1.1,1.1,3,1.1,4.3-0.1
		c1.1-1.1,1.1-3.1,0-4.3v0C54.2,44.5,53.4,44.2,52.7,44.2z"/>
</g>
</svg>
