<?xml version="1.0" encoding="utf-8"?>
<!-- Generator: Adobe Illustrator 23.0.2, SVG Export Plug-In . SVG Version: 6.00 Build 0)  -->
<svg version="1.1" id="Laag_1" xmlns="http://www.w3.org/2000/svg" xmlns:xlink="http://www.w3.org/1999/xlink" x="0px" y="0px"
	 viewBox="0 0 79.8 80.6" style="enable-background:new 0 0 79.8 80.6;" xml:space="preserve">
<style type="text/css">
	.st0{fill:#3FA535;}
</style>
<g>
	<g>
		<g>
			<g>
				<path class="st0" d="M39.9,80.6h-0.1C17.9,80.6,0,62.5,0,40.2C0.1,18,18,0,39.9,0c22,0,39.9,18.1,39.9,40.4
					C79.8,62.6,61.9,80.6,39.9,80.6z M39.9,3.4c-20,0-36.4,16.5-36.5,36.8c0,20.4,16.3,37,36.4,37h0.1c20.1,0,36.5-16.5,36.5-36.8
					C76.4,20,60,3.4,39.9,3.4z"/>
			</g>
			<g>
				<path class="st0" d="M42.4,68.6l-5-11.8l-1.5-8.4l-4.3-0.2l-2.8-5.1l3.3-8.9l5.2-1.2l1.4,0.5L38,32.8l-5.8-1L31.5,28l4.6-2.7
					l-1.9-3.1l6.9-6.4l6,2.1l8.6-2.7c0.7-0.4,4.1-2.2,7.8-4.2l1.6,2.9c-4.2,2.3-8,4.3-8,4.3l-0.3,0.1l-9.8,3.1l-5.2-1.9l-3.5,3.2
					l2.3,3.7L36,29.2l3.8,0.6l3.4,4.1l-1.7,4L37,36.4L34.5,37l-2.1,5.9l1.2,2.1l5.1,0.2l1.9,10.8l1.8,4.2l5.9-14.4l-3-1.2l-0.7-7.1
					l6.9,1.5l3.8-4.8l3.7,6.8l5.2-3.4l2.8,5.5l4.1-8.2l4.2-6.3l2.7,1.8l-4.1,6.2l-6.8,13.9l-4-8.1l-5,3.4l-3.1-5.6l-2,2.6l-4.5-0.9
					l0.1,0.7l4.2,1.6L42.4,68.6z"/>
				<path class="st0" d="M1.7,46l0-3.3l5.7-0.1l-1-4.1l0,0c-0.2-0.7-0.6-2.3,0-3.1l0.5-0.8l0.9,0l4.2-0.4l6.9-6.2l-2.1-2.6
					c-2.1,2.6-2.4,2.7-3.3,2.6L12.6,28l-0.4-0.7c-2.4-3.9-2.6-4.3-2.2-5.2l3.2-7.7l1.6-4.6l3.1,1.1l-1.6,4.7l-3,7.3
					c0.1,0.3,0.4,0.6,0.6,1c0.5-0.6,1-1.3,1.5-1.9l1.3-1.6l6.7,8.2l-10.1,9l-3.7,0.3l2,8.1L1.7,46z M8,37.8L8,37.8
					C8,37.9,8,37.9,8,37.8z M13,23.3L13,23.3C13,23.3,13,23.3,13,23.3z"/>
				<path class="st0" d="M18.8,72.2L14,66.1l0.1-8.8l-3.5-6.7L15.2,40l12.5,11.5L18.8,72.2z M17.3,65l0.7,0.9l5.9-13.5l-7.5-6.9
					l-2.2,5l3.1,6.1v0.7L17.3,65z"/>
				<path class="st0" d="M26.2,24.4l-5.8-12.1l1.4-0.7c6.7-3.5,11.1-4,12.2-4.1l2.2-0.1l-2.4,10.8L26.2,24.4z M24.8,13.8l2.6,5.5
					l3.6-2.9l1.2-5.2C30.5,11.5,28,12.2,24.8,13.8z"/>
			</g>
		</g>
	</g>
</g>
</svg>
