<?xml version="1.0" encoding="utf-8"?>
<!-- Generator: Adobe Illustrator 23.0.2, SVG Export Plug-In . SVG Version: 6.00 Build 0)  -->
<svg version="1.1" xmlns="http://www.w3.org/2000/svg" xmlns:xlink="http://www.w3.org/1999/xlink" x="0px" y="0px"
	 viewBox="0 0 85.1 78.5" style="enable-background:new 0 0 85.1 78.5;" xml:space="preserve">
<style type="text/css">
	.st0{fill:none;}
	.st1{fill:#3FA535;}
	.st2{fill:#FFFFFF;}
</style>
<g id="Layer_2">
</g>
<g id="Laag_1">
	<g>
		<g>
			<g>
				<g>
					<path class="st0" d="M19.4,44.3h65.7 M14.1,42.5v8.9h7.2c2.9,0,5.6,0.8,6.5,3.5L35.2,78 M26.1,78L20.7,62H10.1
						c-4.9,0-8.4-4.1-8.4-9V33.5c0-2.9,2-5.3,4.9-5.3h5.3l8.9,8.9h10.7c0,0,0.8,7.1-5.3,7.1H15.4l-7.1-7.1 M15,22.9
						c-3.7,0-6.2-3.1-6.2-6.8v-2.3c0-3.8,2.5-6.8,6.2-6.8s6.2,3.1,6.2,6.8V16C21.2,19.8,18.7,22.9,15,22.9z M67.4,16.9
						c2.2-1.1,3.6-3.3,3.6-6.1V8.5c0-3.8-2.5-6.8-6.2-6.8s-6.2,3.1-6.2,6.8v2 M79.8,38.9v-9c0-3.7-5.7-5.8-10.7-6.7"/>
					<path class="st1" d="M24.5,78.5l-5-14.8h-9.5C4.4,63.7,0,59,0,53.1V33.5c0-3.9,2.8-6.9,6.5-6.9h6l8.9,8.9h11.4L33,37
						c0,0.4,0.3,3.2-1,5.7h53.2v3.3l-69.4,0v3.8h5.6c4.2,0,7,1.6,8.1,4.6l7.3,23.2l-3.1,1l-7.3-23.1c-0.5-1.6-2.2-2.4-5-2.4h-8.9
						v-9.4l-5.3-5.3L9.4,36l6.6,6.6h10c1.2,0,2-0.3,2.6-1c0.7-0.8,1-1.9,1.1-2.8H20l-8.9-8.9H6.5c-2.2,0-3.2,1.9-3.2,3.6v19.5
						c0,4.1,3,7.3,6.8,7.3h11.8l5.7,17.1L24.5,78.5z M81.4,38.9h-3.3v-9c0-2.1-3.8-4.1-9.3-5.1l0.6-3.2c3.6,0.6,12,2.7,12,8.3V38.9z
						 M15,24.5c-4.5,0-7.9-3.6-7.9-8.5v-2.3c0-4.8,3.4-8.5,7.9-8.5s7.9,3.6,7.9,8.5V16C22.8,20.9,19.4,24.5,15,24.5z M15,8.5
						c-3,0-4.6,2.6-4.6,5.2V16c0,2.6,1.6,5.2,4.6,5.2c3,0,4.6-2.6,4.6-5.2v-2.3C19.5,11.2,18,8.5,15,8.5z M68.1,18.3l-1.4-2.9
						c1.6-0.8,2.6-2.5,2.6-4.7V8.5c0-2.6-1.6-5.2-4.6-5.2c-3,0-4.6,2.6-4.6,5.2v2h-3.3v-2c0-4.8,3.4-8.5,7.9-8.5
						c4.5,0,7.9,3.6,7.9,8.5v2.3C72.5,14.1,70.9,17,68.1,18.3z"/>
				</g>
			</g>
			<g>
				<polygon class="st0" points="61.6,15.9 29.6,15.9 38.5,37.2 70.1,37.2 				"/>
				<path class="st1" d="M72.5,38.8H37.4L27.2,14.2h35.5L72.5,38.8z M39.6,35.5h28.1l-7.2-18H32.1L39.6,35.5z"/>
			</g>
			<g>
				<g>
					<polygon class="st2" points="79.8,61.2 79.8,78 79.8,61.2 79.8,44.3 					"/>
					<rect x="78.2" y="44.3" class="st1" width="3.3" height="33.8"/>
				</g>
			</g>
		</g>
	</g>
</g>
</svg>
