<?xml version="1.0" encoding="utf-8"?>
<!-- Generator: Adobe Illustrator 23.0.2, SVG Export Plug-In . SVG Version: 6.00 Build 0)  -->
<svg version="1.1" id="Laag_1" xmlns="http://www.w3.org/2000/svg" xmlns:xlink="http://www.w3.org/1999/xlink" x="0px" y="0px"
	 viewBox="0 0 83.3 83.6" style="enable-background:new 0 0 83.3 83.6;" xml:space="preserve">
<style type="text/css">
	.st0{fill:#CD1719;}
</style>
<g>
	<path class="st0" d="M43.4,60.7c-4.8,0-8.6-3.9-8.6-8.6s3.9-8.6,8.6-8.6c4.8,0,8.6,3.9,8.6,8.6S48.2,60.7,43.4,60.7z M43.4,46.7
		c-3,0-5.4,2.4-5.4,5.4s2.4,5.4,5.4,5.4s5.4-2.4,5.4-5.4S46.4,46.7,43.4,46.7z"/>
	<path class="st0" d="M55.5,83.3h-3.3V71.1c0-0.7-0.4-1.3-1-1.6c-4.9-2.6-10.8-2.6-15.7,0c-0.6,0.3-1,1-1,1.6v12.2h-3.3V71.1
		c0-1.8,1.1-3.6,2.8-4.5c5.9-3.1,12.9-3.1,18.7,0c1.7,0.9,2.8,2.6,2.8,4.6V83.3z"/>
	<path class="st0" d="M78.1,74.6h-1.7v-3.3h1.7c1,0,1.9-0.9,1.9-1.9V39.7c0-2.4-1.6-4.5-3.9-5.1c-8.9-2.4-18.3-2.4-27.2,0
		c-2.3,0.6-3.9,2.8-3.9,5.1h-3.3c0-3.9,2.6-7.3,6.3-8.3c9.4-2.6,19.4-2.6,28.8,0c3.7,1,6.3,4.4,6.3,8.3v29.7
		C83.3,72.2,80.9,74.6,78.1,74.6z"/>
	<path class="st0" d="M76.6,83.6c-1.5-9.7-3.8-17.7-6.8-23.8l-0.3-0.5l3.6-18l3.2,0.6l-3.4,16.9c3.1,6.3,5.4,14.5,6.9,24.3
		L76.6,83.6z"/>
	<rect x="55.6" y="57.4" class="st0" width="15.6" height="3.3"/>
	<rect x="8.6" y="59.1" class="st0" width="22.6" height="3.3"/>
	<path class="st0" d="M22.5,20.7c-5.7,0-10.3-4.6-10.3-10.3S16.8,0,22.5,0s10.3,4.6,10.3,10.3S28.2,20.7,22.5,20.7z M22.5,3.3
		c-3.9,0-7.1,3.2-7.1,7.1s3.2,7.1,7.1,7.1s7.1-3.2,7.1-7.1S26.4,3.3,22.5,3.3z"/>
	<path class="st0" d="M76.4,32.6h-3.3V13.8c0-5.8-4.7-10.6-10.6-10.6S52,8,52,13.8v18.8h-3.3V13.8C48.7,6.2,54.9,0,62.5,0
		s13.8,6.2,13.8,13.8V32.6z"/>
	<path class="st0" d="M62.5,25.9c-3.8,0-6.8-3-6.8-6.8V7l2.6,2c2.7,2.1,6,3.2,9.4,3.2h1.6V19C69.4,22.9,66.4,25.9,62.5,25.9z
		 M59,13.3V19c0,2,1.6,3.6,3.6,3.6s3.6-1.6,3.6-3.6v-3.6C63.6,15.2,61.2,14.5,59,13.3z"/>
	<rect x="67.7" y="12.2" class="st0" width="7" height="3.3"/>
	<path class="st0" d="M10.3,76.3H5.1c-2.8,0-5.1-2.4-5.1-5.1V34.6c0-3.9,2.7-7.3,6.5-8.3c10.5-2.7,21.5-2.7,32,0
		c3.8,0.9,6.5,4.3,6.5,8.3v5.2h-3.3v-5.2c0-2.4-1.7-4.6-4-5.1c-10-2.5-20.5-2.5-30.4,0c-2.4,0.6-4.1,2.8-4.1,5.1v36.5
		c0,1,0.9,1.9,1.9,1.9H7V38.1h3.3V76.3z"/>
	<rect x="7" y="67.7" class="st0" width="3.3" height="15.6"/>
</g>
</svg>
