<?xml version="1.0" encoding="utf-8"?>
<!-- Generator: Adobe Illustrator 23.0.2, SVG Export Plug-In . SVG Version: 6.00 Build 0)  -->
<svg version="1.1" xmlns="http://www.w3.org/2000/svg" xmlns:xlink="http://www.w3.org/1999/xlink" x="0px" y="0px"
	 viewBox="0 0 55.2 85.4" style="enable-background:new 0 0 55.2 85.4;" xml:space="preserve">
<style type="text/css">
	.st0{fill:none;}
	.st1{fill:#ED6B0A;}
</style>
<g id="Layer_2">
</g>
<g id="Laag_1">
	<g>
		<g>
			<path class="st0" d="M38.2,85.4V64.7c0-0.3-0.2-0.5-0.5-0.5H17.5c-0.3,0-0.5,0.2-0.5,0.5v20.7 M17,68h-4.2l-3.4-8.3
				c-0.2-0.4,0.2-0.9,0.6-0.9h35c0.5,0,0.8,0.5,0.6,0.9L42.4,68h-4.1 M36.6,30.9L36.6,30.9c3.8,0,5.8,3.1,5.8,6.8v15.8 M12.9,53.6
				V37.7c0-3.8,2-6.8,5.8-6.8h17.9 M19.4,41.3v12.3h16.4V41.3 M27.6,30.9v8.8 M32.7,21.3c0,2.8-2.3,5.1-5.1,5.1s-5.1-2.3-5.1-5.1
				s2.3-5.1,5.1-5.1C30.4,16.2,32.7,18.5,32.7,21.3z M42.4,49c6.8-4.7,11.2-12.5,11.2-21.4c0-14.3-11.6-26-26-26s-26,11.6-26,26
				c0,8.9,4.4,16.7,11.2,21.4"/>
			<path class="st1" d="M39.8,85.4h-3.3V65.9H18.7v19.6h-3.3V69.6h-3.6l-3.8-9.3c-0.3-0.7-0.2-1.5,0.2-2.2c0.4-0.6,1.2-1,1.9-1h35
				c0.8,0,1.5,0.4,1.9,1c0.4,0.6,0.5,1.4,0.2,2.2l-3.8,9.4h-3.6V85.4z M39.8,66.4h1.4l2.5-6H11.5l2.5,6h1.4v-1.7
				c0-1.2,0.9-2.1,2.1-2.1h20.3c1.2,0,2.1,0.9,2.1,2.1V66.4z M37.4,55.2H17.8V41.3H21V52h13.1V41.3h3.3V55.2z M44,53.6h-3.3V37.7
				c0-2.5-1.1-5.2-4.2-5.2h-7.3v7.2H26v-7.2h-7.3c-3.1,0-4.2,2.7-4.2,5.2v15.9h-3.3v-3.8C4.2,44.6,0,36.4,0,27.6
				C0,12.4,12.4,0,27.6,0s27.6,12.4,27.6,27.6c0,8.8-4.2,17-11.2,22.2V53.6z M27.6,3.3C14.2,3.3,3.3,14.2,3.3,27.6
				c0,6.9,2.9,13.4,8,18v-7.9c0-5,3.1-8.5,7.4-8.5h17.9c4.4,0,7.4,3.5,7.4,8.5v7.9c5-4.6,8-11.1,8-18C51.9,14.2,41,3.3,27.6,3.3z
				 M27.6,28.1c-3.7,0-6.8-3-6.8-6.8s3-6.8,6.8-6.8s6.8,3,6.8,6.8S31.3,28.1,27.6,28.1z M27.6,17.9c-1.9,0-3.5,1.6-3.5,3.5
				s1.6,3.5,3.5,3.5s3.5-1.6,3.5-3.5S29.5,17.9,27.6,17.9z"/>
		</g>
	</g>
</g>
</svg>
