<?xml version="1.0" encoding="utf-8"?>
<!-- Generator: Adobe Illustrator 23.0.2, SVG Export Plug-In . SVG Version: 6.00 Build 0)  -->
<svg version="1.1" xmlns="http://www.w3.org/2000/svg" xmlns:xlink="http://www.w3.org/1999/xlink" x="0px" y="0px"
	 viewBox="0 0 62.6 80.7" style="enable-background:new 0 0 62.6 80.7;" xml:space="preserve">
<style type="text/css">
	.st0{fill:#FCC621;}
</style>
<g id="Layer_2">
</g>
<g id="Laag_1">
	<g>
		<g>
			<g>
				<path class="st0" d="M31.3,80.7c-2.7,0-5-2.2-5-5v-0.3c-4.6-1.6-7.9-6-7.9-11.1V62h25.8v2.3c0,3.1-1.2,6.1-3.4,8.3
					c-1.3,1.3-2.8,2.2-4.5,2.8v0.3C36.2,78.5,34,80.7,31.3,80.7z M29.6,76c0.1,0.8,0.8,1.4,1.7,1.4s1.5-0.6,1.7-1.4
					c-0.2,0-0.3,0-0.5,0h-2.4C29.9,76.1,29.8,76.1,29.6,76z M21.7,65.3c0.5,4.2,4.1,7.5,8.4,7.5h2.4c2.3,0,4.4-0.9,6-2.5
					c1.4-1.4,2.2-3.1,2.4-5H21.7z M42.5,60.8H20v-3.3h22.5V60.8z M42.4,56.4H18.5v-1.6c0-2.8-1.1-5.5-3.2-7.6
					C10.7,42.5,8.4,36.1,9,29.6C9.9,18.7,18.8,9.9,29.7,9.2c6.3-0.4,12.3,1.7,16.9,6c4.5,4.2,7.1,10.2,7.1,16.4
					c0,6-2.4,11.7-6.6,15.9c-1.9,1.9-3,4.6-3,7.3v1.6L42.4,56.4z M21.7,53.2h19.2c0.4-3.1,1.7-6,3.9-8.1c3.6-3.6,5.7-8.4,5.7-13.6
					c0-5.4-2.2-10.3-6.1-14c-3.9-3.7-9-5.5-14.4-5.1c-9.3,0.6-16.9,8.1-17.7,17.5c-0.5,5.6,1.5,11.1,5.4,15
					C19.9,47.2,21.3,50.1,21.7,53.2z M62,38.5l-5.3-0.9l0.6-3.2l5.3,0.9L62,38.5z M0.6,38.5L0,35.3l5.3-0.9l0.6,3.2L0.6,38.5z
					 M19,30.4l-3.3-0.3c0.6-7.7,7-14,14.7-14.5c0.4,0,0.8,0,1.1,0c3.9,0,7.6,1.4,10.5,4L39.9,22c-2.5-2.2-5.9-3.3-9.3-3.1
					C24.5,19.3,19.5,24.3,19,30.4z M57.3,28.5l-0.6-3.2l5.3-0.9l0.6,3.2L57.3,28.5z M5.3,28.5L0,27.6l0.6-3.2l5.3,0.9L5.3,28.5z
					 M7.8,19.8l-4.6-2.7l1.6-2.8L9.5,17L7.8,19.8z M54.7,19.8L53.1,17l4.6-2.7l1.6,2.8L54.7,19.8z M13.2,12.5L9.8,8.4l2.5-2.1
					l3.5,4.1L13.2,12.5z M49.3,12.5l-2.5-2.1l3.4-4.1l2.5,2.1L49.3,12.5z M41.7,7.5l-3.1-1.1l1.8-5l3.1,1.1L41.7,7.5z M20.8,7.5
					l-1.8-5l3.1-1.1l1.8,5L20.8,7.5z M32.9,5.4h-3.3V0h3.3V5.4z"/>
			</g>
		</g>
	</g>
</g>
</svg>
