<?xml version="1.0" encoding="utf-8"?>
<!-- Generator: Adobe Illustrator 23.0.2, SVG Export Plug-In . SVG Version: 6.00 Build 0)  -->
<svg version="1.1" id="Layer_1" xmlns="http://www.w3.org/2000/svg" xmlns:xlink="http://www.w3.org/1999/xlink" x="0px" y="0px"
	 viewBox="0 0 78.7 54.7" style="enable-background:new 0 0 78.7 54.7;" xml:space="preserve">
<style type="text/css">
	.st0{fill:none;}
	.st1{fill:#633188;}
</style>
<g id="Laag_1">
	<g>
		<g>
			<path class="st0" d="M29.4,38.4v10.1c0,1.8,1.4,3.2,3.2,3.2H45c1.8,0,3.2-1.4,3.2-3.2v-5 M8.1,36c0,1.8-1.4,3.2-3.2,3.2
				S1.7,37.8,1.7,36V18.5c0-1.8,1.4-3.2,3.2-3.2s3.2,1.4,3.2,3.2v17.9 M8.1,36.8l9.8-1.6V19.3l-9.8-1.6 M71.5,42.1V4.5
				c0-1.5,1.2-2.8,2.8-2.8C75.8,1.7,77,3,77,4.5v45.7c0,1.5-1.2,2.8-2.8,2.8c-1.5,0-2.8-1.2-2.8-2.8v-9"/>
			<path class="st1" d="M74.2,54.7c-2.5,0-4.5-2-4.5-4.5V4.5c0-2.5,2-4.5,4.5-4.5s4.5,2,4.5,4.5v45.7C78.7,52.7,76.7,54.7,74.2,54.7
				z M73.2,42.1v8.1c0,0.6,0.5,1,1,1c0.6,0,1-0.5,1-1V4.5c0-0.6-0.5-1-1-1c-0.6,0-1,0.5-1,1V42.1z M45,53.5H32.6c-2.7,0-5-2.2-5-5
				V38.4h3.5v10.1c0,0.8,0.7,1.5,1.5,1.5H45c0.8,0,1.5-0.7,1.5-1.5v-5H50v5C50,51.2,47.7,53.5,45,53.5z M4.9,41C2.2,41,0,38.7,0,36
				V18.5c0-2.7,2.2-4.9,4.9-4.9c1.9,0,3.5,1.1,4.4,2.6l10.4,1.6v18.9L9.3,38.3C8.4,39.9,6.8,41,4.9,41z M4.9,17.1
				c-0.8,0-1.4,0.7-1.4,1.4V36c0,0.8,0.7,1.4,1.4,1.4s1.4-0.7,1.4-1.4V18.5C6.4,17.7,5.7,17.1,4.9,17.1z M9.9,19.8v14.9l6.3-1V20.8
				L9.9,19.8z"/>
		</g>
		<polygon class="st1" points="71,50.7 16.2,36.7 16.2,18 71,4 71.9,7.3 19.7,20.7 19.7,34 71.9,47.3 		"/>
	</g>
</g>
</svg>
