<?xml version="1.0" encoding="utf-8"?>
<!-- Generator: Adobe Illustrator 23.0.2, SVG Export Plug-In . SVG Version: 6.00 Build 0)  -->
<svg version="1.1" xmlns="http://www.w3.org/2000/svg" xmlns:xlink="http://www.w3.org/1999/xlink" x="0px" y="0px"
	 viewBox="0 0 71.2 79" style="enable-background:new 0 0 71.2 79;" xml:space="preserve">
<style type="text/css">
	.st0{fill:none;}
	.st1{fill:#CD1719;}
</style>
<g id="Layer_2">
</g>
<g id="Laag_1">
	<g>
		<g>
			<g>
				<path class="st0" d="M1.6,79c0-1.8,2.6-29.4,2.6-29.4l18.6-12.2"/>
				<path class="st1" d="M3.3,79H0c0-1.8,2.3-26.7,2.6-29.6c0-0.5,0.3-0.9,0.7-1.2L21.9,36l1.8,2.7l-18,11.8
					C4.7,61.6,3.3,77.8,3.3,79z"/>
			</g>
			<g>
				<path class="st0" d="M33,61.7L28.6,79 M22.8,37.4l1.9,22.8l10.9-9.5L22.8,37.4z"/>
				<path class="st1" d="M30.2,79.4L27,78.6l4.4-17.3l3.2,0.8L30.2,79.4z M24.7,61.9c-0.2,0-0.4,0-0.6-0.1c-0.6-0.2-1-0.8-1-1.4
					l-1.9-22.9c-0.1-0.7,0.3-1.3,1-1.6c0.6-0.3,1.4-0.1,1.9,0.4l12.8,13.4c0.3,0.3,0.5,0.8,0.5,1.2c0,0.4-0.2,0.9-0.6,1.2l-10.9,9.5
					C25.5,61.8,25.1,61.9,24.7,61.9z M24.8,41.9l1.2,15l7.2-6.2L24.8,41.9z"/>
			</g>
			<g>
				<path class="st0" d="M69.6,79c0-1.8-2.6-29.4-2.6-29.4L48.4,37.4"/>
				<path class="st1" d="M71.2,79H68c0-1.2-1.5-17.4-2.5-28.5l-18-11.8l1.8-2.7l18.6,12.2c0.4,0.3,0.7,0.7,0.7,1.2
					C68.9,52.3,71.2,77.2,71.2,79z"/>
			</g>
			<g>
				<path class="st0" d="M49.2,18.3c0-9.2-6.1-16.6-13.6-16.6S22.1,9.1,22.1,18.3s6.1,16.6,13.6,16.6C43.1,34.9,49.2,27.5,49.2,18.3
					z M48.4,68h10 M38.2,61.7L42.6,79 M35.6,50.8l-5.8,5.1l3.2,5.8h2.6h2.6l3.2-5.8L35.6,50.8z M48.4,37.4l-1.9,22.8l-10.9-9.5
					L48.4,37.4z"/>
				<path class="st1" d="M41.1,79.4l-4.1-16.1H33c-0.6,0-1.1-0.3-1.4-0.8l-3.2-5.8c-0.4-0.7-0.2-1.5,0.4-2l5.8-5l12.7-13.3
					c0.5-0.5,1.2-0.6,1.9-0.4c0.6,0.3,1,0.9,1,1.6l-1.9,22.9c-0.1,0.6-0.4,1.1-1,1.4c-0.6,0.2-1.2,0.1-1.7-0.3l-3.6-3.1l-1.9,3.5
					l4.3,16.7L41.1,79.4z M34,60h3.2l2.1-3.8l-3.7-3.3l-3.7,3.3L34,60z M42.6,54.7l2.6,2.2l1.2-15L38,50.7L42.6,54.7
					C42.5,54.6,42.5,54.6,42.6,54.7z M58.3,69.7h-10v-3.3h10V69.7z M35.6,36.5c-8.4,0-15.2-8.2-15.2-18.3C20.4,8.2,27.2,0,35.6,0
					s15.2,8.2,15.2,18.3C50.8,28.3,44,36.5,35.6,36.5z M35.6,3.3c-6.6,0-11.9,6.7-11.9,15c0,8.3,5.3,15,11.9,15
					c6.6,0,11.9-6.7,11.9-15C47.5,10,42.2,3.3,35.6,3.3z"/>
			</g>
		</g>
	</g>
</g>
</svg>
