<?xml version="1.0" encoding="utf-8"?>
<!-- Generator: Adobe Illustrator 23.0.2, SVG Export Plug-In . SVG Version: 6.00 Build 0)  -->
<svg version="1.1" id="Intern" xmlns="http://www.w3.org/2000/svg" xmlns:xlink="http://www.w3.org/1999/xlink" x="0px" y="0px"
	 viewBox="0 0 370 370" style="enable-background:new 0 0 370 370;" xml:space="preserve">
<style type="text/css">
	.st0{fill:none;stroke:#29235C;stroke-width:2.9068;stroke-linecap:round;stroke-linejoin:round;stroke-miterlimit:10;}
	.st1{fill:none;stroke:#29235C;stroke-width:2.8579;stroke-linecap:round;stroke-linejoin:round;stroke-miterlimit:10;}
	.st2{fill:#B0D2F0;}
	.st3{fill:none;stroke:#29235C;stroke-width:2.9473;stroke-linecap:round;stroke-linejoin:round;stroke-miterlimit:10;}
	.st4{fill:#FFFFFF;}
	.st5{fill:none;stroke:#B0D2F0;stroke-width:2.9068;stroke-linecap:round;stroke-linejoin:round;stroke-miterlimit:10;}
	.st6{fill:none;stroke:#29235C;stroke-width:2.9068;stroke-linecap:round;stroke-miterlimit:10;}
</style>
<path class="st0" d="M98,99.6l3.1,5.3c1.2,2,3.8,2.7,5.8,1.6l5.9-3.4c2-1.2,2.7-3.8,1.6-5.8l-3.1-5.3c3.7-3.7,6.1-8.2,7.4-12.9h6.1
	c2.4,0,4.3-1.9,4.3-4.3V68c0-2.4-1.9-4.3-4.3-4.3h-6.1c-1.3-4.7-3.7-9.1-7.4-12.9l3.1-5.3c1.2-2,0.5-4.7-1.6-5.8l-5.9-3.4
	c-2-1.2-4.7-0.5-5.8,1.6L98,43.4c-4.9-1.3-10-1.3-14.8,0l-3.1-5.3c-1.2-2-3.8-2.7-5.8-1.6l-5.9,3.4c-2,1.2-2.7,3.8-1.6,5.8l3,5.3
	c-3.7,3.7-6.1,8.2-7.4,12.9h-6.1c-2.4,0-4.3,1.9-4.3,4.3V75c0,2.4,1.9,4.3,4.3,4.3h6.1c1.3,4.7,3.7,9.1,7.4,12.9l-3,5.3
	c-1.2,2-0.5,4.7,1.6,5.8l5.9,3.4c2,1.2,4.7,0.5,5.8-1.6l3.1-5.3C88,100.9,93.1,100.9,98,99.6z"/>
<path class="st0" d="M95.8,66.2c-2.9-2.9-7.6-2.9-10.5,0s-2.9,7.6,0,10.5s7.6,2.9,10.5,0C98.7,73.9,98.7,69.2,95.8,66.2z"/>
<polyline class="st1" points="347.4,77.6 291.3,77.6 291.3,106.4 235.1,106.4 235.1,135.3 179,135.3 179,164.2 122.9,164.2 
	122.9,193 66.7,193 66.7,221.9 10.6,221.9 "/>
<g>
	<path class="st2" d="M225.9,189.1V139c0-13.1-10.6-23.6-23.6-23.6l0,0c-8.5,8.5-22.2,8.5-30.7,0l0,0c-7.3,0-68.8,1.8-68.8,1.8
		c0.4,0,0,13.8,0,13.8c4.5,1.4,45.1-0.2,59.5,1.2v57L225.9,189.1L225.9,189.1z"/>
	<path class="st3" d="M162.7,131h-60c-7.9,0-14.3-6.6-14.3-14.7l83.1-0.4"/>
	<g>
		<path class="st2" d="M163.4,187.8h62.2v-49.4c0-12.9-10.4-23.3-23.3-23.3l0,0c-8.4,8.4-21.9,8.4-30.3,0l0,0"/>
		<rect x="162.9" y="187.3" class="st4" width="48.9" height="91.6"/>
		<path class="st2" d="M218.3,286.7c0,3.5-2.9,6.4-6.4,6.4h-49c-3.5,0-6.4-2.9-6.4-6.4V286c0-3.5,2.9-6.4,6.4-6.4h49
			c3.5,0,6.4,2.9,6.4,6.4V286.7z"/>
		<path class="st5" d="M163.4,187.8h62.2v-49.4c0-12.9-10.4-23.3-23.3-23.3l0,0c-8.4,8.4-21.9,8.4-30.3,0l0,0"/>
		<path class="st0" d="M163.4,187.8h62.2v-49.4c0-12.9-10.4-23.3-23.3-23.3l0,0c-8.4,8.4-21.9,8.4-30.3,0l0,0"/>
		<path class="st0" d="M172.1,116.2l5.9,13.5l8.5-8.3 M202.3,116.2l-5.9,13.5l-8.5-8.3 M211,202.1c8.1,0,14.7-6.4,14.7-14.3
			 M211,141.8v136.9 M163.4,131v147.8 M198.6,65.5c5.4,4.5,9,12,9,20.5c0,13.7-9.1,24.8-20.4,24.8c-11.2,0-20.4-11.1-20.4-24.8
			c0-4.6,1-8.9,2.8-12.6 M207.6,88.2c3.5-3.5,5.7-8.3,5.7-13.7c0-10.7-8.7-19.4-19.4-19.4c0,0-18.1-0.2-25.5-4.6
			c-1.7,2.7-2.7,5.9-2.7,9.4c0,9.8,7.9,17.7,17.7,17.7c7,0,13.1-4.1,16-10.1"/>
		<line class="st6" x1="187.7" y1="209.1" x2="187.7" y2="286.6"/>
		<path class="st6" d="M218.3,286.7c0,3.5-2.9,6.4-6.4,6.4h-49c-3.5,0-6.4-2.9-6.4-6.4V286c0-3.5,2.9-6.4,6.4-6.4h49
			c3.5,0,6.4,2.9,6.4,6.4V286.7z"/>
		<path class="st0" d="M225.7,170.3"/>
	</g>
</g>
</svg>
