<?xml version="1.0" encoding="utf-8"?>
<!-- Generator: Adobe Illustrator 23.0.2, SVG Export Plug-In . SVG Version: 6.00 Build 0)  -->
<svg version="1.1" id="Intern" xmlns="http://www.w3.org/2000/svg" xmlns:xlink="http://www.w3.org/1999/xlink" x="0px" y="0px"
	 viewBox="0 0 370 370" style="enable-background:new 0 0 370 370;" xml:space="preserve">
<style type="text/css">
	.st0{fill:none;stroke:#29235C;stroke-width:2.9068;stroke-linecap:round;stroke-linejoin:round;stroke-miterlimit:10;}
	.st1{fill:#FFFFFF;stroke:#29235C;stroke-width:2.6029;stroke-linecap:round;stroke-linejoin:round;stroke-miterlimit:10;}
	.st2{fill:#FFFFFF;stroke:#29235C;stroke-width:2.9068;stroke-linecap:round;stroke-linejoin:round;stroke-miterlimit:10;}
	.st3{fill:#B0D2F0;}
	.st4{fill:none;stroke:#29235C;stroke-width:2.9473;stroke-linecap:round;stroke-linejoin:round;stroke-miterlimit:10;}
	.st5{fill:#FFFFFF;}
	.st6{fill:none;stroke:#B0D2F0;stroke-width:2.9068;stroke-linecap:round;stroke-linejoin:round;stroke-miterlimit:10;}
	.st7{fill:none;stroke:#29235C;stroke-width:2.9068;stroke-linecap:round;stroke-miterlimit:10;}
	.st8{fill:none;stroke:#29235C;stroke-width:2.6029;stroke-linecap:round;stroke-linejoin:round;stroke-miterlimit:10;}
	.st9{fill:none;stroke:#29235C;stroke-width:2;stroke-linecap:round;stroke-linejoin:round;stroke-miterlimit:10;}
	.st10{fill:#FFFFFF;stroke:#29235C;stroke-width:2;stroke-linecap:round;stroke-linejoin:round;stroke-miterlimit:10;}
</style>
<line class="st0" x1="7.7" y1="221.9" x2="354.9" y2="221.9"/>
<g>
	<path class="st1" d="M86.3,197.9V188c0-11.7,9.8-21.2,21.8-21.2h83.6"/>
	<path class="st2" d="M86.3,197.9V188c0-11.7,9.8-21.2,21.8-21.2h83.6"/>
	<path class="st1" d="M245.1,197.9V188c0-11.7-9.8-21.2-21.8-21.2h-31.5"/>
	<path class="st1" d="M245.1,197.9V188c0-11.7-9.8-21.2-21.8-21.2h-31.5"/>
	<path class="st1" d="M229.2,247.5l5.7,12.3c1.5,2.5,4.5,3.3,6.8,1.7c2.3-1.6,3-4.9,1.6-7.4l-4.4-9.2"/>
	<path class="st0" d="M229.2,247.5l5.7,12.3c1.5,2.5,4.5,3.3,6.8,1.7c2.3-1.6,3-4.9,1.6-7.4l-4.4-9.2"/>
	<path class="st0" d="M101.1,247.5l-5.7,12.3c-1.5,2.5-4.5,3.3-6.8,1.7c-2.3-1.6-3-4.9-1.6-7.4l4.4-9.2"/>
	<path class="st1" d="M194.1,247.6l-93.1-0.1c-4.4,0-8.3-2.2-10.6-5.5l-7.7-18.3l0,0c-5.5-1.5-9.5-6.5-9.5-12.3
		c0-7.1,5.8-12.8,13-12.8c4.5,0,8.5,2.2,10.8,5.6l6.9,13.2l0.4,0.3c8.3-3.9,20.2-6.3,33.3-6.3h55.9c13.1,0,25,2.4,33.3,6.3l0.4-0.3
		l6.9-13.2c2.3-3.4,6.3-5.6,10.8-5.6c7.2,0,13,5.7,13,12.8c0,5.9-4,10.8-9.5,12.3l0,0l-7.7,18.3c-2.3,3.3-6.2,5.5-10.6,5.5
		l-36.6,0.1"/>
	<path class="st2" d="M194.1,247.6l-93.1-0.1c-4.4,0-8.3-2.2-10.6-5.5l-7.7-18.3l0,0c-5.5-1.5-9.5-6.5-9.5-12.3
		c0-7.1,5.8-12.8,13-12.8c4.5,0,8.5,2.2,10.8,5.6l6.9,13.2l0.4,0.3c8.3-3.9,20.2-6.3,33.3-6.3h55.9c13.1,0,25,2.4,33.3,6.3l0.4-0.3
		l6.9-13.2c2.3-3.4,6.3-5.6,10.8-5.6c7.2,0,13,5.7,13,12.8c0,5.9-4,10.8-9.5,12.3l0,0l-7.7,18.3c-2.3,3.3-6.2,5.5-10.6,5.5
		l-36.6,0.1"/>
</g>
<path class="st0" d="M58.2,73.3"/>
<path class="st3" d="M202.3,115.2L202.3,115.2c-8.2,8.2-21.3,8.3-29.7,0.6l0.1-0.7c0,0-12.6,1.7-16.5,6.8s-6.8,7.3-6.8,29.9
	s0,36,0,36h14v0.1h62.2v-49.4C225.6,125.6,215.2,115.2,202.3,115.2z"/>
<path class="st4" d="M102.7,117.3"/>
<path class="st4" d="M102.7,130.9"/>
<path class="st5" d="M154.7,201.5"/>
<g>
	<rect x="162.9" y="187.4" class="st5" width="48.9" height="91.6"/>
	<path class="st3" d="M218.3,286.9c0,3.5-2.9,6.4-6.4,6.4h-49c-3.5,0-6.4-2.9-6.4-6.4v-0.7c0-3.5,2.9-6.4,6.4-6.4h49
		c3.5,0,6.4,2.9,6.4,6.4V286.9z"/>
	<path class="st6" d="M163.4,187.9h62.2v-49.4c0-12.9-10.4-23.3-23.3-23.3l0,0c-8.4,8.4-21.9,8.4-30.3,0l0,0"/>
	<path class="st0" d="M163.4,187.9h62.2v-49.4c0-12.9-10.4-23.3-23.3-23.3l0,0c-8.4,8.4-21.9,8.4-30.3,0l0,0"/>
	<path class="st0" d="M172,116.4l5.9,13.5l8.5-8.3 M202.3,116.4l-5.9,13.5l-8.5-8.3 M211,202.3c8.1,0,14.7-6.4,14.7-14.3
		 M147.4,187.9c0,7.9,6.6,14.3,14.7,14.3 M211,142v136.9 M198.5,65.6c5.4,4.5,9,12,9,20.5c0,13.7-9.1,24.8-20.4,24.8
		c-11.2,0-20.4-11.1-20.4-24.8c0-4.6,1-8.9,2.8-12.6 M207.6,88.3c3.5-3.5,5.7-8.3,5.7-13.7c0-10.7-8.7-19.4-19.4-19.4
		c0,0-18.1-0.2-25.5-4.6c-1.7,2.7-2.7,5.9-2.7,9.4c0,9.8,7.9,17.7,17.7,17.7c7,0,13.1-4.1,16-10.1 M163.4,141.2V279"/>
	<line class="st7" x1="187.6" y1="209.3" x2="187.6" y2="286.7"/>
	<path class="st7" d="M218.3,286.9c0,3.5-2.9,6.4-6.4,6.4h-49c-3.5,0-6.4-2.9-6.4-6.4v-0.7c0-3.5,2.9-6.4,6.4-6.4h49
		c3.5,0,6.4,2.9,6.4,6.4V286.9z"/>
	<path class="st0" d="M225.6,170.4"/>
</g>
<path class="st5" d="M144.9,176.1c0,0-0.7-3.9-1.6-5.3c-0.9-1.4-5.7-2-5.7-2l-7.8,2.3l0.9,4.3c0,0,6.8,3.2,7.1,3.2
	S144.9,176.1,144.9,176.1"/>
<path class="st0" d="M210.9,187.9h-62.2v-49.4c0-12.9,10.4-23.3,23.3-23.3l0,0"/>
<path class="st0" d="M110.6,103.1c-5.5-5.8-13.3-9.5-21.9-9.5c-16.6,0-30.1,13.5-30.1,30.1v129.9"/>
<path class="st0" d="M132.2,125.5c0-11.9-9.7-21.6-21.6-21.6S89,113.6,89,125.5H132.2z"/>
<path class="st0" d="M102.2,125.9c0,5,4.1,9.1,9.1,9.1s9.1-4.1,9.1-9.1"/>
<path class="st8" d="M67.4,262.5c0-5-4.1-9.1-9.1-9.1s-9.1,4.1-9.1,9.1H67.4z"/>
<polyline class="st9" points="269.3,67.9 284.7,45 300,67.9 "/>
<rect x="242" y="68.4" class="st9" width="83.8" height="76.2"/>
<circle class="st10" cx="284.7" cy="45" r="2.4"/>
<path class="st9" d="M267.5,91.9c0,0-1.7,0.3-3,0.7c-1.3,0.3-1.3,1.5-1.3,1.5l-3.1,14.5c0,0-1.3,3.2,2.6,4.7L266,99l2.1,31.9
	l-2.5,1.5c0,0-1,1.4,1.3,1.3s11.1,0,11.1,0s1.3-0.6,0.4-1.5l-2.4-1.4l2.1-32.3c0,0,2.3,8.4,6.4,11.3c0,0,1,0.4,1.9-0.3
	c0.9-0.7,0.8-1.4,0.4-2c0,0-3.3-3.3-4.9-8.8L281,94c0,0-0.3-1.3-1.5-1.6c-1.3-0.3-2.7-0.7-2.7-0.7l-1.5,3.8l-2-2.4"/>
<path class="st9" d="M271,93.3l-2,2.3l-1.5-3.6c0,0,4.9,3.1,9.2-0.1"/>
<polyline class="st9" points="270.3,94.3 271.4,95.6 270.5,105.7 271.9,107.2 273.5,105.6 272.5,95.6 273.9,94.4 "/>
<line class="st9" x1="272" y1="115.2" x2="272" y2="131.5"/>
<line class="st9" x1="268" y1="130.9" x2="275.9" y2="130.9"/>
<path class="st9" d="M269,79.9c-1.3,1.1-2.2,2.9-2.2,5c0,3.3,2.2,6.1,5,6.1s5-2.7,5-6.1c0-1.1-0.3-2.2-0.7-3.1"/>
<path class="st9" d="M266.8,85.5c-0.9-0.9-1.4-2-1.4-3.4c0-2.6,2.1-4.7,4.7-4.7c0,0,4.4,0,6.2-1.1c0.4,0.7,0.7,1.4,0.7,2.3
	c0,2.4-1.9,4.3-4.3,4.3c-1.7,0-3.2-1-3.9-2.5"/>
<path class="st9" d="M287.9,97c0,0,0,2.1,0-2s3.5-14.1,5.1-16.2s4.7-2.2,4.7-2.2s3.4-0.1,5.5,2.3s3.7,9.3,4.4,12.4
	c0.7,3.1,0.5,5.5,0.5,5.5"/>
<path class="st9" d="M293.1,84.4c0,0,4.2-2.4,4.9-3.9c0,0,2.6,2.9,4.9,3.9"/>
<path class="st9" d="M293.6,84.1c0,0,0.8,4.9,4.3,5.3s4.5-4.8,4.5-5.2"/>
<path class="st9" d="M283,108.3l2.4-2.4c0,0,3-2.8,4.3-6.7c0,0,0.9-4.8,1.1-5.2c0.1-0.4,0.9-2.1,3.1-2.8"/>
<path class="st9" d="M301.7,91.1c0,0,4.2,1,4.4,6.2c0.2,3.7,0.3,6.8-1.5,10.4c-0.7,1.4-1.7,2.8-3,4.5c0,0-0.6,0.6-1.7,0.2
	s-1-1.8-0.5-2.3c0,0,3.7-4.3,3.9-7c0.3-2.7-0.2-6.5-0.2-6.5s0-2.3-1.9-2.7c-1.8-0.4-3.3,1.1-3.3,1.1s-2.2-1.7-3.4-1.1
	c-1.2,0.7-1.6,1-1.7,2.3c-0.1,1.4,0.7,2.8,0.7,2.8s1.1,3.3,1.2,4.5c0,0-6.8,7.7-8.3,14.9c-1.6,8,0,14.6,0.2,15.3h22.5
	c0,0,1.6-3.5,1.1-10c0,0-0.2-6.4-3.4-12.4l-2.3-3.7"/>
<path class="st9" d="M286.4,109.6c0,0,5.2-4.4,6.9-11.5"/>
<path class="st9" d="M294.7,103.5c0,0,0.6,0.9,3,1.2c2.4,0.3,3.6-1.1,3.6-1.1s0.6-4.1,1.9-6.2"/>
<line class="st9" x1="301.3" y1="103.6" x2="302.7" y2="104.9"/>
<path class="st9" d="M286.1,130.1c0,0,1.2-0.9,2.3-0.9c1.2,0,2,0.6,2.4,1c0,0,0.8-1,2.3-1c1.6,0,2.4,1,2.4,1s1.2-1,2.3-1
	c1,0,2,0.5,2.5,1.1c0,0,1-1.1,2.2-1.1s2.3,0.6,2.6,1c0,0,1.3-0.9,2.3-0.9c1.4,0,2.6,0.9,2.6,0.9"/>
<line class="st9" x1="266.8" y1="110" x2="277.3" y2="110"/>
<line class="st9" x1="260.1" y1="109.1" x2="263.5" y2="109.9"/>
</svg>
