<?xml version="1.0" encoding="utf-8"?>
<!-- Generator: Adobe Illustrator 23.0.2, SVG Export Plug-In . SVG Version: 6.00 Build 0)  -->
<svg version="1.1" id="Intern" xmlns="http://www.w3.org/2000/svg" xmlns:xlink="http://www.w3.org/1999/xlink" x="0px" y="0px"
	 viewBox="0 0 370 370" style="enable-background:new 0 0 370 370;" xml:space="preserve">
<style type="text/css">
	.st0{fill:#B0D2F0;}
	.st1{fill:none;stroke:#29235C;stroke-width:2.9473;stroke-linecap:round;stroke-linejoin:round;stroke-miterlimit:10;}
	.st2{fill:#FFFFFF;}
	.st3{fill:none;stroke:#B0D2F0;stroke-width:2.9068;stroke-linecap:round;stroke-linejoin:round;stroke-miterlimit:10;}
	.st4{fill:none;stroke:#29235C;stroke-width:2.9068;stroke-linecap:round;stroke-linejoin:round;stroke-miterlimit:10;}
	.st5{fill:none;stroke:#29235C;stroke-width:2.9068;stroke-linecap:round;stroke-miterlimit:10;}
	.st6{fill:none;stroke:#29235C;stroke-width:1.8461;stroke-miterlimit:10;}
	.st7{fill:none;stroke:#29235C;stroke-width:1.8461;stroke-linecap:round;stroke-linejoin:round;stroke-miterlimit:10;}
	.st8{fill:none;stroke:#B0D2F0;stroke-width:1.8461;stroke-miterlimit:10;}
</style>
<g>
	<path class="st0" d="M202.4,115.4L202.4,115.4c-8.2,8.2-21.3,8.3-29.7,0.6l0.1-0.7c0,0-12.6,1.7-16.5,6.8s-6.8,7.3-6.8,29.9
		s0,36,0,36h14v0.1h62.2v-49.4C225.8,125.8,215.3,115.4,202.4,115.4z"/>
	<line class="st1" x1="7.9" y1="222.1" x2="355" y2="222.1"/>
	<path class="st1" d="M102.8,117.5"/>
	<path class="st1" d="M102.8,131.1"/>
	<path class="st2" d="M154.8,201.7"/>
	<g>
		<rect x="163" y="187.6" class="st2" width="48.9" height="91.6"/>
		<path class="st0" d="M218.4,287.1c0,3.5-2.9,6.4-6.4,6.4h-49c-3.5,0-6.4-2.9-6.4-6.4v-0.7c0-3.5,2.9-6.4,6.4-6.4h49
			c3.5,0,6.4,2.9,6.4,6.4V287.1z"/>
		<path class="st3" d="M163.5,188.1h62.2v-49.4c0-12.9-10.4-23.3-23.3-23.3l0,0c-8.4,8.4-21.9,8.4-30.3,0l0,0"/>
		<path class="st4" d="M163.5,188.1h62.2v-49.4c0-12.9-10.4-23.3-23.3-23.3l0,0c-8.4,8.4-21.9,8.4-30.3,0l0,0"/>
		<path class="st4" d="M172.2,116.6l5.9,13.5l8.5-8.3 M202.4,116.6l-5.9,13.5l-8.5-8.3 M211.1,202.5c8.1,0,14.7-6.4,14.7-14.3
			 M147.5,188.1c0,7.9,6.6,14.3,14.7,14.3 M211.1,142.2v136.9 M198.7,65.8c5.4,4.5,9,12,9,20.5c0,13.7-9.1,24.8-20.4,24.8
			c-11.2,0-20.4-11.1-20.4-24.8c0-4.6,1-8.9,2.8-12.6 M207.7,88.5c3.5-3.5,5.7-8.3,5.7-13.7c0-10.7-8.7-19.4-19.4-19.4
			c0,0-18.1-0.2-25.5-4.6c-1.7,2.7-2.7,5.9-2.7,9.4c0,9.8,7.9,17.7,17.7,17.7c7,0,13.1-4.1,16-10.1 M163.5,142.2v137"/>
		<line class="st5" x1="187.7" y1="209.5" x2="187.7" y2="286.9"/>
		<path class="st5" d="M218.4,287.1c0,3.5-2.9,6.4-6.4,6.4h-49c-3.5,0-6.4-2.9-6.4-6.4v-0.7c0-3.5,2.9-6.4,6.4-6.4h49
			c3.5,0,6.4,2.9,6.4,6.4V287.1z"/>
		<path class="st4" d="M225.8,170.6"/>
	</g>
	<g>
		<path class="st6" d="M45,276.3l-7.4,15.9c-1.9,3.2-5.8,4.2-8.8,2.2s-3.9-6.3-2.1-9.5l5.7-11.9"/>
	</g>
	<g>
		<path class="st0" d="M295.8,289c1.2,3.4-0.8,6.1-4.4,6.1h-29.7c-3.6,0-5.5-2.7-4.3-6.1l0.5-1.5c1.2-3.3,5.1-6.1,8.7-6.1h20.1
			c3.6,0,7.4,2.7,8.6,6.1L295.8,289z"/>
		<path class="st4" d="M295.8,289c1.2,3.4-0.8,6.1-4.4,6.1h-29.7c-3.6,0-5.5-2.7-4.3-6.1l0.5-1.5c1.2-3.3,5.1-6.1,8.7-6.1h20.1
			c3.6,0,7.4,2.7,8.6,6.1L295.8,289z"/>
		<path class="st4" d="M258.4,228.7l3.7,52.6 M293.7,84.7c0,12.1-8,21.8-17.9,21.8s-17.9-9.8-17.9-21.8 M252.6,86.9
			c0,0,14.5-5.7,23.1-16.3 M270.8,63c0,0,12.9,16,27.9,23.9 M276.2,51.7c-23.2-2.7-26.4,15-29.1,28.4c-2.8,13.4-9.2,18.2-9.2,18.2
			s0.3,7.3,12.2,14.3 M261.3,114.1c0,0-16.3,5.3-16.3,20.3l0.6,48.8 M295.1,228.9l-3.7,52.6 M277.3,51.8c23.2-2.7,26.4,15,29.1,28.4
			c2.8,13.4,9.2,18.2,9.2,18.2s-0.3,7.3-12.2,14.3 M292.2,114.3c0,0,16.3,5.3,16.3,20.3l-0.6,48.8 M276.9,231.5v57.3"/>
		<path class="st0" d="M291.4,114.1c0,8-6.7,14.5-15.1,14.5c-8.3,0-15.1-6.5-15.1-14.5c-11.7,11.1-7.3,20.7-4,32.4
			c3.3,11.7-0.8,18.4-0.8,18.4c-4.1,5.7-7.6,11.8-10.6,18.2c-5.1,11-8.5,23.1-9.8,35.7c11.6,7.6,25.5,12.1,40.4,12.1l0.6,0.1
			c14.9,0,28.8-4.4,40.4-12.1c-1.3-12.6-4.7-24.7-9.8-35.7c-3-6.4-6.5-12.5-10.6-18.2c0,0-4.1-6.7-0.8-18.4
			c3.3-11.7,7.7-21.3-4-32.4L291.4,114.1z"/>
		<path class="st4" d="M291.4,114.1c0,8-6.7,14.5-15.1,14.5c-8.3,0-15.1-6.5-15.1-14.5c-11.7,11.1-7.3,20.7-4,32.4
			c3.3,11.7-0.8,18.4-0.8,18.4c-4.1,5.7-7.6,11.8-10.6,18.2c-5.1,11-8.5,23.1-9.8,35.7c11.6,7.6,25.5,12.1,40.4,12.1l0.6,0.1
			c14.9,0,28.8-4.4,40.4-12.1c-1.3-12.6-4.7-24.7-9.8-35.7c-3-6.4-6.5-12.5-10.6-18.2c0,0-4.1-6.7-0.8-18.4
			c3.3-11.7,7.7-21.3-4-32.4L291.4,114.1z"/>
	</g>
	<g>
		<path class="st2" d="M22.1,285.9c0,0,0.3-4.9,2.4-10.3c2.2-5.4,5.1-11.1,7-14.3c1.9-3.2,7.6-11.9,8.1-13.8
			c0.5-1.9,1.4-6.5,1.4-6.5s-4.6-4.3-3.5-8.9c1.1-4.6,5.7-11.9,9.5-13.8c3.8-1.9,10-2.2,11.9-1.4s2.2,0,4.3,2.7
			c2.2,2.7,2.4,4.6,2.4,4.6l10.8,1.9c0,0,0,7.6-2.7,8.4c-2.7,0.8-6,1.1-6.5,1.1s-3.8-0.5-5.4,1.6c-1.6,2.2-1.6,3-1.9,4.4
			c-0.3,1.4-0.5,4.3,0.5,7.6c1.1,3.2,3,11.1,2.2,17.6s-3.8,9.4-3.8,13.8s0.8,15.4,0.8,15.4H21.9L22.1,285.9z"/>
		<path class="st4" d="M17.9,262c0,0-14.3,0-14.3,16.9s18.2,16.9,18.2,16.9V292c0-27.3,19-37.5,19-51.3 M53.1,225.6
			c0,0,0,15.6-7.8,15.6c-3.9,0-8.4-1.3-7.8-6.5c1.3-11.7,10.4-18.2,14.3-18.2H57c7.7,0,9.1,7.8,9.1,7.8l10.4,1.3
			c0,0,1.3,10.4-7.8,10.4s-8.6,4.9-8.6,8.9c0,4.1,3.4,9.3,3.4,15.8c0,11.7-2.5,12.4-3.9,19.5c-1.3,6.5,0,15.6,0,15.6h7.8"/>
	</g>
	<line class="st7" x1="59.6" y1="225.6" x2="59.6" y2="223"/>
	<g>
		<path class="st4" d="M59.2,295.9H22.1 M60.5,247.7c0,0-2.1,1.3-10,1.3c-7.8,0-10.4-2.6-10.4-2.6 M44,295.9
			c10.4-26.1-7.8-26.1-7.8-26.1"/>
	</g>
	<path class="st4" d="M211.1,188.1h-62.2v-49.4c0-12.9,10.4-23.3,23.3-23.3l0,0"/>
	<ellipse class="st2" cx="108.6" cy="223.3" rx="23.2" ry="10.1"/>
	<path class="st2" d="M96.7,262.6l4.3,20.3h15.2l4.3-19.8C120.5,263.2,104,264.8,96.7,262.6"/>
	<path class="st0" d="M121.6,189.8c0,0-4.3,2.2-9.2,2.4c-4.9,0.3-10-0.5-10-0.5l-6-2.2c0,0,0,23.3-5.4,36.8
		C85.6,239.9,78,254,78,254s15.4,9.5,30,9.5s32.8-8.9,32.8-8.9S124,234.5,121.6,189.8"/>
	<path class="st8" d="M121.6,189.8c0,0-4.3,2.2-9.2,2.4c-4.9,0.3-10-0.5-10-0.5l-6-2.2c0,0,0,23.3-5.4,36.8
		C85.6,239.9,78,254,78,254s15.4,9.5,30,9.5s32.8-8.9,32.8-8.9S124,234.5,121.6,189.8z"/>
	<path class="st4" d="M120.6,262.3l-3.4,19.2 M96.8,262.3l3.4,19.2"/>
	<path class="st4" d="M92.1,158.8c0-9.2,7.5-16.7,16.7-16.7s16.7,7.5,16.7,16.7 M143,185.9c0,0-12.6,0.2-16.3-5.8
		c-4.6-7.4-2.7-10.1-3-20.8 M108,152.1c0,0,4,3.5,7.4,4.5c3.4,1.1,25,4.3,23.9,27 M73.9,185.9c0,0,12.6,0.2,16.3-5.8
		c4.6-7.4,2.7-10.1,3-20.8 M108.8,152.1c0,0-4,3.5-7.4,4.5c-3.4,1.1-25,4.3-23.9,27 M94,161.6c0,12.2,6.9,22.1,15.4,22.1
		s15.4-9.9,15.4-22.1 M122.3,189.1c0,0,18.7,18.1,7.1,41.2 M96.2,189.1c0,0-18.7,18.1-7.1,41.2 M96.3,188.9
		c3.8,2.2,8.2,3.5,12.9,3.5c4.7,0,9.1-1.3,12.9-3.5l0.1,0.2c0,24,6.8,46.4,18.7,65.3v0.1c-7.9,5.5-19.1,9-31.6,9
		c-12.6,0-23.9-3.5-31.8-9.1c11.8-18.9,18.7-41.3,18.7-65.3L96.3,188.9z"/>
	<g>
		<path class="st0" d="M122.6,289.6c0.8,3.5-1.4,6.3-5,6.3h-17.4c-3.6,0-5.8-2.8-4.9-6.3l0.3-1.1c0.9-3.4,4.5-6.3,8-6.3h10.7
			c3.6,0,7.1,2.8,7.9,6.3L122.6,289.6z"/>
		<path class="st4" d="M122.6,289.6c0.8,3.5-1.4,6.3-5,6.3h-17.4c-3.6,0-5.8-2.8-4.9-6.3l0.3-1.1c0.9-3.4,4.5-6.3,8-6.3h10.7
			c3.6,0,7.1,2.8,7.9,6.3L122.6,289.6z"/>
	</g>
	<line class="st4" x1="108.8" y1="264.6" x2="108.8" y2="288.9"/>
</g>
</svg>
