<?xml version="1.0" encoding="utf-8"?>
<!-- Generator: Adobe Illustrator 23.0.2, SVG Export Plug-In . SVG Version: 6.00 Build 0)  -->
<svg version="1.1" xmlns="http://www.w3.org/2000/svg" xmlns:xlink="http://www.w3.org/1999/xlink" x="0px" y="0px"
	 viewBox="0 0 370 370" style="enable-background:new 0 0 370 370;" xml:space="preserve">
<style type="text/css">
	.st0{fill:none;stroke:#29235C;stroke-width:2.9068;stroke-linecap:round;stroke-linejoin:round;stroke-miterlimit:10;}
	.st1{fill:#B0D2F0;}
	.st2{fill:#FFFFFF;}
	.st3{fill:none;stroke:#29235C;stroke-width:2.9068;stroke-linecap:round;stroke-miterlimit:10;}
	.st4{fill:none;stroke:#B0D2F0;stroke-width:2.9068;stroke-linecap:round;stroke-linejoin:round;stroke-miterlimit:10;}
	.st5{fill:none;stroke:#29235C;stroke-width:3.1946;stroke-linecap:round;stroke-linejoin:round;stroke-miterlimit:10;}
	.st6{fill:#29235C;stroke:#29235C;stroke-width:3.1946;stroke-linecap:round;stroke-linejoin:round;stroke-miterlimit:10;}
</style>
<g id="Layer_2">
</g>
<g id="Communicatie">
	<line class="st0" x1="14" y1="222.1" x2="356.4" y2="222.1"/>
	<g>
		<path class="st1" d="M226.1,188v-49.4c0-12.9-10.4-23.3-23.3-23.3l0,0c-8.4,8.4-21.9,8.4-30.3,0l0,0c-12.9,0-23.3,10.4-23.3,23.3
			V188H226.1z"/>
		<polyline class="st2" points="184.1,133.5 182.2,177.1 188.1,182.2 194.2,176.5 191.1,132.8 194.2,129.1 186.4,122.1 181,128.5 		
			"/>
		<rect x="163.3" y="187.5" class="st2" width="48.9" height="91.6"/>
		<path class="st1" d="M218.7,287c0,3.5-2.9,6.4-6.4,6.4h-49c-3.5,0-6.4-2.9-6.4-6.4v-0.7c0-3.5,2.9-6.4,6.4-6.4h49
			c3.5,0,6.4,2.9,6.4,6.4V287z"/>
		<rect x="211.7" y="216.4" class="st1" width="15.2" height="51.6"/>
		<rect x="211.7" y="216.4" class="st3" width="15.2" height="51.6"/>
		<line class="st0" x1="219.3" y1="200.1" x2="219.3" y2="216.3"/>
		<path class="st4" d="M226.1,188v-49.4c0-12.9-10.4-23.3-23.3-23.3l0,0c-8.4,8.4-21.9,8.4-30.3,0l0,0c-12.9,0-23.3,10.4-23.3,23.3
			V188H226.1z"/>
		<path class="st0" d="M226.1,188v-49.4c0-12.9-10.4-23.3-23.3-23.3l0,0c-8.4,8.4-21.9,8.4-30.3,0l0,0c-12.9,0-23.3,10.4-23.3,23.3
			V188H226.1z"/>
		<path class="st0" d="M172.5,116.5l5.9,13.5l8.5-8.3 M180.1,129.1l3.9,3.7l-2.8,43.9l6.3,5.6 M202.8,116.5l-5.9,13.5l-8.5-8.3
			 M195.1,129.1l-3.9,3.7l2.8,43.9l-6.3,5.6 M184.1,132.8h7 M163.8,202.3c-8.1,0-14.7-6.4-14.7-14.3 M211.4,202.3
			c8.1,0,14.7-6.4,14.7-14.3 M211.4,142.1V279 M163.8,142.1V279 M199,65.7c5.4,4.4,9,12,9,20.5c0,13.7-9.1,24.8-20.4,24.8
			c-11.2,0-20.4-11.1-20.4-24.8c0-4.6,1-8.9,2.8-12.6 M208,88.4c3.5-3.5,5.7-8.3,5.7-13.7c0-10.7-8.7-19.4-19.4-19.4
			c0,0-18.1-0.2-25.5-4.6c-1.7,2.7-2.7,5.9-2.7,9.4c0,9.8,7.9,17.7,17.7,17.7c7,0,13.1-4.1,16-10.1"/>
		<line class="st3" x1="188.1" y1="209.4" x2="188.1" y2="286.8"/>
		<path class="st3" d="M218.7,287c0,3.5-2.9,6.4-6.4,6.4h-49c-3.5,0-6.4-2.9-6.4-6.4v-0.7c0-3.5,2.9-6.4,6.4-6.4h49
			c3.5,0,6.4,2.9,6.4,6.4V287z"/>
		<path class="st0" d="M226.1,170.5"/>
	</g>
	<g>
		<path class="st5" d="M253.4,66.6c-15.7,0-26.7,9.7-26.7,21.7c0,7.7,3.5,14.4,11.3,18.2v12.4l13.6-9c0.6,0,1.2,0.1,1.8,0.1
			c15.7,0,26.7-9.7,26.7-21.7S269,66.6,253.4,66.6z"/>
		<circle class="st6" cx="265.7" cy="88.6" r="0.9"/>
		<path class="st6" d="M254.2,88.6c0,0.5-0.4,0.8-0.9,0.8s-0.9-0.4-0.9-0.8s0.4-0.8,0.9-0.8S254.2,88.1,254.2,88.6z"/>
		<path class="st6" d="M241.9,88.6c0,0.5-0.4,0.8-0.9,0.8s-0.9-0.4-0.9-0.8s0.4-0.8,0.9-0.8S241.9,88.1,241.9,88.6z"/>
	</g>
	<g>
		<path class="st0" d="M110.1,35.5c24.1,0,40.9,14.9,40.9,33.3c0,11.8-5.3,22.1-17.4,28v19l-20.8-13.8c-0.9,0.1-1.8,0.1-2.7,0.1
			c-24,0-40.9-14.9-40.9-33.3C69.2,50.4,86.1,35.5,110.1,35.5z"/>
		<g>
			<line class="st0" x1="129.3" y1="56.8" x2="91" y2="56.8"/>
			<line class="st0" x1="129.3" y1="69.3" x2="91" y2="69.3"/>
			<line class="st0" x1="129.3" y1="81.7" x2="110.1" y2="81.7"/>
		</g>
	</g>
</g>
</svg>
