<?xml version="1.0" encoding="utf-8"?>
<!-- Generator: Adobe Illustrator 23.0.2, SVG Export Plug-In . SVG Version: 6.00 Build 0)  -->
<svg version="1.1" xmlns="http://www.w3.org/2000/svg" xmlns:xlink="http://www.w3.org/1999/xlink" x="0px" y="0px"
	 viewBox="0 0 370 370" style="enable-background:new 0 0 370 370;" xml:space="preserve">
<style type="text/css">
	.st0{fill:none;stroke:#29235C;stroke-width:2.9068;stroke-linecap:round;stroke-linejoin:round;stroke-miterlimit:10;}
	.st1{fill:#B0D2F0;}
	.st2{fill:none;stroke:#29235C;stroke-width:2.9473;stroke-linecap:round;stroke-linejoin:round;stroke-miterlimit:10;}
	.st3{fill:#FFFFFF;}
	.st4{fill:none;stroke:#29235C;stroke-width:2.9068;stroke-linecap:round;stroke-miterlimit:10;}
	.st5{fill:none;stroke:#B0D2F0;stroke-width:2.9068;stroke-linecap:round;stroke-linejoin:round;stroke-miterlimit:10;}
</style>
<g id="Layer_2">
</g>
<g id="Innovatie">
	<line class="st0" x1="14" y1="222.1" x2="356.4" y2="222.1"/>
	<g>
		<path class="st1" d="M226.3,189.4v-50.1c0-13.1-10.6-23.7-23.6-23.7l0,0c-8.5,8.5-22.2,8.5-30.7,0l0,0c-7.3,0-68.8,1.8-68.8,1.8
			c0.3,0,0,13.8,0,13.8c4.5,1.4,45.1-0.2,59.5,1.2v57L226.3,189.4L226.3,189.4z"/>
		<path class="st2" d="M163.1,131.2h-60c-7.9,0-14.3-6.6-14.3-14.7l83.1-0.4"/>
		<g>
			<path class="st1" d="M163.8,188h62.2v-49.4c0-12.9-10.4-23.3-23.3-23.3l0,0c-8.4,8.4-21.9,8.4-30.3,0l0,0"/>
			<polyline class="st3" points="184.1,133.5 182.2,177.1 188.1,182.2 194.2,176.5 191.1,132.8 194.2,129.1 186.4,122.1 181,128.5 
							"/>
			<rect x="163.3" y="187.5" class="st3" width="48.9" height="91.6"/>
			<path class="st1" d="M218.7,287c0,3.5-2.9,6.4-6.4,6.4h-49c-3.5,0-6.4-2.9-6.4-6.4v-0.7c0-3.5,2.9-6.4,6.4-6.4h49
				c3.5,0,6.4,2.9,6.4,6.4V287z"/>
			<rect x="211.7" y="216.4" class="st1" width="15.2" height="51.6"/>
			<rect x="211.7" y="216.4" class="st4" width="15.2" height="51.6"/>
			<line class="st0" x1="219.3" y1="200.1" x2="219.3" y2="216.3"/>
			<path class="st5" d="M163.8,188h62.2v-49.4c0-12.9-10.4-23.3-23.3-23.3l0,0c-8.4,8.4-21.9,8.4-30.3,0l0,0"/>
			<path class="st0" d="M163.8,188h62.2v-49.4c0-12.9-10.4-23.3-23.3-23.3l0,0c-8.4,8.4-21.9,8.4-30.3,0l0,0"/>
			<path class="st0" d="M172.5,116.5l5.9,13.5l8.5-8.3 M180.1,129.1l3.9,3.7l-2.8,43.9l6.3,5.6 M202.8,116.5l-5.9,13.5l-8.5-8.3
				 M195.1,129.1l-3.9,3.7l2.8,43.9l-6.3,5.6 M184.1,132.8h7 M211.4,202.3c8.1,0,14.7-6.4,14.7-14.3 M211.4,142.1V279 M163.8,131.2
				V279 M199,65.7c5.4,4.4,9,12,9,20.5c0,13.7-9.1,24.8-20.4,24.8c-11.2,0-20.4-11.1-20.4-24.8c0-4.6,1-8.9,2.8-12.6 M208,88.4
				c3.5-3.5,5.7-8.3,5.7-13.7c0-10.7-8.7-19.4-19.4-19.4c0,0-18.1-0.2-25.5-4.6c-1.7,2.7-2.7,5.9-2.7,9.4c0,9.8,7.9,17.7,17.7,17.7
				c7,0,13.1-4.1,16-10.1"/>
			<line class="st4" x1="188.1" y1="209.4" x2="188.1" y2="286.8"/>
			<path class="st4" d="M218.7,287c0,3.5-2.9,6.4-6.4,6.4h-49c-3.5,0-6.4-2.9-6.4-6.4v-0.7c0-3.5,2.9-6.4,6.4-6.4h49
				c3.5,0,6.4,2.9,6.4,6.4V287z"/>
			<path class="st0" d="M226.1,170.5"/>
		</g>
	</g>
	<g>
		<path class="st0" d="M107.8,37.6l1.8-5 M115.7,42.1l3.4-4.1 M121.5,49.1l4.7-2.7 M124.6,57.6l5.3-0.9 M124.6,66.7l5.3,0.9
			 M73.2,66.7l-5.3,0.9 M73.2,57.6l-5.3-0.9 M76.3,49.1l-4.7-2.7 M82.1,42.1L78.6,38 M89.9,37.6l-1.8-5 M98.9,36v-5.4 M100.1,105.1
			h-2.4c-5.6,0-10.1-4.5-10.1-10.1v-0.7h22.5V95C110.1,100.6,105.6,105.1,100.1,105.1z M87.6,89.8h22.5 M84.9,60.9
			c0.6-6.9,6.2-12.5,13.2-13c0.3,0,0.7,0,1,0c3.6,0,6.9,1.3,9.4,3.5 M119.6,62.2c0-12-10.1-21.5-22.2-20.7
			c-10.1,0.7-18.4,8.8-19.2,19c-0.5,6.4,1.8,12.2,5.9,16.3c2.3,2.3,3.7,5.4,3.7,8.7v0.1H110v-0.1c0-3.2,1.2-6.3,3.5-8.5
			C117.3,73.1,119.6,67.9,119.6,62.2z"/>
	</g>
</g>
</svg>
