<?xml version="1.0" encoding="utf-8"?>
<!-- Generator: Adobe Illustrator 23.0.2, SVG Export Plug-In . SVG Version: 6.00 Build 0)  -->
<svg version="1.1" id="Intern" xmlns="http://www.w3.org/2000/svg" xmlns:xlink="http://www.w3.org/1999/xlink" x="0px" y="0px"
	 viewBox="0 0 370 370" style="enable-background:new 0 0 370 370;" xml:space="preserve">
<style type="text/css">
	.st0{fill:#B0D2F0;}
	.st1{fill:#FFFFFF;}
	.st2{fill:none;stroke:#29235C;stroke-width:2.9068;stroke-linecap:round;stroke-linejoin:round;stroke-miterlimit:10;}
	.st3{fill:none;stroke:#29235C;stroke-width:2.9068;stroke-linecap:round;stroke-miterlimit:10;}
	.st4{fill:none;stroke:#29235C;stroke-width:3.1946;stroke-linecap:round;stroke-linejoin:round;stroke-miterlimit:10;}
</style>
<path class="st0" d="M212.2,188.6l-1-49.4c0-12.9,4.1-23.3-8.7-23.3l0,0c-8.4,8.4-21.9,8.4-30.3,0l0,0c-12.9,0-23.3,10.4-23.3,23.3
	v49.4H212.2z"/>
<rect x="163" y="188.1" class="st1" width="48.9" height="91.6"/>
<path class="st0" d="M218.4,287.6c0,3.5-2.9,6.4-6.4,6.4h-49c-3.5,0-6.4-2.9-6.4-6.4v-0.7c0-3.5,2.9-6.4,6.4-6.4h49
	c3.5,0,6.4,2.9,6.4,6.4V287.6z"/>
<path class="st2" d="M202.4,115.8L202.4,115.8c-8.4,8.4-21.9,8.4-30.3,0l0,0c-12.9,0-23.3,10.4-23.3,23.3v49.4h61.8"/>
<path class="st2" d="M172.1,117l5.9,13.5l8.5-8.3 M202.4,117l-5.9,13.5l-8.5-8.3 M163.5,202.9c-8.1,0-14.7-6.4-14.7-14.3
	 M163.5,142.6v136.9 M198.7,66.3c5.4,4.5,9,12,9,20.5c0,13.7-9.1,24.8-20.4,24.8c-11.2,0-20.4-11.1-20.4-24.8c0-4.6,1-8.9,2.8-12.6
	 M207.7,89c3.5-3.5,5.7-8.3,5.7-13.7c0-10.7-8.7-19.4-19.4-19.4c0,0-18.1-0.2-25.5-4.6c-1.7,2.7-2.7,5.9-2.7,9.4
	c0,9.8,7.9,17.7,17.7,17.7c7,0,13.1-4.1,16-10.1"/>
<line class="st3" x1="187.7" y1="209.9" x2="187.7" y2="287.4"/>
<path class="st3" d="M218.4,287.6c0,3.5-2.9,6.4-6.4,6.4h-49c-3.5,0-6.4-2.9-6.4-6.4v-0.7c0-3.5,2.9-6.4,6.4-6.4h49
	c3.5,0,6.4,2.9,6.4,6.4V287.6z"/>
<path class="st2" d="M225.7,171.1"/>
<rect x="202.2" y="115.4" class="st0" width="63.5" height="14.4"/>
<path class="st2" d="M202.6,114.9l77.2,0.4c0,8.5-6.7,15.4-15,15.4H212l-0.9-0.1v149"/>
<line class="st2" x1="264.9" y1="130.7" x2="264.9" y2="116.4"/>
<path class="st2" d="M148.7,166.6"/>
<line class="st2" x1="163.7" y1="223.1" x2="15.7" y2="223.1"/>
<g>
	<path class="st2" d="M268.3,97.6v10.1c0,1.8,1.5,3.2,3.2,3.2h12.4c1.8,0,3.2-1.5,3.2-3.2v-5 M247.1,95.3c0,1.8-1.4,3.2-3.2,3.2
		s-3.2-1.4-3.2-3.2V77.8c0-1.8,1.4-3.2,3.2-3.2s3.2,1.4,3.2,3.2v17.9 M247.1,96l9.8-1.5V78.6l-9.8-1.5 M310.4,101.3V63.7
		c0-1.5,1.2-2.8,2.8-2.8c1.5,0,2.8,1.2,2.8,2.8v45.7c0,1.5-1.2,2.8-2.8,2.8c-1.5,0-2.8-1.2-2.8-2.8v-9"/>
	<polyline class="st2" points="310.4,64.9 256.9,78.6 256.9,86.6 256.9,94.6 310.4,108.3 	"/>
</g>
<line class="st2" x1="362.8" y1="223.1" x2="214.8" y2="223.1"/>
<g>
	<path class="st4" d="M244.6,21.8c-15.7,0-26.7,9.7-26.7,21.7c0,7.7,3.5,14.4,11.3,18.2v12.4l13.6-9c0.6,0,1.2,0.1,1.8,0.1
		c15.7,0,26.7-9.7,26.7-21.7C271.2,31.6,260.2,21.8,244.6,21.8z"/>
	<circle class="st4" cx="256.9" cy="43.8" r="0.9"/>
	<circle class="st4" cx="244.6" cy="43.8" r="0.9"/>
	<circle class="st4" cx="232.2" cy="43.8" r="0.9"/>
</g>
<g>
	<path class="st2" d="M110.9,11.7c24,0,40.9,14.9,40.9,33.3c0,11.8-5.3,22.1-17.3,28v19l-20.8-13.8c-0.9,0-1.8,0.1-2.7,0.1
		C86.8,78.4,70,63.4,70,45S86.8,11.7,110.9,11.7z"/>
	<g>
		<line class="st2" x1="130" y1="33" x2="91.7" y2="33"/>
		<line class="st2" x1="130" y1="45.5" x2="91.7" y2="45.5"/>
		<line class="st2" x1="130" y1="57.9" x2="110.9" y2="57.9"/>
	</g>
</g>
</svg>
