<?xml version="1.0" encoding="utf-8"?>
<!-- Generator: Adobe Illustrator 23.0.2, SVG Export Plug-In . SVG Version: 6.00 Build 0)  -->
<svg version="1.1" id="Intern" xmlns="http://www.w3.org/2000/svg" xmlns:xlink="http://www.w3.org/1999/xlink" x="0px" y="0px"
	 viewBox="0 0 370 370" style="enable-background:new 0 0 370 370;" xml:space="preserve">
<style type="text/css">
	.st0{fill:none;stroke:#29235C;stroke-width:2.8092;stroke-linecap:round;stroke-linejoin:round;stroke-miterlimit:10;}
	.st1{fill:#FFFFFF;}
	.st2{fill:none;stroke:#29235C;stroke-width:2.9068;stroke-linecap:round;stroke-linejoin:round;stroke-miterlimit:10;}
	.st3{fill:#B0D2F0;}
	.st4{fill:none;stroke:#B0D2F0;stroke-width:2.9068;stroke-linecap:round;stroke-linejoin:round;stroke-miterlimit:10;}
	.st5{fill:none;stroke:#29235C;stroke-width:2.9068;stroke-linecap:round;stroke-miterlimit:10;}
	.st6{fill:none;stroke:#29235C;stroke-width:2.9473;stroke-linecap:round;stroke-linejoin:round;stroke-miterlimit:10;}
</style>
<g>
	<rect x="70.4" y="86" class="st0" width="54.1" height="31.1"/>
	<path class="st0" d="M124.4,92.4c-3.5,0-6.4-2.9-6.4-6.4"/>
	<path class="st0" d="M118.1,117.1c0-3.5,2.9-6.4,6.4-6.4"/>
	<path class="st0" d="M70.4,92.4c3.5,0,6.4-2.9,6.4-6.4"/>
	<path class="st0" d="M76.7,117.1c0-3.5-2.9-6.4-6.4-6.4"/>
</g>
<path class="st0" d="M103.2,95.8c-2.9-2.9-7.7-2.9-10.6,0s-2.9,7.7,0,10.6s7.7,2.9,10.6,0"/>
<line class="st0" x1="86.5" y1="100" x2="97.2" y2="100"/>
<line class="st0" x1="86.5" y1="103.6" x2="97.2" y2="103.6"/>
<path class="st1" d="M154.8,202.2"/>
<line class="st2" x1="10.7" y1="222.7" x2="353.1" y2="222.7"/>
<path class="st3" d="M225.9,189.9v-50.1c0-13.1-10.6-23.6-23.6-23.6l0,0c-8.5,8.5-22.2,8.5-30.7,0l0,0c-7.3,0-68.8,1.8-68.8,1.8
	c0.4,0,0,13.8,0,13.8c4.5,1.4,45.1-0.2,59.5,1.2v57L225.9,189.9L225.9,189.9z"/>
<g>
	<path class="st3" d="M163.5,188.6h62.2v-49.4c0-12.9-10.4-23.3-23.3-23.3l0,0c-8.4,8.4-21.9,8.4-30.3,0l0,0"/>
	<rect x="163" y="188.1" class="st1" width="48.9" height="91.6"/>
	<path class="st3" d="M218.4,287.6c0,3.5-2.9,6.4-6.4,6.4h-49c-3.5,0-6.4-2.9-6.4-6.4v-0.7c0-3.5,2.9-6.4,6.4-6.4h49
		c3.5,0,6.4,2.9,6.4,6.4V287.6z"/>
	<path class="st4" d="M163.5,188.6h62.2v-49.4c0-12.9-10.4-23.3-23.3-23.3l0,0c-8.4,8.4-21.9,8.4-30.3,0l0,0"/>
	<path class="st2" d="M163.5,188.6h62.2v-49.4c0-12.9-10.4-23.3-23.3-23.3l0,0c-8.4,8.4-21.9,8.4-30.3,0l0,0"/>
	<path class="st2" d="M172.1,117l5.9,13.5l8.5-8.3 M202.4,117l-5.9,13.5l-8.5-8.3 M211.1,202.9c8.1,0,14.7-6.4,14.7-14.3
		 M211.1,142.6v136.9 M163.5,131.8v147.8 M198.7,66.3c5.4,4.5,9,12,9,20.5c0,13.7-9.1,24.8-20.4,24.8c-11.2,0-20.4-11.1-20.4-24.8
		c0-4.6,1-8.9,2.8-12.6 M207.7,89c3.5-3.5,5.7-8.3,5.7-13.7c0-10.7-8.7-19.4-19.4-19.4c0,0-18.1-0.2-25.5-4.6
		c-1.7,2.7-2.7,5.9-2.7,9.4c0,9.8,7.9,17.7,17.7,17.7c7,0,13.1-4.1,16-10.1"/>
	<line class="st5" x1="187.7" y1="209.9" x2="187.7" y2="287.4"/>
	<path class="st5" d="M218.4,287.6c0,3.5-2.9,6.4-6.4,6.4h-49c-3.5,0-6.4-2.9-6.4-6.4v-0.7c0-3.5,2.9-6.4,6.4-6.4h49
		c3.5,0,6.4,2.9,6.4,6.4V287.6z"/>
	<path class="st2" d="M225.7,171.1"/>
</g>
<path class="st6" d="M162.8,131.8h-60c-7.9,0-14.3-6.6-14.3-14.7l83.1-0.4"/>
</svg>
