<?xml version="1.0" encoding="utf-8"?>
<!-- Generator: Adobe Illustrator 23.0.2, SVG Export Plug-In . SVG Version: 6.00 Build 0)  -->
<svg version="1.1" xmlns="http://www.w3.org/2000/svg" xmlns:xlink="http://www.w3.org/1999/xlink" x="0px" y="0px"
	 viewBox="0 0 370 370" style="enable-background:new 0 0 370 370;" xml:space="preserve">
<style type="text/css">
	.st0{display:none;fill:#FFFFFF;}
	.st1{fill:none;stroke:#29235C;stroke-width:2.9068;stroke-linecap:round;stroke-linejoin:round;stroke-miterlimit:10;}
	.st2{fill:#FFFFFF;}
	.st3{fill:#B0D2F0;}
	.st4{fill:none;stroke:#29235C;stroke-width:2.9;stroke-linecap:round;stroke-miterlimit:10;}
	.st5{fill:none;stroke:#29235C;stroke-width:2.9;stroke-linecap:round;stroke-linejoin:round;stroke-miterlimit:10;}
	.st6{fill:none;stroke:#29235C;stroke-width:2.9068;stroke-linecap:round;stroke-miterlimit:10;}
	.st7{fill:none;stroke:#B0D2F0;stroke-width:2.9068;stroke-linecap:round;stroke-linejoin:round;stroke-miterlimit:10;}
</style>
<g id="Layer_2">
</g>
<g id="Intern">
	<circle class="st0" cx="186.3" cy="187.2" r="187.2"/>
	<line class="st1" x1="14" y1="222.1" x2="356.4" y2="222.1"/>
	<rect x="73.4" y="218.9" class="st2" width="32.5" height="8.6"/>
	<rect x="110.4" y="232.7" class="st2" width="13.2" height="10.5"/>
	<polygon class="st3" points="108.3,246.9 124.8,246.9 124.8,207.6 108.3,214.5 	"/>
	<rect x="75.2" y="232.7" class="st2" width="29.1" height="10.5"/>
	<rect x="261" y="233.1" class="st2" width="43.3" height="10.5"/>
	<rect x="109.6" y="206.6" class="st4" width="14" height="39.5"/>
	<path class="st3" d="M106.9,269.3c1.1,3-0.7,5.5-3.9,5.5H76.2c-3.2,0-4.9-2.5-3.8-5.5l0.5-1.3c1.1-3,4.6-5.5,7.8-5.5h18.1
		c3.2,0,6.7,2.5,7.7,5.5L106.9,269.3z"/>
	<path class="st5" d="M106.9,269.3c1.1,3-0.7,5.5-3.9,5.5H76.2c-3.2,0-4.9-2.5-3.8-5.5l0.5-1.3c1.1-3,4.6-5.5,7.8-5.5h18.1
		c3.2,0,6.7,2.5,7.7,5.5L106.9,269.3z"/>
	<line class="st5" x1="73.1" y1="214.9" x2="76.5" y2="262.4"/>
	<line class="st5" x1="106.3" y1="215" x2="102.9" y2="262.5"/>
	<line class="st5" x1="89.8" y1="217.4" x2="89.8" y2="269.1"/>
	<path class="st3" d="M102.9,111.5c0,7.2-6.1,13.1-13.6,13.1s-13.6-5.8-13.6-13.1c-10.6,10-6.6,18.7-3.6,29.3
		c3,10.6-0.7,16.6-0.7,16.6c-3.7,5.1-6.9,10.6-9.6,16.4c-4.6,10-7.7,20.8-8.8,32.2c10.5,6.9,23,10.9,36.5,10.9l0.5,0.1
		c13.5,0,26-4,36.5-10.9c-1.2-11.4-4.2-22.3-8.8-32.2c-2.7-5.8-5.9-11.3-9.6-16.4c0,0-3.7-6.1-0.7-16.6c3-10.6,7-19.2-3.6-29.3
		L102.9,111.5z"/>
	<path class="st5" d="M102.9,111.5c0,7.2-6.1,13.1-13.6,13.1s-13.6-5.8-13.6-13.1c-10.6,10-6.6,18.7-3.6,29.3
		c3,10.6-0.7,16.6-0.7,16.6c-3.7,5.1-6.9,10.6-9.6,16.4c-4.6,10-7.7,20.8-8.8,32.2c10.5,6.9,23,10.9,36.5,10.9l0.5,0.1
		c13.5,0,26-4,36.5-10.9c-1.2-11.4-4.2-22.3-8.8-32.2c-2.7-5.8-5.9-11.3-9.6-16.4c0,0-3.7-6.1-0.7-16.6c3-10.6,7-19.2-3.6-29.3
		L102.9,111.5z"/>
	<rect x="260.6" y="179.3" class="st2" width="43.7" height="82.5"/>
	<path class="st5" d="M304.3,191.7c7.4,0,13.5-5.9,13.5-13.1h-13.5V191.7z"/>
	<path class="st3" d="M311,269.5c0,3.2-2.6,5.8-5.9,5.8h-45c-3.2,0-5.8-2.6-5.8-5.8v-0.6c0-3.2,2.6-5.8,5.8-5.8h45
		c3.2,0,5.9,2.6,5.9,5.8V269.5z"/>
	<path class="st3" d="M317.8,178.6v-45.4c0-11.8-9.6-21.4-21.4-21.4l0,0c-7.7,7.7-20.1,7.7-27.8,0l0,0c-11.8,0-21.4,9.6-21.4,21.4
		v45.4H317.8z"/>
	<path class="st5" d="M317.8,178.6v-45.4c0-11.8-9.6-21.4-21.4-21.4l0,0c-7.7,7.7-20.1,7.7-27.8,0l0,0c-11.8,0-21.4,9.6-21.4,21.4
		v45.4H317.8z"/>
	<path class="st5" d="M317.8,178.6v-45.4c0-11.8-9.6-21.4-21.4-21.4l0,0c-7.7,7.7-20.1,7.7-27.8,0l0,0c-11.8,0-21.4,9.6-21.4,21.4
		v45.4H317.8z"/>
	<path class="st5" d="M260.6,191.7c-7.4,0-13.5-5.9-13.5-13.1"/>
	<path class="st5" d="M304.3,191.7c7.4,0,13.5-5.9,13.5-13.1"/>
	<path class="st5" d="M260.6,191.7c-7.4,0-13.5-5.9-13.5-13.1h13.5V191.7z"/>
	<line class="st5" x1="304.3" y1="136.4" x2="304.3" y2="262.2"/>
	<line class="st5" x1="260.6" y1="136.4" x2="260.6" y2="262.2"/>
	<path class="st5" d="M285.7,127.8"/>
	<path class="st5" d="M279.2,127.8"/>
	<line class="st5" x1="282.9" y1="198.2" x2="282.9" y2="269.3"/>
	<path class="st5" d="M311,269.5c0,3.2-2.6,5.8-5.9,5.8h-45c-3.2,0-5.8-2.6-5.8-5.8v-0.6c0-3.2,2.6-5.8,5.8-5.8h45
		c3.2,0,5.9,2.6,5.9,5.8V269.5z"/>
	<polygon class="st5" points="287.4,121.7 285.7,127.8 288.2,168.1 282.4,173.2 276.6,168.1 279.2,127.8 277.4,121.8 282.6,117.7 
		282.6,117.7 	"/>
	<line class="st5" x1="279.2" y1="127.8" x2="285.7" y2="127.8"/>
	<polyline class="st5" points="268.5,111.7 273.9,124.2 282.6,117.7 	"/>
	<polyline class="st5" points="296.3,111.7 291,124.2 282.6,117.7 	"/>
	<ellipse class="st5" cx="282.4" cy="84.3" rx="19.2" ry="23.3"/>
	<ellipse class="st5" cx="88.8" cy="84.4" rx="19.2" ry="23.3"/>
	<path class="st5" d="M264.4,78c0,0,14.8,3.5,23.4-8.9c0,0,4,5.6,11.8,6.2"/>
	<path class="st5" d="M75.7,111.5c0,0-14.7,4.8-14.7,18.3l0.5,44"/>
	<path class="st5" d="M103.7,111.6c0,0,14.7,4.8,14.7,18.3l-0.5,44"/>
	<line class="st5" x1="89.3" y1="124.5" x2="89.3" y2="153.2"/>
	<polyline class="st5" points="75.2,118.5 80.6,130.9 89.3,124.5 	"/>
	<polyline class="st5" points="103,118.5 97.6,130.9 89.3,124.5 	"/>
	<path class="st5" d="M69.6,84.7c0,0,19.9,1.8,28.3-13c0,0,6.9,2.3,9.7,8.4"/>
	<path class="st5" d="M128,95.5c-1.2,4.2-4.9,7.4-9.5,7.8c-6,0.5-11.2-4-11.7-9.9"/>
	<path class="st5" d="M128,95.5c-2.8,0.2-5.3-1.9-5.5-4.7c0,0,1.8-16.4,0.5-21.6c-2.2-8.5-8.3-15.2-17-14.5
		c-4.8,0.4-8.9,2.9-11.6,6.5"/>
	<g>
		<path class="st3" d="M226.1,188v-49.4c0-12.9-10.4-23.3-23.3-23.3l0,0c-8.4,8.4-21.9,8.4-30.3,0l0,0c-12.9,0-23.3,10.4-23.3,23.3
			V188H226.1z"/>
		<polyline class="st2" points="184.1,133.5 182.2,177.1 188.1,182.2 194.2,176.5 191.1,132.8 194.2,129.1 186.4,122.1 181,128.5 		
			"/>
		<rect x="163.3" y="187.5" class="st2" width="48.9" height="91.6"/>
		<path class="st3" d="M218.7,287c0,3.5-2.9,6.4-6.4,6.4h-49c-3.5,0-6.4-2.9-6.4-6.4v-0.7c0-3.5,2.9-6.4,6.4-6.4h49
			c3.5,0,6.4,2.9,6.4,6.4V287z"/>
		<rect x="211.7" y="216.4" class="st3" width="15.2" height="51.6"/>
		<rect x="211.7" y="216.4" class="st6" width="15.2" height="51.6"/>
		<line class="st1" x1="219.3" y1="200.1" x2="219.3" y2="216.3"/>
		<path class="st7" d="M226.1,188v-49.4c0-12.9-10.4-23.3-23.3-23.3l0,0c-8.4,8.4-21.9,8.4-30.3,0l0,0c-12.9,0-23.3,10.4-23.3,23.3
			V188H226.1z"/>
		<path class="st1" d="M226.1,188v-49.4c0-12.9-10.4-23.3-23.3-23.3l0,0c-8.4,8.4-21.9,8.4-30.3,0l0,0c-12.9,0-23.3,10.4-23.3,23.3
			V188H226.1z"/>
		<path class="st1" d="M172.5,116.5l5.9,13.5l8.5-8.3 M180.1,129.1l3.9,3.7l-2.8,43.9l6.3,5.6 M202.8,116.5l-5.9,13.5l-8.5-8.3
			 M195.1,129.1l-3.9,3.7l2.8,43.9l-6.3,5.6 M184.1,132.8h7 M163.8,202.3c-8.1,0-14.7-6.4-14.7-14.3 M211.4,202.3
			c8.1,0,14.7-6.4,14.7-14.3 M211.4,142.1V279 M163.8,142.1V279 M199,65.7c5.4,4.4,9,12,9,20.5c0,13.7-9.1,24.8-20.4,24.8
			c-11.2,0-20.4-11.1-20.4-24.8c0-4.6,1-8.9,2.8-12.6 M208,88.4c3.5-3.5,5.7-8.3,5.7-13.7c0-10.7-8.7-19.4-19.4-19.4
			c0,0-18.1-0.2-25.5-4.6c-1.7,2.7-2.7,5.9-2.7,9.4c0,9.8,7.9,17.7,17.7,17.7c7,0,13.1-4.1,16-10.1"/>
		<line class="st6" x1="188.1" y1="209.4" x2="188.1" y2="286.8"/>
		<path class="st6" d="M218.7,287c0,3.5-2.9,6.4-6.4,6.4h-49c-3.5,0-6.4-2.9-6.4-6.4v-0.7c0-3.5,2.9-6.4,6.4-6.4h49
			c3.5,0,6.4,2.9,6.4,6.4V287z"/>
		<path class="st1" d="M226.1,170.5"/>
	</g>
</g>
</svg>
