<?xml version="1.0" encoding="utf-8"?>
<!-- Generator: Adobe Illustrator 23.0.2, SVG Export Plug-In . SVG Version: 6.00 Build 0)  -->
<svg version="1.1" xmlns="http://www.w3.org/2000/svg" xmlns:xlink="http://www.w3.org/1999/xlink" x="0px" y="0px"
	 viewBox="0 0 370 370" style="enable-background:new 0 0 370 370;" xml:space="preserve">
<style type="text/css">
	.st0{fill:none;stroke:#29235C;stroke-width:2.8092;stroke-linecap:round;stroke-linejoin:round;stroke-miterlimit:10;}
	.st1{fill:#FFFFFF;}
	.st2{fill:none;stroke:#29235C;stroke-width:2.9068;stroke-linecap:round;stroke-linejoin:round;stroke-miterlimit:10;}
	.st3{fill:none;stroke:#29235C;stroke-width:2.7679;stroke-linecap:round;stroke-linejoin:round;stroke-miterlimit:10;}
	.st4{fill:#FFFFFF;stroke:#29235C;stroke-width:2.8092;stroke-linecap:round;stroke-linejoin:round;stroke-miterlimit:10;}
	.st5{fill:#B0D2F0;}
	.st6{fill:none;stroke:#29235C;stroke-width:2.9068;stroke-linecap:round;stroke-miterlimit:10;}
	.st7{fill:none;stroke:#B0D2F0;stroke-width:2.9068;stroke-linecap:round;stroke-linejoin:round;stroke-miterlimit:10;}
	.st8{fill:none;stroke:#29235C;stroke-width:2.9473;stroke-linecap:round;stroke-linejoin:round;stroke-miterlimit:10;}
</style>
<g id="Layer_2">
</g>
<g id="financieel">
	<g>
		<rect x="70.7" y="85.4" class="st0" width="54.1" height="31.1"/>
		<path class="st0" d="M124.8,91.8c-3.5,0-6.4-2.9-6.4-6.4"/>
		<path class="st0" d="M118.4,116.5c0-3.5,2.9-6.4,6.4-6.4"/>
		<path class="st0" d="M70.7,91.8c3.5,0,6.4-2.9,6.4-6.4"/>
		<path class="st0" d="M77.1,116.5c0-3.5-2.9-6.4-6.4-6.4"/>
	</g>
	<path class="st0" d="M103.5,95.2c-2.9-2.9-7.7-2.9-10.7,0s-2.9,7.7,0,10.7s7.7,2.9,10.7,0"/>
	<line class="st0" x1="86.9" y1="99.4" x2="97.6" y2="99.4"/>
	<line class="st0" x1="86.9" y1="103.1" x2="97.6" y2="103.1"/>
	<path class="st1" d="M155.2,201.6"/>
	<line class="st2" x1="14" y1="222.1" x2="356.4" y2="222.1"/>
	<rect x="251.5" y="186.5" class="st1" width="56" height="73"/>
	<rect x="91.5" y="186.5" class="st1" width="9" height="89"/>
	<g>
		<rect x="290.4" y="141.3" class="st3" width="9.7" height="17.1"/>
		<path class="st3" d="M349.5,134.3c0,3.8-3.1,6.9-6.9,6.9h-94.6c-3.8,0-6.9-3.1-6.9-6.9V84.9c0-3.8,3.1-6.9,6.9-6.9h94.6
			c3.8,0,6.9,3.1,6.9,6.9V134.3z"/>
		<path class="st3" d="M349.5,134.3c0,3.8-3.1,6.9-6.9,6.9h-94.6c-3.8,0-6.9-3.1-6.9-6.9V84.9c0-3.8,3.1-6.9,6.9-6.9h94.6
			c3.8,0,6.9,3.1,6.9,6.9V134.3z"/>
		<path class="st3" d="M349.5,134.3c0,3.8-3.1,6.9-6.9,6.9h-94.6c-3.8,0-6.9-3.1-6.9-6.9v-9.6V84.9c0-3.8,3.1-6.9,6.9-6.9h94.6
			c3.8,0,6.9,3.1,6.9,6.9V134.3z"/>
		<path class="st3" d="M273,163.7V161c0-1.5,3.1-2.7,6.9-2.7H309c3.8,0,6.9,1.2,6.9,2.7v2.7"/>
		<path class="st3" d="M273,163.7V161c0-1.5,3.1-2.7,6.9-2.7H309c3.8,0,6.9,1.2,6.9,2.7v2.7"/>
		<path class="st3" d="M273,163.7V161c0-1.5,3.1-2.7,6.9-2.7H309c3.8,0,6.9,1.2,6.9,2.7v2.7"/>
		<rect x="67.4" y="171.1" class="st0" width="270.6" height="14"/>
		<rect x="67.4" y="171.1" class="st0" width="270.6" height="14"/>
		<rect x="58.5" y="165.7" class="st0" width="290.4" height="5.4"/>
		<rect x="58.5" y="165.7" class="st0" width="290.4" height="5.4"/>
		<rect x="92.3" y="185.2" class="st0" width="6.6" height="89.6"/>
		<rect x="308.8" y="185.2" class="st0" width="8.6" height="89.6"/>
		<rect x="308.8" y="185.2" class="st4" width="8.6" height="89.6"/>
		<rect x="252.3" y="185.2" class="st0" width="56.5" height="74"/>
		<rect x="252.3" y="185.2" class="st0" width="56.5" height="74"/>
		<line class="st0" x1="254" y1="205" x2="308.8" y2="205"/>
		<line class="st0" x1="254" y1="222.2" x2="308.8" y2="222.2"/>
		<path class="st3" d="M250.7,126.9l8.3-7.2l14.9,4.9l19.3-16.5l5,2.8l5-2.8l7.7,6.6c1.6-2.2,22.6-24.2,22.6-24.2"/>
		<path class="st3" d="M327,90.5"/>
		<g>
			<line class="st3" x1="333.9" y1="90" x2="333.9" y2="96.2"/>
			<line class="st3" x1="327.7" y1="90" x2="333.9" y2="90"/>
		</g>
		<path class="st3" d="M248,91.6"/>
		<polyline class="st3" points="250.7,87.2 250.7,132.4 332.7,132.4 		"/>
		<rect x="166" y="186.6" class="st1" width="47.2" height="88.6"/>
	</g>
	<path class="st5" d="M226.3,189.4v-50.1c0-13.1-10.6-23.7-23.6-23.7l0,0c-8.5,8.5-22.2,8.5-30.7,0l0,0c-7.3,0-68.8,1.8-68.8,1.8
		c0.3,0,0,13.8,0,13.8c4.5,1.4,45.1-0.2,59.5,1.2v57L226.3,189.4L226.3,189.4z"/>
	<g>
		<path class="st5" d="M163.8,188h62.2v-49.4c0-12.9-10.4-23.3-23.3-23.3l0,0c-8.4,8.4-21.9,8.4-30.3,0l0,0"/>
		<polyline class="st1" points="184.1,133.5 182.2,177.1 188.1,182.2 194.2,176.5 191.1,132.8 194.2,129.1 186.4,122.1 181,128.5 		
			"/>
		<rect x="163.3" y="187.5" class="st1" width="48.9" height="91.6"/>
		<path class="st5" d="M218.7,287c0,3.5-2.9,6.4-6.4,6.4h-49c-3.5,0-6.4-2.9-6.4-6.4v-0.7c0-3.5,2.9-6.4,6.4-6.4h49
			c3.5,0,6.4,2.9,6.4,6.4V287z"/>
		<rect x="211.7" y="216.4" class="st5" width="15.2" height="51.6"/>
		<rect x="211.7" y="216.4" class="st6" width="15.2" height="51.6"/>
		<line class="st2" x1="219.3" y1="200.1" x2="219.3" y2="216.3"/>
		<path class="st7" d="M163.8,188h62.2v-49.4c0-12.9-10.4-23.3-23.3-23.3l0,0c-8.4,8.4-21.9,8.4-30.3,0l0,0"/>
		<path class="st2" d="M163.8,188h62.2v-49.4c0-12.9-10.4-23.3-23.3-23.3l0,0c-8.4,8.4-21.9,8.4-30.3,0l0,0"/>
		<path class="st2" d="M172.5,116.5l5.9,13.5l8.5-8.3 M180.1,129.1l3.9,3.7l-2.8,43.9l6.3,5.6 M202.8,116.5l-5.9,13.5l-8.5-8.3
			 M195.1,129.1l-3.9,3.7l2.8,43.9l-6.3,5.6 M184.1,132.8h7 M211.4,202.3c8.1,0,14.7-6.4,14.7-14.3 M211.4,142.1V279 M163.8,131.2
			V279 M199,65.7c5.4,4.4,9,12,9,20.5c0,13.7-9.1,24.8-20.4,24.8c-11.2,0-20.4-11.1-20.4-24.8c0-4.6,1-8.9,2.8-12.6 M208,88.4
			c3.5-3.5,5.7-8.3,5.7-13.7c0-10.7-8.7-19.4-19.4-19.4c0,0-18.1-0.2-25.5-4.6c-1.7,2.7-2.7,5.9-2.7,9.4c0,9.8,7.9,17.7,17.7,17.7
			c7,0,13.1-4.1,16-10.1"/>
		<line class="st6" x1="188.1" y1="209.4" x2="188.1" y2="286.8"/>
		<path class="st6" d="M218.7,287c0,3.5-2.9,6.4-6.4,6.4h-49c-3.5,0-6.4-2.9-6.4-6.4v-0.7c0-3.5,2.9-6.4,6.4-6.4h49
			c3.5,0,6.4,2.9,6.4,6.4V287z"/>
		<path class="st2" d="M226.1,170.5"/>
	</g>
	<path class="st8" d="M163.1,131.2h-60c-7.9,0-14.3-6.6-14.3-14.7l83.1-0.4"/>
</g>
</svg>
