<?xml version="1.0" encoding="utf-8"?>
<!-- Generator: Adobe Illustrator 23.0.2, SVG Export Plug-In . SVG Version: 6.00 Build 0)  -->
<svg version="1.1" xmlns="http://www.w3.org/2000/svg" xmlns:xlink="http://www.w3.org/1999/xlink" x="0px" y="0px"
	 viewBox="0 0 370 370" style="enable-background:new 0 0 370 370;" xml:space="preserve">
<style type="text/css">
	.st0{fill:#B0D2F0;}
	.st1{fill:#FFFFFF;}
	.st2{fill:none;stroke:#29235C;stroke-width:2.9068;stroke-linecap:round;stroke-linejoin:round;stroke-miterlimit:10;}
	.st3{fill:none;stroke:#29235C;stroke-width:2.9068;stroke-linecap:round;stroke-miterlimit:10;}
</style>
<g id="Layer_2">
</g>
<g id="Leiderschap">
	<path class="st0" d="M212.5,188l-1-49.4c0-12.9,4.1-23.3-8.7-23.3l0,0c-8.4,8.4-21.9,8.4-30.3,0l0,0c-12.9,0-23.3,10.4-23.3,23.3
		V188H212.5z"/>
	<polyline class="st1" points="184.1,133.5 182.2,177.1 188.1,182.2 194.2,176.5 191.1,132.8 194.2,129.1 186.4,122.1 181,128.5 	
		"/>
	<rect x="163.3" y="187.5" class="st1" width="48.9" height="91.6"/>
	<path class="st0" d="M218.7,287c0,3.5-2.9,6.4-6.4,6.4h-49c-3.5,0-6.4-2.9-6.4-6.4v-0.7c0-3.5,2.9-6.4,6.4-6.4h49
		c3.5,0,6.4,2.9,6.4,6.4V287z"/>
	<path class="st2" d="M202.8,115.3L202.8,115.3c-8.4,8.4-21.9,8.4-30.3,0l0,0c-12.9,0-23.3,10.4-23.3,23.3V188H211"/>
	<path class="st2" d="M172.5,116.5l5.9,13.5l8.5-8.3 M180.1,129.1l3.9,3.7l-2.8,43.9l6.3,5.6 M202.8,116.5l-5.9,13.5l-8.5-8.3
		 M195.1,129.1l-3.9,3.7l2.8,43.9l-6.3,5.6 M184.1,132.8h7 M163.8,202.3c-8.1,0-14.7-6.4-14.7-14.3 M163.8,142.1V279 M199,65.7
		c5.4,4.4,9,12,9,20.5c0,13.7-9.1,24.8-20.4,24.8c-11.2,0-20.4-11.1-20.4-24.8c0-4.6,1-8.9,2.8-12.6 M208,88.4
		c3.5-3.5,5.7-8.3,5.7-13.7c0-10.7-8.7-19.4-19.4-19.4c0,0-18.1-0.2-25.5-4.6c-1.7,2.7-2.7,5.9-2.7,9.4c0,9.8,7.9,17.7,17.7,17.7
		c7,0,13.1-4.1,16-10.1"/>
	<line class="st3" x1="188.1" y1="209.4" x2="188.1" y2="286.8"/>
	<path class="st3" d="M218.7,287c0,3.5-2.9,6.4-6.4,6.4h-49c-3.5,0-6.4-2.9-6.4-6.4v-0.7c0-3.5,2.9-6.4,6.4-6.4h49
		c3.5,0,6.4,2.9,6.4,6.4V287z"/>
	<path class="st2" d="M226.1,170.5"/>
	<rect x="202.5" y="114.9" class="st0" width="63.5" height="14.4"/>
	<line class="st2" x1="265.1" y1="256" x2="265.1" y2="94.3"/>
	<path class="st2" d="M203,114.3l77.2,0.4c0,8.5-6.7,15.3-15,15.3h-52.8l-0.9-0.1v149"/>
	<line class="st2" x1="265.2" y1="130.1" x2="265.2" y2="115.8"/>
	<path class="st2" d="M340.6,91.6c0,0-5.9,10-23.5,10c-16.9,0-17.8-14.4-33.7-14.4c-12.2,0-18.3,7.1-18.3,7.1V49.6
		c0,0,6.1-7.1,18.3-7.1c16,0,16.8,14.4,33.7,14.4c17.5,0,23.5-10,23.5-10V91.6z"/>
	<polyline class="st2" points="164,222.5 16,222.5 92.3,138.5 136.3,179.5 149,166 	"/>
	<polyline class="st2" points="273.3,128.5 344,222.5 212.1,222.5 	"/>
	<polyline class="st2" points="203,115 236,79 262.3,114 	"/>
	<g>
		<path class="st2" d="M94.5,73.4l-3.9-3.9 M123.8,102.7l-3.9-3.9 M123.8,69.5l-3.9,3.9 M130.7,86.1h-5.5 M107.2,62.6v5.5
			 M115.9,94.8c2.2-2.2,3.6-5.3,3.6-8.7c0-6.8-5.5-12.3-12.3-12.3c-3.7,0-7,1.7-9.3,4.3 M100.6,109.3c5.7,0,10.2-4.6,10.2-10.2
			c0-5.7-4.6-10.2-10.2-10.2c-3.1,0-5.8,1.3-7.7,3.5 M72.3,91.8c0.1,0,0.2,0,0.3,0c1.5-6.2,7.1-10.7,13.7-10.7
			c5.6,0,10.3,3.2,12.6,7.9c0.5-0.1,1-0.1,1.6-0.1c5.7,0,10.2,4.6,10.2,10.2c0,5.7-4.6,10.2-10.2,10.2H72.3c-4.8,0-8.8-3.9-8.8-8.8
			C63.6,95.8,67.5,91.8,72.3,91.8z"/>
	</g>
</g>
</svg>
