<?xml version="1.0" encoding="utf-8"?>
<!-- Generator: Adobe Illustrator 23.0.2, SVG Export Plug-In . SVG Version: 6.00 Build 0)  -->
<svg version="1.1" xmlns="http://www.w3.org/2000/svg" xmlns:xlink="http://www.w3.org/1999/xlink" x="0px" y="0px"
	 viewBox="0 0 370 370" style="enable-background:new 0 0 370 370;" xml:space="preserve">
<style type="text/css">
	.st0{fill:none;stroke:#29235C;stroke-width:2.9473;stroke-linecap:round;stroke-linejoin:round;stroke-miterlimit:10;}
	.st1{fill:#B0D2F0;}
	.st2{fill:none;stroke:#29235C;stroke-width:2.7942;stroke-linecap:round;stroke-linejoin:round;stroke-miterlimit:10;}
	.st3{fill:#FFFFFF;stroke:#29235C;stroke-width:2.9473;stroke-linecap:round;stroke-linejoin:round;stroke-miterlimit:10;}
	.st4{fill:#FFFFFF;}
	.st5{fill:none;stroke:#29235C;stroke-width:2.9068;stroke-linecap:round;stroke-miterlimit:10;}
	.st6{fill:none;stroke:#29235C;stroke-width:2.9068;stroke-linecap:round;stroke-linejoin:round;stroke-miterlimit:10;}
	.st7{fill:none;stroke:#B0D2F0;stroke-width:2.9068;stroke-linecap:round;stroke-linejoin:round;stroke-miterlimit:10;}
</style>
<g id="Layer_2">
</g>
<g id="Klant__x26__markt">
	<line class="st0" x1="11.2" y1="221.9" x2="358.4" y2="221.9"/>
	<path class="st1" d="M226.3,189.4v-50.1c0-13.1-10.6-23.7-23.6-23.7l0,0c-8.5,8.5-22.2,8.5-30.7,0l0,0c-7.3,0-68.8,1.8-68.8,1.8
		c0.3,0,0,13.8,0,13.8c4.5,1.4,45.1-0.2,59.5,1.2v57L226.3,189.4L226.3,189.4z"/>
	<g>
		<rect x="249.7" y="57.4" class="st0" width="68.1" height="103.6"/>
		<line class="st0" x1="314.5" y1="242.7" x2="295.3" y2="161.8"/>
		<line class="st0" x1="255.4" y1="242.7" x2="274.6" y2="161.8"/>
		<line class="st0" x1="284.9" y1="160.9" x2="284.9" y2="242.7"/>
		<g>
			<ellipse class="st0" cx="285.4" cy="130.1" rx="20.6" ry="20.6"/>
		</g>
		<polyline class="st0" points="304,122.6 285,130 305.9,130 		"/>
		<polyline class="st0" points="267.3,139.6 285,129.8 274.8,112.6 		"/>
		<rect x="263.3" y="80.9" class="st0" width="6.6" height="18.4"/>
		<rect x="274.6" y="83" class="st0" width="6.6" height="16.4"/>
		<rect x="285.9" y="74.1" class="st0" width="6.6" height="25.2"/>
		<rect x="297.1" y="68.8" class="st0" width="6.6" height="30.5"/>
	</g>
	<path class="st0" d="M163.1,131.2h-60c-7.9,0-14.3-6.6-14.3-14.7l83.1-0.4"/>
	<path class="st0" d="M103.2,117.4"/>
	<path class="st0" d="M103.2,131"/>
	<rect x="65.4" y="71.8" class="st0" width="38.6" height="59"/>
	<line class="st2" x1="82" y1="86.9" x2="96.6" y2="86.9"/>
	<line class="st2" x1="82" y1="98.1" x2="96.6" y2="98.1"/>
	<line class="st2" x1="82" y1="109.2" x2="96.6" y2="109.2"/>
	<polyline class="st0" points="71.8,84.4 73.9,86.9 77.2,82 	"/>
	<polyline class="st0" points="71.8,96.3 73.9,98.8 77.2,93.8 	"/>
	<polyline class="st0" points="71.8,106.8 73.9,109.2 77.2,104.3 	"/>
	<rect x="73.4" y="67.8" class="st3" width="23.7" height="7.3"/>
	<g>
		<path class="st1" d="M163.8,188h62.2v-49.4c0-12.9-10.4-23.3-23.3-23.3l0,0c-8.4,8.4-21.9,8.4-30.3,0l0,0"/>
		<polyline class="st4" points="184.1,133.5 182.2,177.1 188.1,182.2 194.2,176.5 191.1,132.8 194.2,129.1 186.4,122.1 181,128.5 		
			"/>
		<rect x="163.3" y="187.5" class="st4" width="48.9" height="91.6"/>
		<path class="st1" d="M218.7,287c0,3.5-2.9,6.4-6.4,6.4h-49c-3.5,0-6.4-2.9-6.4-6.4v-0.7c0-3.5,2.9-6.4,6.4-6.4h49
			c3.5,0,6.4,2.9,6.4,6.4V287z"/>
		<rect x="211.7" y="216.4" class="st1" width="15.2" height="51.6"/>
		<rect x="211.7" y="216.4" class="st5" width="15.2" height="51.6"/>
		<line class="st6" x1="219.3" y1="200.1" x2="219.3" y2="216.3"/>
		<path class="st7" d="M163.8,188h62.2v-49.4c0-12.9-10.4-23.3-23.3-23.3l0,0c-8.4,8.4-21.9,8.4-30.3,0l0,0"/>
		<path class="st6" d="M163.8,188h62.2v-49.4c0-12.9-10.4-23.3-23.3-23.3l0,0c-8.4,8.4-21.9,8.4-30.3,0l0,0"/>
		<path class="st6" d="M172.5,116.5l5.9,13.5l8.5-8.3 M180.1,129.1l3.9,3.7l-2.8,43.9l6.3,5.6 M202.8,116.5l-5.9,13.5l-8.5-8.3
			 M195.1,129.1l-3.9,3.7l2.8,43.9l-6.3,5.6 M184.1,132.8h7 M211.4,202.3c8.1,0,14.7-6.4,14.7-14.3 M211.4,142.1V279 M163.8,131.2
			V279 M199,65.7c5.4,4.4,9,12,9,20.5c0,13.7-9.1,24.8-20.4,24.8c-11.2,0-20.4-11.1-20.4-24.8c0-4.6,1-8.9,2.8-12.6 M208,88.4
			c3.5-3.5,5.7-8.3,5.7-13.7c0-10.7-8.7-19.4-19.4-19.4c0,0-18.1-0.2-25.5-4.6c-1.7,2.7-2.7,5.9-2.7,9.4c0,9.8,7.9,17.7,17.7,17.7
			c7,0,13.1-4.1,16-10.1"/>
		<line class="st5" x1="188.1" y1="209.4" x2="188.1" y2="286.8"/>
		<path class="st5" d="M218.7,287c0,3.5-2.9,6.4-6.4,6.4h-49c-3.5,0-6.4-2.9-6.4-6.4v-0.7c0-3.5,2.9-6.4,6.4-6.4h49
			c3.5,0,6.4,2.9,6.4,6.4V287z"/>
		<path class="st6" d="M226.1,170.5"/>
	</g>
</g>
</svg>
