<?xml version="1.0" encoding="utf-8"?>
<!-- Generator: Adobe Illustrator 23.0.2, SVG Export Plug-In . SVG Version: 6.00 Build 0)  -->
<svg version="1.1" id="Intern" xmlns="http://www.w3.org/2000/svg" xmlns:xlink="http://www.w3.org/1999/xlink" x="0px" y="0px"
	 viewBox="0 0 370 370" style="enable-background:new 0 0 370 370;" xml:space="preserve">
<style type="text/css">
	.st0{fill:none;stroke:#29235C;stroke-width:2.9068;stroke-linecap:round;stroke-linejoin:round;stroke-miterlimit:10;}
	.st1{fill:none;stroke:#29235C;stroke-width:2.9473;stroke-linecap:round;stroke-linejoin:round;stroke-miterlimit:10;}
	.st2{fill:#B0D2F0;}
	.st3{fill:#FFFFFF;}
	.st4{fill:none;stroke:#B0D2F0;stroke-width:2.9068;stroke-linecap:round;stroke-linejoin:round;stroke-miterlimit:10;}
	.st5{fill:none;stroke:#29235C;stroke-width:2.9068;stroke-linecap:round;stroke-miterlimit:10;}
</style>
<g>
	<path class="st0" d="M98.2,101.9L94.3,98 M127.5,131.2l-3.9-3.9 M127.5,98l-3.9,3.9 M134.4,114.6h-5.5 M110.9,91.1v5.5
		 M119.6,123.3c2.2-2.2,3.6-5.3,3.6-8.7c0-6.8-5.5-12.3-12.3-12.3c-3.7,0-7,1.6-9.3,4.2 M104.3,137.8c5.6,0,10.2-4.6,10.2-10.2
		c0-5.6-4.6-10.2-10.2-10.2c-3.1,0-5.8,1.4-7.7,3.5 M76,120.3c0.1,0,0.2,0,0.3,0c1.5-6.2,7.1-10.7,13.7-10.7
		c5.6,0,10.3,3.2,12.6,7.9c0.5-0.1,1-0.1,1.6-0.1c5.6,0,10.2,4.6,10.2,10.2c0,5.7-4.6,10.2-10.2,10.2H76c-4.8,0-8.7-3.9-8.7-8.7
		C67.3,124.2,71.2,120.3,76,120.3z"/>
</g>
<line class="st1" x1="7.7" y1="222.1" x2="354.9" y2="222.1"/>
<g>
	<path class="st2" d="M225.6,188.1v-49.4c0-12.9-10.4-23.3-23.3-23.3l0,0c-8.4,8.4-21.9,8.4-30.3,0l0,0c-12.9,0-23.3,10.4-23.3,23.3
		v49.4H225.6z"/>
	<rect x="162.9" y="187.6" class="st3" width="48.9" height="91.6"/>
	<path class="st2" d="M218.3,287.1c0,3.5-2.9,6.4-6.4,6.4h-49c-3.5,0-6.4-2.9-6.4-6.4v-0.7c0-3.5,2.9-6.4,6.4-6.4h49
		c3.5,0,6.4,2.9,6.4,6.4V287.1z"/>
	<path class="st4" d="M225.6,188.1v-49.4c0-12.9-10.4-23.3-23.3-23.3l0,0c-8.4,8.4-21.9,8.4-30.3,0l0,0c-12.9,0-23.3,10.4-23.3,23.3
		v49.4H225.6z"/>
	<path class="st0" d="M225.6,188.1v-49.4c0-12.9-10.4-23.3-23.3-23.3l0,0c-8.4,8.4-21.9,8.4-30.3,0l0,0c-12.9,0-23.3,10.4-23.3,23.3
		v49.4H225.6z"/>
	<path class="st0" d="M172,116.6l5.9,13.5l8.5-8.3 M202.3,116.6l-5.9,13.5l-8.5-8.3 M163.4,202.5c-8.1,0-14.7-6.4-14.7-14.3
		 M211,202.5c8.1,0,14.7-6.4,14.7-14.3 M211,142.2v136.9 M163.4,142.2v136.9 M198.5,65.8c5.4,4.5,9,12,9,20.5
		c0,13.7-9.1,24.8-20.4,24.8c-11.2,0-20.4-11.1-20.4-24.8c0-4.6,1-8.9,2.8-12.6 M207.6,88.5c3.5-3.5,5.7-8.3,5.7-13.7
		c0-10.7-8.7-19.4-19.4-19.4c0,0-18.1-0.2-25.5-4.6c-1.7,2.7-2.7,5.9-2.7,9.4c0,9.8,7.9,17.7,17.7,17.7c7,0,13.1-4.1,16-10.1"/>
	<line class="st5" x1="187.6" y1="209.5" x2="187.6" y2="286.9"/>
	<path class="st5" d="M218.3,287.1c0,3.5-2.9,6.4-6.4,6.4h-49c-3.5,0-6.4-2.9-6.4-6.4v-0.7c0-3.5,2.9-6.4,6.4-6.4h49
		c3.5,0,6.4,2.9,6.4,6.4V287.1z"/>
	<path class="st0" d="M225.6,170.6"/>
</g>
<line class="st1" x1="72.5" y1="222.2" x2="72.5" y2="207.1"/>
<line class="st1" x1="99.5" y1="222.2" x2="99.5" y2="195.7"/>
<polygon class="st1" points="275.4,155.4 279.7,155.4 280.6,221.8 274.4,221.8 "/>
<ellipse transform="matrix(0.9678 -0.2516 0.2516 0.9678 -32.4026 69.1476)" class="st1" cx="254.2" cy="161.3" rx="24" ry="3"/>
<ellipse transform="matrix(0.6992 -0.7149 0.7149 0.6992 -34.2854 262.2997)" class="st1" cx="294.6" cy="171.9" rx="3" ry="24"/>
<ellipse transform="matrix(0.2646 -0.9644 0.9644 0.2646 81.2261 371.2581)" class="st1" cx="284" cy="132.4" rx="24" ry="3"/>
<path class="st1" d="M281.9,155.5c0,2.3-1.9,4.2-4.2,4.2s-4.2-1.9-4.2-4.2s1.9-4.2,4.2-4.2S281.9,153.1,281.9,155.5z"/>
<path class="st1" d="M99.7,203.6c-12.8,0-23.2-10.4-23.2-23.2s10.4-23.2,23.2-23.2s23.2,10.4,23.2,23.2c0,8-4.1,15.1-10.2,19.3"/>
<path class="st1" d="M86,200.1c-0.7,3.7-2.8,6.9-5.8,8.9"/>
<path class="st1" d="M72.5,211.4c-7.6,0-13.7-6.1-13.7-13.7c0-7.6,6.1-13.7,13.7-13.7c0.9,0,1.9,0.1,2.8,0.3"/>
</svg>
