<?xml version="1.0" encoding="utf-8"?>
<!-- Generator: Adobe Illustrator 23.0.2, SVG Export Plug-In . SVG Version: 6.00 Build 0)  -->
<svg version="1.1" xmlns="http://www.w3.org/2000/svg" xmlns:xlink="http://www.w3.org/1999/xlink" x="0px" y="0px"
	 viewBox="0 0 566.9 566.9" style="enable-background:new 0 0 566.9 566.9;" xml:space="preserve">
<style type="text/css">
	.st0{fill:#29235C;}
</style>
<g id="Layer_2">
</g>
<g id="lijn_kopie">
	<g>
		<path class="st0" d="M286.1,566.9c-1.1,0-2-0.9-2-2s0.9-2,2-2l0.2,0c0,0,0,0,0,0c1.1,0,2,0.9,2,2c0,1.1-0.9,2-2,2L286.1,566.9z
			 M278.1,566.9C278.1,566.9,278.1,566.9,278.1,566.9l-0.3,0c-1.1,0-2-1-1.9-2.1c0-1.1,0.9-2,2.1-1.9l0.2,0c1.1,0,2,0.9,2,2
			C280.1,566,279.2,566.9,278.1,566.9z M294.3,566.7c-1.1,0-2-0.9-2-1.9c0-1.1,0.8-2,1.9-2.1l0.2,0c1.1,0,2,0.8,2.1,1.9
			s-0.8,2-1.9,2.1L294.3,566.7C294.3,566.7,294.3,566.7,294.3,566.7z M270,566.6C269.9,566.6,269.9,566.6,270,566.6l-0.3,0
			c-1.1-0.1-1.9-1-1.9-2.1s1-2,2.1-1.9l0.2,0c1.1,0,2,1,1.9,2.1C271.9,565.8,271,566.6,270,566.6z M302.5,566.3
			c-1.1,0-1.9-0.8-2-1.9c-0.1-1.1,0.8-2,1.9-2.1l0.2,0c1.1-0.1,2.1,0.7,2.1,1.8s-0.7,2.1-1.8,2.1l-0.2,0
			C302.6,566.3,302.5,566.3,302.5,566.3z M261.8,566.1c0,0-0.1,0-0.1,0l-0.2,0c-1.1-0.1-1.9-1.1-1.8-2.2c0.1-1.1,1.1-1.9,2.2-1.8
			l0.2,0c1.1,0.1,1.9,1,1.8,2.1C263.7,565.3,262.8,566.1,261.8,566.1z M310.6,565.6c-1,0-1.9-0.8-2-1.8c-0.1-1.1,0.7-2.1,1.8-2.2
			l0.2,0c1.1-0.1,2.1,0.7,2.2,1.8c0.1,1.1-0.7,2.1-1.8,2.2l-0.2,0C310.8,565.6,310.7,565.6,310.6,565.6z M253.6,565.4
			c-0.1,0-0.1,0-0.2,0l-0.2,0c-1.1-0.1-1.9-1.1-1.8-2.2c0.1-1.1,1.1-1.9,2.2-1.8l0.2,0c1.1,0.1,1.9,1.1,1.8,2.2
			C255.5,564.6,254.6,565.4,253.6,565.4z M318.8,564.7c-1,0-1.9-0.7-2-1.8c-0.1-1.1,0.7-2.1,1.7-2.2l0.2,0c1.1-0.1,2.1,0.6,2.2,1.7
			c0.1,1.1-0.6,2.1-1.7,2.2l-0.2,0C318.9,564.7,318.8,564.7,318.8,564.7z M245.5,564.4c-0.1,0-0.2,0-0.3,0l-0.2,0
			c-1.1-0.1-1.9-1.2-1.7-2.2c0.1-1.1,1.2-1.9,2.2-1.7l0.2,0c1.1,0.1,1.9,1.2,1.7,2.2C247.3,563.6,246.5,564.4,245.5,564.4z
			 M326.9,563.5c-1,0-1.8-0.7-2-1.7c-0.2-1.1,0.6-2.1,1.7-2.3l0.2,0c1.1-0.2,2.1,0.6,2.3,1.6c0.2,1.1-0.6,2.1-1.6,2.3l-0.2,0
			C327.1,563.5,327,563.5,326.9,563.5z M237.4,563.2c-0.1,0-0.2,0-0.3,0l-0.2,0c-1.1-0.2-1.8-1.2-1.7-2.3c0.2-1.1,1.2-1.8,2.3-1.7
			l0.2,0c1.1,0.2,1.8,1.2,1.6,2.3C239.2,562.5,238.4,563.2,237.4,563.2z M334.9,562.1c-0.9,0-1.8-0.7-2-1.6
			c-0.2-1.1,0.5-2.1,1.6-2.3l0.2,0c1.1-0.2,2.1,0.5,2.3,1.6s-0.5,2.1-1.6,2.3l-0.2,0C335.2,562.1,335.1,562.1,334.9,562.1z
			 M229.4,561.7c-0.1,0-0.3,0-0.4,0l-0.2,0c-1.1-0.2-1.8-1.3-1.6-2.3c0.2-1.1,1.3-1.8,2.3-1.6l0.2,0c1.1,0.2,1.8,1.3,1.6,2.3
			C231.1,561,230.3,561.7,229.4,561.7z M343,560.5c-0.9,0-1.7-0.6-1.9-1.6c-0.2-1.1,0.4-2.1,1.5-2.4l0.2,0c1.1-0.2,2.1,0.5,2.4,1.5
			s-0.5,2.1-1.5,2.4l-0.2,0C343.3,560.5,343.1,560.5,343,560.5z M221.3,560c-0.1,0-0.3,0-0.4,0l-0.2,0c-1.1-0.2-1.8-1.3-1.5-2.4
			c0.2-1.1,1.3-1.8,2.4-1.5l0.2,0c1.1,0.2,1.8,1.3,1.5,2.4C223.1,559.4,222.3,560,221.3,560z M350.9,558.7c-0.9,0-1.7-0.6-1.9-1.5
			c-0.3-1.1,0.4-2.2,1.4-2.4l0.2-0.1c1.1-0.3,2.2,0.4,2.4,1.5c0.3,1.1-0.4,2.2-1.5,2.4l-0.2,0C351.3,558.7,351.1,558.7,350.9,558.7z
			 M213.4,558.1c-0.2,0-0.3,0-0.5-0.1l-0.2,0c-1.1-0.3-1.7-1.4-1.4-2.4s1.4-1.7,2.4-1.4l0.2,0c1.1,0.3,1.7,1.4,1.4,2.4
			C215.1,557.5,214.3,558.1,213.4,558.1z M358.9,556.6c-0.9,0-1.7-0.6-1.9-1.4c-0.3-1.1,0.3-2.2,1.4-2.5l0.2-0.1
			c1.1-0.3,2.2,0.3,2.5,1.4c0.3,1.1-0.3,2.2-1.4,2.5l-0.2,0C359.2,556.6,359.1,556.6,358.9,556.6z M205.5,555.9
			c-0.2,0-0.4,0-0.6-0.1l-0.2-0.1c-1.1-0.3-1.7-1.4-1.4-2.5c0.3-1.1,1.4-1.7,2.5-1.4l0.2,0.1c1.1,0.3,1.7,1.4,1.4,2.5
			C207.2,555.4,206.4,555.9,205.5,555.9z M366.7,554.3c-0.8,0-1.6-0.5-1.9-1.4c-0.3-1.1,0.2-2.2,1.3-2.5l0.2-0.1
			c1-0.3,2.2,0.3,2.5,1.3c0.3,1.1-0.3,2.2-1.3,2.5l-0.2,0.1C367.1,554.3,366.9,554.3,366.7,554.3z M197.7,553.6
			c-0.2,0-0.4,0-0.6-0.1l-0.2-0.1c-1.1-0.3-1.6-1.4-1.3-2.5c0.3-1.1,1.4-1.6,2.5-1.3l0.2,0.1c1.1,0.3,1.6,1.5,1.3,2.5
			C199.3,553,198.5,553.6,197.7,553.6z M374.5,551.8c-0.8,0-1.6-0.5-1.9-1.4c-0.4-1,0.2-2.2,1.2-2.5l0.2-0.1
			c1.1-0.4,2.2,0.2,2.5,1.3c0.4,1-0.2,2.2-1.3,2.5l-0.2,0.1C374.9,551.7,374.7,551.8,374.5,551.8z M189.9,551c-0.2,0-0.5,0-0.7-0.1
			l-0.2-0.1c-1-0.4-1.6-1.5-1.2-2.5c0.4-1,1.5-1.6,2.5-1.2l0.2,0.1c1,0.4,1.6,1.5,1.2,2.6C191.5,550.4,190.7,551,189.9,551z
			 M382.2,549c-0.8,0-1.6-0.5-1.9-1.3c-0.4-1,0.1-2.2,1.2-2.6l0.2-0.1c1-0.4,2.2,0.1,2.6,1.2c0.4,1-0.1,2.2-1.2,2.6l-0.2,0.1
			C382.7,549,382.5,549,382.2,549z M182.2,548.1c-0.2,0-0.5,0-0.7-0.1l-0.2-0.1c-1-0.4-1.6-1.5-1.2-2.6s1.5-1.6,2.6-1.2l0.2,0.1
			c1,0.4,1.5,1.6,1.1,2.6C183.8,547.6,183,548.1,182.2,548.1z M389.8,546c-0.8,0-1.5-0.5-1.9-1.3c-0.4-1,0.1-2.2,1.1-2.6l0.2-0.1
			c1-0.4,2.2,0.1,2.6,1.1c0.4,1-0.1,2.2-1.1,2.6l-0.2,0.1C390.3,546,390.1,546,389.8,546z M174.6,545.1c-0.3,0-0.5,0-0.8-0.2
			l-0.2-0.1c-1-0.4-1.5-1.6-1.1-2.6c0.4-1,1.6-1.5,2.6-1l0.2,0.1c1,0.4,1.5,1.6,1.1,2.6C176.2,544.6,175.4,545.1,174.6,545.1z
			 M397.4,542.8c-0.8,0-1.5-0.5-1.8-1.2c-0.4-1,0-2.2,1-2.6l0.1-0.1c1-0.5,2.2,0,2.6,1c0.5,1,0,2.2-1,2.6l-0.2,0.1
			C397.9,542.8,397.6,542.8,397.4,542.8z M167.1,541.8c-0.3,0-0.6-0.1-0.8-0.2l-0.2-0.1c-1-0.5-1.4-1.7-1-2.7s1.7-1.4,2.7-1l0.2,0.1
			c1,0.5,1.5,1.6,1,2.6C168.6,541.3,167.9,541.8,167.1,541.8z M404.8,539.4c-0.7,0-1.4-0.4-1.8-1.1c-0.5-1-0.1-2.2,0.9-2.7l0.2-0.1
			c1-0.5,2.2,0,2.7,1c0.5,1,0,2.2-1,2.7l-0.1,0.1C405.4,539.3,405.1,539.4,404.8,539.4z M159.7,538.3c-0.3,0-0.6-0.1-0.9-0.2
			l-0.2-0.1c-1-0.5-1.4-1.7-0.9-2.7s1.7-1.4,2.7-0.9l0.2,0.1c1,0.5,1.4,1.7,0.9,2.7C161.2,537.9,160.5,538.3,159.7,538.3z
			 M412.2,535.8c-0.7,0-1.4-0.4-1.8-1.1c-0.5-1-0.2-2.2,0.8-2.7l0.2-0.1c1-0.5,2.2-0.1,2.7,0.9c0.5,1,0.1,2.2-0.9,2.7l-0.1,0.1
			C412.8,535.7,412.5,535.8,412.2,535.8z M152.4,534.6c-0.3,0-0.6-0.1-0.9-0.2l-0.1-0.1c-1-0.5-1.4-1.7-0.9-2.7
			c0.5-1,1.7-1.4,2.7-0.9l0.2,0.1c1,0.5,1.3,1.7,0.8,2.7C153.8,534.2,153.2,534.6,152.4,534.6z M419.4,531.9c-0.7,0-1.4-0.4-1.7-1
			c-0.5-1-0.2-2.2,0.8-2.7l0.2-0.1c1-0.5,2.2-0.2,2.7,0.8c0.5,1,0.2,2.2-0.8,2.7l-0.2,0.1C420.1,531.9,419.7,531.9,419.4,531.9z
			 M145.3,530.6c-0.3,0-0.7-0.1-1-0.3l-0.2-0.1c-1-0.5-1.3-1.8-0.7-2.7c0.5-1,1.8-1.3,2.7-0.7l0.2,0.1c1,0.5,1.3,1.8,0.8,2.7
			C146.6,530.3,146,530.6,145.3,530.6z M426.5,527.9c-0.7,0-1.4-0.4-1.7-1c-0.6-1-0.2-2.2,0.7-2.7l0.2-0.1c1-0.6,2.2-0.3,2.7,0.7
			c0.6,1,0.3,2.2-0.7,2.7l-0.2,0.1C427.2,527.8,426.9,527.9,426.5,527.9z M138.2,526.5c-0.4,0-0.7-0.1-1-0.3l-0.2-0.1
			c-0.9-0.6-1.3-1.8-0.7-2.7c0.6-0.9,1.8-1.3,2.7-0.7l0.2,0.1c0.9,0.6,1.3,1.8,0.7,2.7C139.5,526.2,138.9,526.5,138.2,526.5z
			 M433.5,523.6c-0.7,0-1.3-0.3-1.7-0.9c-0.6-0.9-0.3-2.2,0.6-2.8l0.2-0.1c0.9-0.6,2.2-0.3,2.8,0.6c0.6,0.9,0.3,2.2-0.6,2.8
			l-0.1,0.1C434.3,523.5,433.9,523.6,433.5,523.6z M131.2,522.2c-0.4,0-0.8-0.1-1.1-0.3l-0.1-0.1c-0.9-0.6-1.2-1.8-0.6-2.8
			s1.8-1.2,2.8-0.6l0.2,0.1c0.9,0.6,1.2,1.8,0.6,2.8C132.5,521.9,131.9,522.2,131.2,522.2z M440.4,519.2c-0.6,0-1.3-0.3-1.7-0.9
			c-0.6-0.9-0.4-2.2,0.5-2.8l0.2-0.1c0.9-0.6,2.2-0.4,2.8,0.6c0.6,0.9,0.4,2.2-0.6,2.8l-0.2,0.1
			C441.1,519.1,440.8,519.2,440.4,519.2z M124.4,517.6c-0.4,0-0.8-0.1-1.1-0.3c0,0-0.1-0.1-0.1-0.1c-0.9-0.6-1.2-1.9-0.6-2.8
			c0.6-0.9,1.8-1.2,2.7-0.6l0.1,0.1c0.9,0.6,1.2,1.9,0.5,2.8C125.6,517.3,125,517.6,124.4,517.6z M447.1,514.5
			c-0.6,0-1.2-0.3-1.6-0.8c-0.6-0.9-0.4-2.1,0.5-2.8l0.2-0.1c0.9-0.6,2.1-0.4,2.8,0.5c0.6,0.9,0.4,2.1-0.5,2.8l-0.2,0.1
			C447.9,514.4,447.5,514.5,447.1,514.5z M117.7,512.9c-0.4,0-0.8-0.1-1.2-0.4l-0.2-0.1c-0.9-0.7-1.1-1.9-0.4-2.8
			c0.7-0.9,1.9-1.1,2.8-0.4l0.1,0.1c0.9,0.6,1.1,1.9,0.5,2.8C119,512.6,118.4,512.9,117.7,512.9z M453.7,509.7
			c-0.6,0-1.2-0.3-1.6-0.8c-0.7-0.9-0.5-2.1,0.4-2.8l0.2-0.1c0.9-0.7,2.1-0.5,2.8,0.4c0.7,0.9,0.5,2.1-0.4,2.8l-0.2,0.1
			C454.5,509.5,454.1,509.7,453.7,509.7z M111.2,508c-0.4,0-0.9-0.1-1.2-0.4l-0.1-0.1c-0.9-0.7-1.1-1.9-0.4-2.8
			c0.7-0.9,1.9-1.1,2.8-0.4l0.2,0.1c0.9,0.7,1,1.9,0.4,2.8C112.4,507.8,111.8,508,111.2,508z M460.1,504.6c-0.6,0-1.2-0.3-1.6-0.7
			c-0.7-0.9-0.6-2.1,0.3-2.8l0.2-0.1c0.9-0.7,2.1-0.6,2.8,0.3c0.7,0.9,0.6,2.1-0.3,2.8l-0.2,0.1C461,504.5,460.6,504.6,460.1,504.6z
			 M104.8,502.9c-0.4,0-0.9-0.1-1.3-0.4l-0.2-0.1c-0.8-0.7-1-2-0.2-2.8c0.7-0.8,2-1,2.8-0.2l0.1,0.1c0.9,0.7,1,2,0.3,2.8
			C105.9,502.7,105.4,502.9,104.8,502.9z M466.4,499.4c-0.6,0-1.1-0.2-1.5-0.7c-0.7-0.8-0.7-2.1,0.2-2.8l0.2-0.2
			c0.8-0.7,2.1-0.6,2.8,0.2c0.7,0.8,0.6,2.1-0.2,2.8l-0.1,0.1C467.4,499.2,466.9,499.4,466.4,499.4z M98.5,497.6
			c-0.5,0-0.9-0.2-1.3-0.5l-0.1-0.1c-0.8-0.7-0.9-2-0.2-2.8c0.7-0.8,2-0.9,2.8-0.2l0.2,0.1c0.8,0.7,0.9,2,0.2,2.8
			C99.6,497.4,99.1,497.6,98.5,497.6z M472.6,494c-0.5,0-1.1-0.2-1.5-0.6c-0.7-0.8-0.7-2.1,0.1-2.8l0.2-0.1c0.8-0.7,2.1-0.7,2.8,0.1
			c0.7,0.8,0.7,2.1-0.1,2.8l-0.1,0.1C473.5,493.8,473.1,494,472.6,494z M92.4,492.2c-0.5,0-1-0.2-1.4-0.5l-0.2-0.1
			c-0.8-0.8-0.9-2-0.1-2.8c0.8-0.8,2-0.9,2.8-0.1l0.1,0.1c0.8,0.7,0.9,2,0.1,2.8C93.5,492,93,492.2,92.4,492.2z M478.6,488.4
			c-0.5,0-1-0.2-1.4-0.6c-0.8-0.8-0.8-2.1,0-2.8l0.2-0.2c0.8-0.8,2.1-0.7,2.8,0.1c0.8,0.8,0.7,2.1-0.1,2.8l-0.1,0.1
			C479.6,488.2,479.1,488.4,478.6,488.4z M86.5,486.5c-0.5,0-1-0.2-1.4-0.6l-0.1-0.1c-0.8-0.8-0.8-2,0-2.8c0.8-0.8,2-0.8,2.8,0
			l0.2,0.1c0.8,0.8,0.8,2,0,2.8C87.5,486.3,87,486.5,86.5,486.5z M484.4,482.6c-0.5,0-1-0.2-1.4-0.6c-0.8-0.8-0.8-2-0.1-2.8l0.2-0.2
			c0.8-0.8,2-0.8,2.8,0c0.8,0.8,0.8,2,0,2.8l-0.1,0.1C485.4,482.4,484.9,482.6,484.4,482.6z M80.7,480.7c-0.5,0-1-0.2-1.4-0.6
			l-0.1-0.1c-0.8-0.8-0.7-2.1,0-2.8c0.8-0.8,2.1-0.8,2.8,0l0.1,0.1c0.8,0.8,0.7,2.1,0,2.8C81.7,480.5,81.2,480.7,80.7,480.7z
			 M490,476.7c-0.5,0-1-0.2-1.4-0.5c-0.8-0.7-0.9-2-0.1-2.8l0.1-0.1c0.7-0.8,2-0.9,2.8-0.1c0.8,0.7,0.9,2,0.1,2.8l-0.1,0.1
			C491.1,476.4,490.5,476.7,490,476.7z M75.1,474.7c-0.5,0-1-0.2-1.4-0.6c0,0-0.1-0.1-0.1-0.1c-0.7-0.8-0.7-2.1,0.1-2.9
			c0.8-0.7,2-0.7,2.8,0.1c0,0,0.1,0.1,0.1,0.1c0.7,0.8,0.7,2.1-0.1,2.9C76,474.6,75.5,474.7,75.1,474.7z M495.5,470.6
			c-0.5,0-0.9-0.2-1.3-0.5c-0.8-0.7-0.9-2-0.2-2.8l0.1-0.2c0.7-0.8,2-0.9,2.8-0.2c0.8,0.7,0.9,2,0.2,2.8l-0.1,0.1
			C496.6,470.3,496,470.6,495.5,470.6z M69.7,468.6c-0.6,0-1.1-0.2-1.5-0.7l-0.1-0.1c-0.7-0.8-0.6-2.1,0.2-2.8
			c0.8-0.7,2.1-0.6,2.8,0.2l0.1,0.2c0.7,0.8,0.6,2.1-0.2,2.8C70.6,468.5,70.1,468.6,69.7,468.6z M500.8,464.3
			c-0.5,0-0.9-0.2-1.3-0.5c-0.8-0.7-1-2-0.3-2.8l0.1-0.1c0.7-0.9,2-1,2.8-0.3c0.9,0.7,1,2,0.3,2.8l-0.1,0.2
			C501.9,464.1,501.3,464.3,500.8,464.3z M64.4,462.3c-0.6,0-1.2-0.3-1.6-0.7l-0.1-0.2c-0.7-0.9-0.6-2.1,0.3-2.8
			c0.9-0.7,2.1-0.6,2.8,0.3l0.1,0.1c0.7,0.9,0.6,2.1-0.3,2.8C65.3,462.2,64.9,462.3,64.4,462.3z M505.9,457.9
			c-0.4,0-0.8-0.1-1.2-0.4c-0.9-0.7-1.1-1.9-0.4-2.8l0.1-0.2c0.7-0.9,1.9-1,2.8-0.4c0.9,0.7,1,1.9,0.4,2.8l-0.1,0.1
			C507.1,457.6,506.5,457.9,505.9,457.9z M59.4,455.9c-0.6,0-1.2-0.3-1.6-0.8l-0.1-0.2c-0.7-0.9-0.5-2.1,0.4-2.8
			c0.9-0.7,2.1-0.5,2.8,0.4l0.1,0.1c0.7,0.9,0.5,2.1-0.4,2.8C60.2,455.7,59.8,455.9,59.4,455.9z M510.8,451.4
			c-0.4,0-0.8-0.1-1.2-0.4c-0.9-0.7-1.1-1.9-0.4-2.8l0.1-0.2c0.6-0.9,1.9-1.1,2.8-0.4c0.9,0.6,1.1,1.9,0.4,2.8l-0.1,0.2
			C512,451.1,511.4,451.4,510.8,451.4z M54.5,449.3c-0.6,0-1.2-0.3-1.6-0.8c0,0,0-0.1,0-0.1l-0.1-0.1c-0.6-0.9-0.5-2.1,0.4-2.8
			c0.9-0.7,2.1-0.5,2.8,0.4l0.1,0.1c0.6,0.9,0.5,2.2-0.4,2.8C55.3,449.2,54.9,449.3,54.5,449.3z M515.5,444.7
			c-0.4,0-0.8-0.1-1.2-0.4c-0.9-0.6-1.1-1.9-0.5-2.8l0.1-0.1c0.6-0.9,1.9-1.2,2.8-0.5c0.9,0.6,1.2,1.8,0.6,2.8l-1.7-1.1l1.7,1.1
			l-0.1,0.2C516.8,444.4,516.1,444.7,515.5,444.7z M49.9,442.6c-0.6,0-1.3-0.3-1.7-0.9l-0.1-0.2c-0.6-0.9-0.4-2.2,0.5-2.8
			c0.9-0.6,2.2-0.4,2.8,0.5l0.1,0.2c0.6,0.9,0.4,2.2-0.6,2.8C50.6,442.5,50.2,442.6,49.9,442.6z M520,437.9c-0.4,0-0.7-0.1-1.1-0.3
			c-0.9-0.6-1.2-1.8-0.6-2.8l0.1-0.2c0.6-0.9,1.8-1.2,2.8-0.6c0.9,0.6,1.2,1.8,0.6,2.8l-0.1,0.1C521.4,437.5,520.7,437.9,520,437.9z
			 M45.4,435.7c-0.7,0-1.3-0.3-1.7-0.9l-0.1-0.2c-0.6-0.9-0.3-2.2,0.6-2.8c0.9-0.6,2.2-0.3,2.8,0.6l0.1,0.2c0.6,0.9,0.3,2.2-0.6,2.8
			C46.1,435.6,45.8,435.7,45.4,435.7z M524.4,430.9c-0.3,0-0.7-0.1-1-0.3c-1-0.6-1.3-1.8-0.7-2.7l0.1-0.2c0.6-0.9,1.8-1.3,2.7-0.7
			c0.9,0.6,1.3,1.8,0.7,2.7l-0.1,0.2C525.7,430.6,525.1,430.9,524.4,430.9z M41.1,428.7c-0.7,0-1.4-0.4-1.7-1l-0.1-0.1
			c-0.6-0.9-0.3-2.2,0.7-2.7c0.9-0.6,2.2-0.3,2.7,0.7l0.1,0.2c0.6,1,0.2,2.2-0.7,2.7C41.8,428.6,41.5,428.7,41.1,428.7z
			 M528.5,423.9c-0.3,0-0.7-0.1-1-0.3c-1-0.5-1.3-1.8-0.8-2.7l0.1-0.2c0.5-1,1.8-1.3,2.7-0.8c1,0.5,1.3,1.8,0.8,2.7l-0.1,0.2
			C529.9,423.5,529.2,423.9,528.5,423.9z M37.1,421.6c-0.7,0-1.4-0.4-1.8-1l-0.1-0.2c-0.5-1-0.2-2.2,0.8-2.7c1-0.5,2.2-0.2,2.7,0.8
			l0.1,0.2c0.5,1,0.2,2.2-0.8,2.7C37.7,421.5,37.4,421.6,37.1,421.6z M532.4,416.7c-0.3,0-0.6-0.1-0.9-0.2c-1-0.5-1.4-1.7-0.9-2.7
			l0.1-0.2c0.5-1,1.7-1.3,2.7-0.8c1,0.5,1.3,1.7,0.8,2.7l-0.1,0.2C533.9,416.3,533.2,416.7,532.4,416.7z M33.2,414.4
			c-0.7,0-1.4-0.4-1.8-1.1l-0.1-0.2c-0.5-1-0.1-2.2,0.8-2.7c1-0.5,2.2-0.1,2.7,0.8l0.1,0.2c0.5,1,0.1,2.2-0.9,2.7
			C33.8,414.3,33.5,414.4,33.2,414.4z M536.2,409.4c-0.3,0-0.6-0.1-0.9-0.2c-1-0.5-1.4-1.7-0.9-2.7l0.1-0.2c0.5-1,1.7-1.4,2.7-0.9
			c1,0.5,1.4,1.7,0.9,2.7l-0.1,0.2C537.6,409,536.9,409.4,536.2,409.4z M29.6,407c-0.7,0-1.5-0.4-1.8-1.1l-0.1-0.2
			c-0.5-1-0.1-2.2,0.9-2.7c1-0.5,2.2,0,2.7,0.9l0.1,0.2c0.5,1,0.1,2.2-0.9,2.7C30.2,407,29.9,407,29.6,407z M539.7,402
			c-0.3,0-0.6-0.1-0.8-0.2c-1-0.5-1.4-1.7-1-2.7l0.1-0.2c0.5-1,1.6-1.5,2.6-1c1,0.5,1.5,1.6,1,2.6l-0.1,0.2
			C541.1,401.6,540.4,402,539.7,402z M26.2,399.6c-0.8,0-1.5-0.4-1.8-1.2l-0.1-0.2c-0.4-1,0-2.2,1-2.6c1-0.5,2.2,0,2.6,1l0.1,0.2
			c0.4,1,0,2.2-1,2.6C26.7,399.6,26.4,399.6,26.2,399.6z M543,394.5c-0.3,0-0.5-0.1-0.8-0.2c-1-0.4-1.5-1.6-1-2.6l0.1-0.1
			c0.4-1,1.6-1.5,2.6-1.1c1,0.4,1.5,1.6,1.1,2.6l-0.1,0.2C544.5,394,543.7,394.5,543,394.5z M23,392.1c-0.8,0-1.5-0.5-1.8-1.2
			l-0.1-0.2c-0.4-1,0.1-2.2,1.1-2.6c1-0.4,2.2,0.1,2.6,1.1l0.1,0.2c0.4,1-0.1,2.2-1.1,2.6C23.5,392,23.2,392.1,23,392.1z M546,386.9
			c-0.2,0-0.5,0-0.7-0.1c-1-0.4-1.6-1.5-1.2-2.6l0.1-0.2c0.4-1,1.6-1.5,2.6-1.1c1,0.4,1.5,1.6,1.1,2.6l-0.1,0.2
			C547.6,386.4,546.8,386.9,546,386.9z M20,384.5c-0.8,0-1.6-0.5-1.9-1.3L18,383c-0.4-1,0.1-2.2,1.2-2.6c1-0.4,2.2,0.1,2.6,1.2
			l0.1,0.2c0.4,1-0.1,2.2-1.2,2.6C20.4,384.4,20.2,384.5,20,384.5z M548.9,379.2c-0.2,0-0.4,0-0.6-0.1c-1-0.4-1.6-1.5-1.3-2.5
			l0.1-0.2c0.4-1,1.5-1.6,2.6-1.2c1,0.4,1.6,1.5,1.2,2.6l-0.1,0.2C550.5,378.7,549.7,379.2,548.9,379.2z M17.2,376.7
			c-0.8,0-1.6-0.5-1.9-1.4l-0.1-0.2c-0.4-1,0.2-2.2,1.2-2.5c1-0.4,2.2,0.2,2.5,1.2l0.1,0.2c0.4,1-0.2,2.2-1.3,2.5
			C17.6,376.7,17.4,376.7,17.2,376.7z M551.5,371.5c-0.2,0-0.4,0-0.6-0.1c-1.1-0.3-1.6-1.5-1.3-2.5l0.1-0.2c0.3-1.1,1.5-1.6,2.5-1.3
			c1.1,0.3,1.6,1.5,1.3,2.5l-0.1,0.2C553.1,370.9,552.3,371.5,551.5,371.5z M14.7,369c-0.9,0-1.6-0.6-1.9-1.4l-0.1-0.2
			c-0.3-1.1,0.3-2.2,1.3-2.5c1.1-0.3,2.2,0.3,2.5,1.3l0.1,0.2c0.3,1.1-0.3,2.2-1.3,2.5C15.1,368.9,14.9,369,14.7,369z M553.9,363.6
			c-0.2,0-0.4,0-0.6-0.1c-1.1-0.3-1.7-1.4-1.4-2.5l0.1-0.2c0.3-1.1,1.4-1.7,2.5-1.4c1.1,0.3,1.7,1.4,1.4,2.5l-0.1,0.2
			C555.5,363.1,554.7,363.6,553.9,363.6z M12.4,361.1c-0.9,0-1.7-0.6-1.9-1.5l-0.1-0.2c-0.3-1.1,0.3-2.2,1.4-2.5
			c1.1-0.3,2.2,0.3,2.5,1.4l0.1,0.2c0.3,1.1-0.3,2.2-1.4,2.5C12.7,361.1,12.5,361.1,12.4,361.1z M556,355.7c-0.2,0-0.3,0-0.5-0.1
			c-1.1-0.3-1.7-1.4-1.4-2.4l0-0.2c0.3-1.1,1.4-1.7,2.4-1.4c1.1,0.3,1.7,1.4,1.4,2.4l0,0.2C557.7,355.2,556.9,355.7,556,355.7z
			 M10.3,353.2c-0.9,0-1.7-0.6-1.9-1.5l-0.1-0.2c-0.3-1.1,0.4-2.2,1.5-2.4c1.1-0.3,2.2,0.4,2.4,1.5l0,0.2c0.3,1.1-0.4,2.2-1.5,2.4
			C10.6,353.2,10.4,353.2,10.3,353.2z M558,347.8c-0.1,0-0.3,0-0.4,0c-1.1-0.2-1.8-1.3-1.5-2.4l0-0.2c0.2-1.1,1.3-1.8,2.4-1.5
			c1.1,0.2,1.8,1.3,1.5,2.4l0,0.2C559.7,347.2,558.9,347.8,558,347.8z M8.4,345.2c-0.9,0-1.8-0.6-2-1.6l0-0.2
			c-0.2-1.1,0.4-2.1,1.5-2.4c1.1-0.2,2.1,0.4,2.4,1.5l0,0.2c0.2,1.1-0.5,2.1-1.5,2.4C8.7,345.2,8.6,345.2,8.4,345.2z M559.7,339.8
			c-0.1,0-0.3,0-0.4,0c-1.1-0.2-1.8-1.3-1.6-2.3l0-0.2c0.2-1.1,1.3-1.8,2.3-1.6c1.1,0.2,1.8,1.3,1.6,2.3l0,0.2
			C561.4,339.1,560.6,339.8,559.7,339.8z M6.8,337.2c-0.9,0-1.8-0.6-1.9-1.6c0,0,0-0.1,0-0.1l0-0.1c-0.2-1.1,0.5-2.1,1.6-2.3
			c1.1-0.2,2.1,0.5,2.3,1.6l0,0.1c0.2,1.1-0.5,2.2-1.6,2.4C7,337.1,6.9,337.2,6.8,337.2z M561.1,331.7c-0.1,0-0.2,0-0.3,0
			c-1.1-0.2-1.8-1.2-1.7-2.3l0-0.2c0.2-1.1,1.2-1.8,2.3-1.6c1.1,0.2,1.8,1.2,1.6,2.3l0,0.2C562.9,331,562.1,331.7,561.1,331.7z
			 M5.4,329.1c-1,0-1.8-0.7-2-1.7l0-0.2c-0.2-1.1,0.6-2.1,1.7-2.3c1.1-0.2,2.1,0.6,2.3,1.7l0,0.2c0.2,1.1-0.6,2.1-1.7,2.3
			C5.6,329.1,5.5,329.1,5.4,329.1z M562.3,323.6c-0.1,0-0.2,0-0.3,0c-1.1-0.1-1.9-1.2-1.7-2.2l0-0.2c0.1-1.1,1.2-1.9,2.2-1.7
			c1.1,0.1,1.9,1.1,1.7,2.2l0,0.2C564.2,322.9,563.3,323.6,562.3,323.6z M4.3,321c-1,0-1.9-0.7-2-1.8l0-0.2C2.1,318,2.9,317,4,316.8
			c1.1-0.1,2.1,0.6,2.2,1.7l0,0.2c0.1,1.1-0.6,2.1-1.7,2.2C4.4,321,4.3,321,4.3,321z M563.3,315.5c-0.1,0-0.2,0-0.2,0
			c-1.1-0.1-1.9-1.1-1.7-2.2l0-0.2c0.1-1.1,1.1-1.9,2.2-1.8c1.1,0.1,1.9,1.1,1.8,2.2l0,0.2C565.2,314.8,564.3,315.5,563.3,315.5z
			 M3.3,312.9c-1,0-1.9-0.8-2-1.8l0-0.2c-0.1-1.1,0.7-2.1,1.8-2.2c1.1-0.1,2.1,0.7,2.2,1.8l0,0.2c0.1,1.1-0.7,2.1-1.8,2.2
			C3.5,312.9,3.4,312.9,3.3,312.9z M564.1,307.4c-0.1,0-0.1,0-0.2,0c-1.1-0.1-1.9-1.1-1.8-2.2l0-0.2c0.1-1.1,1-1.9,2.1-1.8
			c1.1,0.1,1.9,1,1.8,2.1l0,0.2C566,306.6,565.1,307.4,564.1,307.4z M2.7,304.7c-1,0-1.9-0.8-2-1.9l0-0.2c-0.1-1.1,0.7-2.1,1.8-2.1
			c1.1-0.1,2.1,0.7,2.1,1.8l0,0.2c0.1,1.1-0.8,2.1-1.9,2.1C2.7,304.7,2.7,304.7,2.7,304.7z M564.6,299.2c0,0-0.1,0-0.1,0
			c-1.1-0.1-1.9-1-1.9-2.1l0-0.2c0-1.1,1-1.9,2.1-1.9c1.1,0,2,1,1.9,2.1l0,0.2C566.5,298.4,565.6,299.2,564.6,299.2z M2.2,296.5
			c-1.1,0-2-0.8-2-1.9l0-0.2c0-1.1,0.8-2,1.9-2.1c1.1,0,2,0.8,2.1,1.9l0,0.2C4.3,295.6,3.4,296.5,2.2,296.5
			C2.3,296.5,2.2,296.5,2.2,296.5z M564.9,291C564.8,291,564.8,291,564.9,291c-1.2,0-2-1-2-2.1l0-0.2c0-1.1,0.9-2,2-2c0,0,0,0,0,0
			c1.1,0,2,0.9,2,2l0,0.2C566.8,290.1,565.9,291,564.9,291z M2,288.3c-1.1,0-2-0.8-2-1.9c0,0,0-0.1,0-0.1c0-1.1,0.9-2.1,2-2.1
			c0,0,0,0,0,0c1.1,0,2,0.8,2,1.9c0,0,0,0.1,0,0.1C4,287.3,3.1,288.3,2,288.3C2,288.3,2,288.3,2,288.3z M564.9,282.8
			c-1.1,0-2-0.9-2-2l0-0.2c0-1.1,0.9-2,2-2c0,0,0,0,0,0c1.1,0,2,0.9,2,2l0,0.2C566.9,281.9,566,282.8,564.9,282.8z M2,280.2
			C2,280.2,2,280.2,2,280.2c-1.1,0-2-0.9-2-2l0-0.2c0-1.1,0.9-2,2-2c1.1,0,2,0.9,2,2l0,0.2C4,279.3,3.1,280.2,2,280.2z M564.7,274.6
			c-1.1,0-2-0.9-2-1.9l0-0.2c0-1.1,0.8-2,1.9-2.1c1.1,0,2,0.8,2.1,1.9l0,0.2C566.7,273.7,565.9,274.6,564.7,274.6
			C564.7,274.6,564.7,274.6,564.7,274.6z M2.3,272C2.3,272,2.2,272,2.3,272c-1.2-0.1-2-1-2-2.1l0-0.2c0.1-1.1,1-1.9,2.1-1.9
			c1.1,0.1,2,1,1.9,2.1l0,0.2C4.2,271.2,3.4,272,2.3,272z M564.3,266.5c-1.1,0-1.9-0.8-2-1.9l0-0.2c-0.1-1.1,0.7-2.1,1.8-2.1
			c1.1-0.1,2.1,0.7,2.1,1.8l0,0.2c0.1,1.1-0.8,2-1.9,2.1C564.3,266.5,564.3,266.5,564.3,266.5z M2.8,263.8c0,0-0.1,0-0.1,0
			c-1.1-0.1-1.9-1-1.8-2.1l0-0.2c0.1-1.1,1.1-1.9,2.2-1.8c1.1,0.1,1.9,1.1,1.8,2.2l0,0.2C4.7,263,3.8,263.8,2.8,263.8z M563.6,258.3
			c-1,0-1.9-0.8-2-1.8l0-0.2c-0.1-1.1,0.7-2.1,1.8-2.2c1.1-0.1,2.1,0.7,2.2,1.8l0,0.2c0.1,1.1-0.7,2.1-1.8,2.2
			C563.7,258.3,563.6,258.3,563.6,258.3z M3.5,255.7c-0.1,0-0.1,0-0.2,0c-1.1-0.1-1.9-1.1-1.8-2.2l0-0.2c0.1-1.1,1.1-1.9,2.2-1.8
			c1.1,0.1,1.9,1.1,1.8,2.2l0,0.2C5.4,254.9,4.6,255.7,3.5,255.7z M562.7,250.2c-1,0-1.9-0.7-2-1.8l0-0.2c-0.1-1.1,0.6-2.1,1.7-2.2
			c1.1-0.1,2.1,0.6,2.2,1.7l0,0.2c0.1,1.1-0.7,2.1-1.8,2.2C562.8,250.2,562.7,250.2,562.7,250.2z M4.5,247.5c-0.1,0-0.2,0-0.3,0
			c-1.1-0.1-1.9-1.2-1.7-2.2l0-0.2c0.2-1.1,1.2-1.9,2.3-1.7c1.1,0.2,1.9,1.2,1.7,2.3l0,0.2C6.4,246.8,5.5,247.5,4.5,247.5z
			 M561.5,242.1c-1,0-1.8-0.7-2-1.7l0-0.2c-0.2-1.1,0.6-2.1,1.7-2.3c1.1-0.2,2.1,0.6,2.3,1.7l0,0.2c0.2,1.1-0.6,2.1-1.7,2.3
			C561.7,242.1,561.6,242.1,561.5,242.1z M5.7,239.5c-0.1,0-0.2,0-0.3,0c-1.1-0.2-1.8-1.2-1.6-2.3l0-0.2c0.2-1.1,1.2-1.8,2.3-1.6
			c1.1,0.2,1.8,1.2,1.6,2.3l0,0.2C7.5,238.8,6.7,239.5,5.7,239.5z M560.1,233.9c-0.9,0-1.7-0.6-1.9-1.6c0,0,0-0.1,0-0.1
			c-0.2-1.1,0.5-2.2,1.6-2.4c1.1-0.2,2.1,0.5,2.3,1.5c0,0,0,0.1,0,0.1c0.2,1.1-0.5,2.2-1.6,2.4C560.4,233.9,560.2,233.9,560.1,233.9
			z M7.2,231.4c-0.1,0-0.3,0-0.4,0c-1.1-0.2-1.8-1.3-1.6-2.3l0-0.2c0.2-1.1,1.3-1.8,2.3-1.6c1.1,0.2,1.8,1.3,1.6,2.3l0,0.2
			C9,230.7,8.1,231.4,7.2,231.4z M558.5,226c-0.9,0-1.7-0.6-2-1.6l0-0.2c-0.2-1.1,0.5-2.1,1.5-2.4c1.1-0.2,2.1,0.5,2.4,1.5l0,0.2
			c0.2,1.1-0.4,2.1-1.5,2.4C558.8,225.9,558.7,226,558.5,226z M8.9,223.4c-0.1,0-0.3,0-0.4,0c-1.1-0.2-1.8-1.3-1.5-2.4l0-0.2
			c0.2-1.1,1.3-1.8,2.4-1.5c1.1,0.2,1.8,1.3,1.5,2.4l0,0.2C10.6,222.8,9.8,223.4,8.9,223.4z M556.7,218c-0.9,0-1.7-0.6-1.9-1.5
			l-0.1-0.2c-0.3-1.1,0.4-2.2,1.5-2.4c1.1-0.3,2.2,0.4,2.4,1.5l0,0.2c0.3,1.1-0.4,2.2-1.4,2.4C557,218,556.8,218,556.7,218z
			 M10.8,215.4c-0.2,0-0.3,0-0.5-0.1c-1.1-0.3-1.7-1.4-1.4-2.4l0.1-0.2c0.3-1.1,1.4-1.7,2.4-1.4c1.1,0.3,1.7,1.4,1.4,2.4l-0.1,0.2
			C12.5,214.8,11.7,215.4,10.8,215.4z M554.6,210.1c-0.9,0-1.7-0.6-1.9-1.4l-0.1-0.2c-0.3-1.1,0.3-2.2,1.4-2.5
			c1.1-0.3,2.2,0.3,2.5,1.4l0,0.2c0.3,1.1-0.3,2.2-1.4,2.5C555,210,554.8,210.1,554.6,210.1z M12.9,207.5c-0.2,0-0.4,0-0.6-0.1
			c-1.1-0.3-1.7-1.4-1.4-2.5l0.1-0.2c0.3-1.1,1.4-1.7,2.5-1.4c1.1,0.3,1.7,1.4,1.4,2.5l-0.1,0.2C14.6,207,13.8,207.5,12.9,207.5z
			 M552.3,202.2c-0.8,0-1.6-0.5-1.9-1.4l-0.1-0.2c-0.3-1.1,0.3-2.2,1.3-2.5c1-0.3,2.2,0.3,2.5,1.3l0.1,0.2c0.3,1.1-0.2,2.2-1.3,2.5
			C552.7,202.2,552.5,202.2,552.3,202.2z M15.3,199.7c-0.2,0-0.4,0-0.6-0.1c-1.1-0.3-1.6-1.5-1.3-2.5l0.1-0.2
			c0.3-1.1,1.5-1.6,2.5-1.3c1.1,0.3,1.6,1.5,1.3,2.5l-0.1,0.2C16.9,199.2,16.2,199.7,15.3,199.7z M549.8,194.4
			c-0.8,0-1.6-0.5-1.9-1.4l-0.1-0.2c-0.4-1,0.2-2.2,1.2-2.5s2.2,0.2,2.5,1.2l0.1,0.2c0.4,1-0.2,2.2-1.2,2.5
			C550.2,194.4,550,194.4,549.8,194.4z M17.9,191.9c-0.2,0-0.4,0-0.7-0.1c-1-0.4-1.6-1.5-1.2-2.6l0.1-0.2c0.4-1,1.5-1.6,2.6-1.2
			c1,0.4,1.6,1.5,1.2,2.6l-0.1,0.2C19.5,191.4,18.8,191.9,17.9,191.9z M547,186.7c-0.8,0-1.6-0.5-1.9-1.3l-0.1-0.2
			c-0.4-1,0.1-2.2,1.2-2.6c1-0.4,2.2,0.1,2.6,1.2l0.1,0.2c0.4,1-0.1,2.2-1.2,2.6C547.5,186.7,547.3,186.7,547,186.7z M20.8,184.3
			c-0.2,0-0.5,0-0.7-0.1c-1-0.4-1.5-1.6-1.1-2.6l0.1-0.2c0.4-1,1.6-1.5,2.6-1.1c1,0.4,1.5,1.6,1.1,2.6l-0.1,0.2
			C22.3,183.8,21.6,184.3,20.8,184.3z M544,179.1c-0.8,0-1.6-0.5-1.9-1.3l-0.1-0.2c-0.4-1,0.1-2.2,1.1-2.6c1-0.4,2.2,0.1,2.6,1.1
			l0.1,0.2c0.4,1-0.1,2.2-1.1,2.6C544.5,179,544.3,179.1,544,179.1z M23.8,176.7c-0.3,0-0.5-0.1-0.8-0.2c-1-0.4-1.5-1.6-1.1-2.6
			l0.1-0.2c0.4-1,1.6-1.5,2.6-1.1c1,0.4,1.5,1.6,1.1,2.6l-0.1,0.2C25.3,176.2,24.6,176.7,23.8,176.7z M540.8,171.6
			c-0.8,0-1.5-0.4-1.8-1.2l-0.1-0.2c-0.5-1,0-2.2,1-2.6c1-0.5,2.2,0,2.6,1l0.1,0.2c0.4,1,0,2.2-1,2.6
			C541.4,171.5,541.1,171.6,540.8,171.6z M27.1,169.2c-0.3,0-0.6-0.1-0.8-0.2c-1-0.5-1.5-1.6-1-2.6l0.1-0.2c0.5-1,1.6-1.4,2.7-1
			c1,0.5,1.4,1.6,1,2.7l-0.1,0.2C28.6,168.7,27.9,169.2,27.1,169.2z M537.4,164.1c-0.7,0-1.5-0.4-1.8-1.1l-0.1-0.2
			c-0.5-1,0-2.2,1-2.7c1-0.5,2.2,0,2.7,1l0.1,0.2c0.5,1,0.1,2.2-0.9,2.7C538,164,537.7,164.1,537.4,164.1z M30.6,161.8
			c-0.3,0-0.6-0.1-0.9-0.2c-1-0.5-1.4-1.7-0.9-2.7l0.1-0.2c0.5-1,1.7-1.4,2.7-0.9c1,0.5,1.4,1.7,0.9,2.7l-0.1,0.2
			C32.1,161.4,31.3,161.8,30.6,161.8z M533.8,156.8c-0.7,0-1.4-0.4-1.8-1.1l-0.1-0.2c-0.5-1-0.1-2.2,0.9-2.7c1-0.5,2.2-0.1,2.7,0.9
			l0.1,0.2c0.5,1,0.1,2.2-0.8,2.7C534.4,156.7,534.1,156.8,533.8,156.8z M34.3,154.5c-0.3,0-0.6-0.1-0.9-0.2c-1-0.5-1.4-1.7-0.8-2.7
			l0.1-0.2c0.5-1,1.7-1.4,2.7-0.8c1,0.5,1.3,1.7,0.8,2.7l-0.1,0.2C35.7,154.1,35,154.5,34.3,154.5z M529.9,149.5
			c-0.7,0-1.3-0.4-1.7-1c0,0,0-0.1,0-0.1c-0.5-1-0.2-2.2,0.8-2.8c1-0.5,2.2-0.2,2.7,0.7c0,0,0,0.1,0,0.1c0.5,1,0.2,2.2-0.8,2.8
			C530.6,149.4,530.2,149.5,529.9,149.5z M38.2,147.3c-0.3,0-0.7-0.1-1-0.3c-1-0.5-1.3-1.8-0.8-2.7l0.1-0.2c0.5-1,1.8-1.3,2.7-0.8
			c1,0.5,1.3,1.8,0.8,2.7l-0.1,0.2C39.6,146.9,38.9,147.3,38.2,147.3z M525.9,142.4c-0.7,0-1.4-0.4-1.7-1l-0.1-0.2
			c-0.6-1-0.3-2.2,0.7-2.7c1-0.6,2.2-0.3,2.7,0.7l0.1,0.2c0.6,1,0.2,2.2-0.7,2.7C526.6,142.3,526.3,142.4,525.9,142.4z M42.4,140.2
			c-0.4,0-0.7-0.1-1-0.3c-0.9-0.6-1.3-1.8-0.7-2.7l0.1-0.2c0.6-0.9,1.8-1.2,2.7-0.7c0.9,0.6,1.2,1.8,0.7,2.7l-0.1,0.2
			C43.7,139.9,43,140.2,42.4,140.2z M521.7,135.4c-0.7,0-1.3-0.3-1.7-0.9l-0.1-0.2c-0.6-0.9-0.3-2.2,0.6-2.8
			c0.9-0.6,2.2-0.3,2.8,0.6l0.1,0.2c0.6,0.9,0.3,2.2-0.6,2.8C522.4,135.3,522,135.4,521.7,135.4z M46.7,133.3
			c-0.4,0-0.8-0.1-1.1-0.3c-0.9-0.6-1.2-1.8-0.6-2.8l0.1-0.2c0.6-0.9,1.8-1.2,2.8-0.6c0.9,0.6,1.2,1.8,0.6,2.8l-0.1,0.2
			C48,133,47.3,133.3,46.7,133.3z M517.2,128.6c-0.6,0-1.3-0.3-1.7-0.9l-0.1-0.2c-0.6-0.9-0.4-2.2,0.5-2.8c0.9-0.6,2.2-0.4,2.8,0.5
			l0.1,0.2c0.6,0.9,0.4,2.2-0.6,2.8C518,128.5,517.6,128.6,517.2,128.6z M51.2,126.5c-0.4,0-0.8-0.1-1.1-0.4
			c-0.9-0.6-1.1-1.9-0.5-2.8l0.1-0.1l1.7,1.1l1.7,1.1l-0.1,0.2C52.5,126.2,51.9,126.5,51.2,126.5z M512.5,121.8
			c-0.6,0-1.2-0.3-1.6-0.9l-0.1-0.1c-0.6-0.9-0.4-2.1,0.5-2.8c0.9-0.6,2.1-0.4,2.8,0.5l0.1,0.2c0.6,0.9,0.4,2.2-0.5,2.8
			C513.3,121.7,512.9,121.8,512.5,121.8z M55.9,119.8c-0.4,0-0.8-0.1-1.2-0.4c-0.9-0.6-1.1-1.9-0.5-2.8l0.1-0.2
			c0.7-0.9,1.9-1.1,2.8-0.4c0.9,0.7,1.1,1.9,0.4,2.8l-0.1,0.1C57.2,119.5,56.6,119.8,55.9,119.8z M507.7,115.2
			c-0.6,0-1.2-0.3-1.6-0.8l-0.1-0.2c-0.7-0.9-0.5-2.1,0.4-2.8c0.9-0.7,2.1-0.5,2.8,0.4l0.1,0.1c0.7,0.9,0.5,2.1-0.4,2.8
			C508.5,115.1,508.1,115.2,507.7,115.2z M60.9,113.2c-0.4,0-0.9-0.1-1.2-0.4c-0.9-0.7-1-1.9-0.4-2.8l0.1-0.1c0.7-0.9,1.9-1,2.8-0.4
			c0.9,0.7,1,1.9,0.4,2.8l-0.1,0.2C62,113,61.4,113.2,60.9,113.2z M502.6,108.8c-0.6,0-1.2-0.3-1.6-0.7l-0.1-0.1
			c-0.7-0.9-0.6-2.1,0.3-2.8c0.9-0.7,2.1-0.6,2.8,0.3l0.1,0.2c0.7,0.9,0.6,2.1-0.3,2.8C503.5,108.6,503.1,108.8,502.6,108.8z
			 M65.9,106.8c-0.4,0-0.9-0.1-1.3-0.5c-0.9-0.7-1-2-0.3-2.8l0.1-0.2c0.7-0.9,2-1,2.8-0.3c0.9,0.7,1,2,0.3,2.8l-0.1,0.2
			C67.1,106.6,66.5,106.8,65.9,106.8z M497.4,102.5c-0.6,0-1.1-0.2-1.5-0.7l-0.2-0.2c-0.7-0.8-0.6-2.1,0.2-2.8
			c0.8-0.7,2.1-0.6,2.8,0.2l0.1,0.1c0.7,0.8,0.6,2.1-0.2,2.8C498.3,102.3,497.9,102.5,497.4,102.5z M71.2,100.6
			c-0.5,0-0.9-0.2-1.3-0.5c-0.8-0.7-0.9-2-0.2-2.8l0.1-0.1c0.7-0.8,2-0.9,2.8-0.2c0.8,0.7,0.9,2,0.2,2.8l-0.1,0.2
			C72.3,100.3,71.8,100.6,71.2,100.6z M492,96.4c-0.5,0-1.1-0.2-1.5-0.7l-0.1-0.1c-0.7-0.8-0.7-2.1,0.1-2.8c0.8-0.7,2.1-0.7,2.8,0.1
			l0.1,0.1c0.7,0.8,0.7,2.1-0.1,2.8C492.9,96.2,492.5,96.4,492,96.4z M76.7,94.5c-0.5,0-1-0.2-1.4-0.5c-0.8-0.8-0.9-2-0.1-2.8
			l0.1-0.1c0.7-0.8,2-0.9,2.8-0.1c0.8,0.7,0.9,2,0.1,2.8l-0.1,0.2C77.8,94.2,77.2,94.5,76.7,94.5z M486.4,90.4c-0.5,0-1-0.2-1.4-0.6
			l-0.1-0.2c-0.8-0.8-0.7-2.1,0.1-2.8c0.8-0.8,2.1-0.7,2.8,0.1l0.1,0.1c0.8,0.8,0.8,2.1,0,2.8C487.4,90.2,486.9,90.4,486.4,90.4z
			 M82.3,88.5c-0.5,0-1-0.2-1.4-0.6c-0.8-0.8-0.8-2,0-2.8L81,85c0.8-0.8,2-0.8,2.8,0c0.8,0.8,0.8,2,0,2.8l-0.1,0.1
			C83.4,88.3,82.9,88.5,82.3,88.5z M480.6,84.6c-0.5,0-1-0.2-1.4-0.6l-0.1-0.1c-0.8-0.8-0.8-2,0-2.8c0.8-0.8,2-0.8,2.8,0l0.2,0.2
			c0.8,0.8,0.8,2,0,2.8C481.7,84.4,481.1,84.6,480.6,84.6z M88.1,82.7c-0.5,0-1-0.2-1.4-0.6c-0.8-0.8-0.7-2.1,0-2.8l0.2-0.1
			c0.8-0.8,2.1-0.7,2.8,0.1c0.8,0.8,0.7,2.1-0.1,2.8l-0.1,0.1C89.1,82.6,88.6,82.7,88.1,82.7z M474.7,78.9c-0.5,0-1-0.2-1.3-0.5
			l-0.2-0.2c-0.8-0.8-0.9-2-0.1-2.8c0.8-0.8,2-0.9,2.8-0.1l0.1,0.1c0.8,0.7,0.9,2,0.1,2.8C475.8,78.7,475.2,78.9,474.7,78.9z
			 M94.1,77.1c-0.5,0-1.1-0.2-1.5-0.7c-0.7-0.8-0.7-2.1,0.1-2.8l0.1-0.1c0.8-0.7,2.1-0.7,2.8,0.1c0.7,0.8,0.7,2.1-0.1,2.8l-0.1,0.1
			C95.1,77,94.6,77.1,94.1,77.1z M468.6,73.5c-0.5,0-0.9-0.2-1.3-0.5l-0.1-0.1c-0.8-0.7-0.9-2-0.2-2.8s2-0.9,2.8-0.2l0.2,0.1
			c0.8,0.7,0.9,2,0.2,2.8C469.7,73.2,469.1,73.5,468.6,73.5z M100.2,71.7c-0.6,0-1.1-0.2-1.5-0.7c-0.7-0.8-0.6-2.1,0.2-2.8l0.1-0.1
			c0.8-0.7,2.1-0.6,2.8,0.2c0.7,0.8,0.6,2.1-0.2,2.8l-0.2,0.1C101.2,71.6,100.7,71.7,100.2,71.7z M462.3,68.2
			c-0.4,0-0.9-0.2-1.3-0.5l-0.1-0.1c-0.9-0.7-1-2-0.3-2.8c0.7-0.9,2-1,2.8-0.3l0.2,0.1c0.9,0.7,1,2,0.3,2.8
			C463.5,67.9,462.9,68.2,462.3,68.2z M106.5,66.5c-0.6,0-1.2-0.3-1.6-0.7c-0.7-0.9-0.6-2.1,0.3-2.8l0.2-0.1
			c0.9-0.7,2.1-0.6,2.8,0.3c0.7,0.9,0.6,2.1-0.3,2.8l-0.2,0.1C107.4,66.3,107,66.5,106.5,66.5z M455.9,63.1c-0.4,0-0.9-0.1-1.2-0.4
			l-0.2-0.1c-0.9-0.7-1-1.9-0.4-2.8c0.7-0.9,1.9-1,2.8-0.4l0.1,0.1c0.9,0.7,1,1.9,0.4,2.8C457.1,62.8,456.5,63.1,455.9,63.1z
			 M113,61.4c-0.6,0-1.2-0.3-1.6-0.8c-0.7-0.9-0.5-2.1,0.4-2.8l0.2-0.1c0.9-0.7,2.1-0.5,2.8,0.4c0.7,0.9,0.5,2.1-0.4,2.8l-0.2,0.1
			C113.8,61.3,113.4,61.4,113,61.4z M449.4,58.1c-0.4,0-0.8-0.1-1.2-0.4l-0.1-0.1c-0.9-0.7-1.1-1.9-0.5-2.8c0.7-0.9,1.9-1.1,2.8-0.5
			c0,0,0,0,0,0l0.1,0.1c0.9,0.6,1.1,1.9,0.5,2.8C450.6,57.8,450,58.1,449.4,58.1z M119.6,56.6c-0.6,0-1.2-0.3-1.6-0.8
			c-0.6-0.9-0.4-2.1,0.5-2.8l0.2-0.1c0.9-0.6,2.1-0.4,2.8,0.5c0.6,0.9,0.4,2.1-0.5,2.8l-0.2,0.1C120.4,56.4,120,56.6,119.6,56.6z
			 M442.7,53.4c-0.4,0-0.8-0.1-1.1-0.3l-0.3-0.2c-0.9-0.6-1.1-1.9-0.5-2.8c0.6-0.9,1.9-1.1,2.8-0.5l0.3,0.2c0.9,0.6,1.1,1.9,0.5,2.8
			C444,53.1,443.3,53.4,442.7,53.4z M126.3,51.9c-0.6,0-1.3-0.3-1.7-0.9c-0.6-0.9-0.4-2.2,0.5-2.8l0.2-0.1c0.9-0.6,2.2-0.4,2.8,0.6
			c0.6,0.9,0.4,2.2-0.6,2.8l-0.2,0.1C127.1,51.8,126.7,51.9,126.3,51.9z M435.7,48.8c-0.4,0-0.7-0.1-1.1-0.3l-0.2-0.1
			c-0.9-0.6-1.2-1.8-0.6-2.8c0.6-0.9,1.8-1.2,2.8-0.6l0.2,0.1c0.9,0.6,1.2,1.8,0.6,2.8C437,48.4,436.4,48.8,435.7,48.8z M133.2,47.4
			c-0.7,0-1.3-0.3-1.7-0.9c-0.6-0.9-0.3-2.2,0.6-2.8l0.2-0.1c0.9-0.6,2.2-0.3,2.8,0.6c0.6,0.9,0.3,2.2-0.6,2.8l-0.2,0.1
			C133.9,47.3,133.5,47.4,133.2,47.4z M428.8,44.4c-0.4,0-0.7-0.1-1-0.3l-0.2-0.1c-0.9-0.6-1.3-1.8-0.7-2.7c0.6-0.9,1.8-1.3,2.7-0.7
			l0.2,0.1c0.9,0.6,1.3,1.8,0.7,2.7C430.1,44.1,429.5,44.4,428.8,44.4z M140.2,43.1c-0.7,0-1.4-0.3-1.7-1c-0.6-1-0.3-2.2,0.7-2.7
			c0,0,0,0,0,0l0.1-0.1c0.9-0.6,2.2-0.3,2.7,0.7c0.6,0.9,0.3,2.2-0.7,2.7l-0.1,0.1C140.9,43,140.5,43.1,140.2,43.1z M421.7,40.3
			c-0.3,0-0.7-0.1-1-0.3l-0.2-0.1c-1-0.5-1.3-1.8-0.8-2.7s1.8-1.3,2.7-0.8l0.2,0.1c1,0.5,1.3,1.8,0.8,2.7
			C423.1,39.9,422.4,40.3,421.7,40.3z M147.3,39.1c-0.7,0-1.4-0.4-1.8-1c-0.5-1-0.2-2.2,0.8-2.7l0.2-0.1c1-0.5,2.2-0.2,2.7,0.8
			c0.5,1,0.2,2.2-0.8,2.7l-0.2,0.1C147.9,39,147.6,39.1,147.3,39.1z M414.6,36.4c-0.3,0-0.6-0.1-0.9-0.2l-0.2-0.1
			c-1-0.5-1.4-1.7-0.8-2.7s1.7-1.4,2.7-0.8l0.2,0.1c1,0.5,1.3,1.7,0.8,2.7C416,36,415.3,36.4,414.6,36.4z M154.5,35.2
			c-0.7,0-1.4-0.4-1.8-1.1c-0.5-1-0.1-2.2,0.9-2.7l0.2-0.1c1-0.5,2.2-0.1,2.7,0.9c0.5,1,0.1,2.2-0.9,2.7l-0.2,0.1
			C155.1,35.2,154.8,35.2,154.5,35.2z M407.3,32.7c-0.3,0-0.6-0.1-0.9-0.2l-0.2-0.1c-1-0.5-1.4-1.7-0.9-2.7c0.5-1,1.7-1.4,2.7-0.9
			l0.2,0.1c1,0.5,1.4,1.7,0.9,2.7C408.7,32.3,408,32.7,407.3,32.7z M161.8,31.6c-0.7,0-1.5-0.4-1.8-1.1c-0.5-1-0.1-2.2,0.9-2.7
			l0.2-0.1c1-0.5,2.2-0.1,2.7,0.9c0.5,1,0.1,2.2-0.9,2.7l-0.2,0.1C162.4,31.5,162.1,31.6,161.8,31.6z M399.9,29.2
			c-0.3,0-0.6-0.1-0.8-0.2l-0.2-0.1c-1-0.5-1.5-1.6-1-2.6c0.5-1,1.6-1.5,2.6-1l0.2,0.1c1,0.5,1.4,1.6,1,2.7
			C401.3,28.7,400.6,29.2,399.9,29.2z M169.2,28.2c-0.8,0-1.5-0.4-1.8-1.2c-0.4-1,0-2.2,1-2.6l0.2-0.1c1-0.5,2.2,0,2.6,1
			c0.5,1,0,2.2-1,2.6l-0.2,0.1C169.8,28.1,169.5,28.2,169.2,28.2z M392.4,25.9c-0.3,0-0.5-0.1-0.8-0.2l-0.2-0.1
			c-1-0.4-1.5-1.6-1.1-2.6c0.4-1,1.6-1.5,2.6-1.1l0.2,0.1c1,0.4,1.5,1.6,1.1,2.6C393.9,25.4,393.1,25.9,392.4,25.9z M176.8,25
			c-0.8,0-1.5-0.5-1.8-1.2c-0.4-1,0.1-2.2,1.1-2.6l0.2-0.1c1-0.4,2.2,0.1,2.6,1.1c0.4,1-0.1,2.2-1.1,2.6l-0.2,0.1
			C177.3,24.9,177,25,176.8,25z M384.8,22.8c-0.2,0-0.5,0-0.7-0.1l-0.2-0.1c-1-0.4-1.5-1.6-1.1-2.6s1.6-1.5,2.6-1.1l0.2,0.1
			c1,0.4,1.5,1.6,1.2,2.6C386.3,22.3,385.6,22.8,384.8,22.8z M184.4,22c-0.8,0-1.6-0.5-1.9-1.3c-0.4-1,0.1-2.2,1.2-2.6l0.2-0.1
			c1-0.4,2.2,0.1,2.6,1.2c0.4,1-0.1,2.2-1.2,2.6l-0.2,0.1C184.9,21.9,184.6,22,184.4,22z M377.1,20c-0.2,0-0.4,0-0.7-0.1l-0.2-0.1
			c-1-0.4-1.6-1.5-1.2-2.5c0.4-1,1.5-1.6,2.5-1.2l0.2,0.1c1,0.4,1.6,1.5,1.2,2.6C378.7,19.5,377.9,20,377.1,20z M192.1,19.2
			c-0.8,0-1.6-0.5-1.9-1.4c-0.4-1,0.2-2.2,1.2-2.5l0.2-0.1c1-0.4,2.2,0.2,2.5,1.2c0.4,1-0.2,2.2-1.2,2.5l-0.2,0.1
			C192.5,19.2,192.3,19.2,192.1,19.2z M369.3,17.4c-0.2,0-0.4,0-0.6-0.1l-0.2-0.1c-1.1-0.3-1.6-1.5-1.3-2.5c0.3-1.1,1.5-1.6,2.5-1.3
			l0.1,0c1.1,0.3,1.7,1.5,1.3,2.5C371,16.8,370.2,17.4,369.3,17.4z M199.9,16.7c-0.9,0-1.6-0.6-1.9-1.4c-0.3-1.1,0.3-2.2,1.3-2.5
			l0.2-0.1c1.1-0.3,2.2,0.3,2.5,1.3c0.3,1.1-0.3,2.2-1.3,2.5l-0.2,0.1C200.3,16.7,200.1,16.7,199.9,16.7z M361.5,15
			c-0.2,0-0.4,0-0.5-0.1l-0.2-0.1c-1.1-0.3-1.7-1.4-1.4-2.5s1.4-1.7,2.5-1.4l0.2,0c1.1,0.3,1.7,1.4,1.4,2.5
			C363.2,14.4,362.4,15,361.5,15z M207.7,14.4c-0.9,0-1.7-0.6-1.9-1.5c-0.3-1.1,0.3-2.2,1.4-2.5l0.2-0.1c1.1-0.3,2.2,0.3,2.5,1.4
			c0.3,1.1-0.3,2.2-1.4,2.5l-0.2,0C208.1,14.4,207.9,14.4,207.7,14.4z M353.6,12.8c-0.2,0-0.3,0-0.5-0.1l-0.2-0.1
			c-1.1-0.3-1.7-1.4-1.4-2.4c0.3-1.1,1.4-1.7,2.4-1.4l0.2,0c1.1,0.3,1.7,1.4,1.5,2.4C355.3,12.2,354.5,12.8,353.6,12.8z M215.7,12.3
			c-0.9,0-1.7-0.6-1.9-1.5c-0.3-1.1,0.4-2.2,1.5-2.4l0.2-0.1c1.1-0.3,2.2,0.4,2.4,1.5c0.3,1.1-0.4,2.2-1.5,2.4l-0.2,0
			C216,12.3,215.8,12.3,215.7,12.3z M345.7,10.9c-0.1,0-0.3,0-0.4,0l-0.2,0c-1.1-0.2-1.8-1.3-1.5-2.4c0.2-1.1,1.3-1.8,2.4-1.5l0.2,0
			c1.1,0.2,1.8,1.3,1.5,2.4C347.4,10.3,346.6,10.9,345.7,10.9z M223.6,10.4c-0.9,0-1.7-0.6-2-1.6c-0.2-1.1,0.4-2.1,1.5-2.4l0.2,0
			c1.1-0.2,2.1,0.5,2.4,1.5c0.2,1.1-0.5,2.1-1.5,2.4l-0.2,0C223.9,10.4,223.8,10.4,223.6,10.4z M337.7,9.2c-0.1,0-0.3,0-0.4,0
			l-0.2,0c-1.1-0.2-1.8-1.3-1.6-2.3c0.2-1.1,1.3-1.8,2.3-1.6l0.2,0c1.1,0.2,1.8,1.3,1.6,2.3C339.4,8.5,338.6,9.2,337.7,9.2z
			 M231.7,8.8c-0.9,0-1.8-0.7-2-1.6c-0.2-1.1,0.5-2.1,1.6-2.3l0.1,0c0,0,0.1,0,0.1,0c1.1-0.2,2.1,0.5,2.3,1.6
			c0.2,1.1-0.5,2.1-1.6,2.3l-0.2,0C231.9,8.8,231.8,8.8,231.7,8.8z M329.6,7.8c-0.1,0-0.2,0-0.3,0l-0.2,0c-1.1-0.2-1.8-1.2-1.6-2.3
			s1.2-1.8,2.3-1.6l0.2,0c1.1,0.2,1.8,1.2,1.7,2.3C331.4,7.1,330.6,7.8,329.6,7.8z M239.7,7.4c-1,0-1.8-0.7-2-1.7
			c-0.2-1.1,0.6-2.1,1.7-2.3l0.2,0c1.1-0.2,2.1,0.6,2.3,1.6c0.2,1.1-0.6,2.1-1.6,2.3l-0.2,0C239.9,7.4,239.8,7.4,239.7,7.4z
			 M321.5,6.5c-0.1,0-0.2,0-0.3,0l-0.2,0c-1.1-0.1-1.9-1.2-1.7-2.2c0.1-1.1,1.1-1.9,2.2-1.7l0.2,0c1.1,0.2,1.9,1.2,1.7,2.3
			C323.3,5.8,322.5,6.5,321.5,6.5z M247.8,6.3c-1,0-1.9-0.7-2-1.8c-0.1-1.1,0.6-2.1,1.7-2.2l0.2,0c1.1-0.1,2.1,0.6,2.2,1.7
			c0.1,1.1-0.6,2.1-1.7,2.2l-0.2,0C248,6.3,247.9,6.3,247.8,6.3z M313.4,5.6c-0.1,0-0.1,0-0.2,0l-0.2,0c-1.1-0.1-1.9-1.1-1.8-2.2
			c0.1-1.1,1.1-1.9,2.2-1.8l0.2,0c1.1,0.1,1.9,1.1,1.8,2.2C315.2,4.8,314.4,5.6,313.4,5.6z M256,5.3c-1,0-1.9-0.8-2-1.8
			c-0.1-1.1,0.7-2.1,1.8-2.2l0.2,0c1.1-0.1,2.1,0.7,2.2,1.8c0.1,1.1-0.7,2.1-1.8,2.2l-0.2,0C256.1,5.3,256,5.3,256,5.3z M305.2,4.8
			c-0.1,0-0.1,0-0.2,0l-0.2,0c-1.1-0.1-1.9-1-1.8-2.1c0.1-1.1,1-1.9,2.1-1.8l0.2,0c1.1,0.1,1.9,1.1,1.8,2.2
			C307.1,4,306.3,4.8,305.2,4.8z M264.1,4.7c-1,0-1.9-0.8-2-1.9c-0.1-1.1,0.8-2.1,1.9-2.1l0.2,0c1.1-0.1,2.1,0.7,2.1,1.8
			c0.1,1.1-0.7,2.1-1.8,2.1l-0.2,0C264.2,4.7,264.2,4.7,264.1,4.7z M297.1,4.3c0,0-0.1,0-0.1,0l-0.2,0c-1.1,0-2-1-1.9-2.1
			c0-1.1,1-1.9,2.1-1.9l0.2,0c1.1,0.1,2,1,1.9,2.1C299,3.5,298.1,4.3,297.1,4.3z M272.4,4.2c-1.1,0-2-0.8-2-1.9c0-1.1,0.8-2,1.9-2.1
			l0.1,0c1.1-0.1,2.1,0.8,2.1,1.9s-0.8,2-1.9,2.1C272.6,4.2,272.5,4.2,272.4,4.2C272.5,4.2,272.4,4.2,272.4,4.2z M288.9,4
			C288.9,4,288.8,4,288.9,4l-0.2,0c-1.1,0-2-0.9-2-2c0-1.1,0.9-2,2-2c0,0,0,0,0,0l0.2,0c1.1,0,2,0.9,2,2C290.8,3.2,290,4,288.9,4z
			 M280.5,4c-1.1,0-2-0.9-2-2c0-1.1,0.9-2,2-2l0.2,0c0,0,0,0,0,0c1.1,0,2,0.9,2,2c0,1.1-0.9,2-2,2L280.5,4C280.5,4,280.5,4,280.5,4z
			"/>
	</g>
	<path class="st0" d="M51.2,126.5c-0.4,0-0.8-0.1-1.2-0.4c-0.9-0.6-1.1-1.9-0.5-2.8l0.1-0.2c0.7-0.9,1.9-1.1,2.8-0.4
		c0.9,0.7,1.1,1.9,0.4,2.8l-0.1,0.1C52.4,126.2,51.8,126.5,51.2,126.5z"/>
</g>
</svg>
