<?xml version="1.0" encoding="utf-8"?>
<!-- Generator: Adobe Illustrator 23.0.2, SVG Export Plug-In . SVG Version: 6.00 Build 0)  -->
<svg version="1.1" id="Intern" xmlns="http://www.w3.org/2000/svg" xmlns:xlink="http://www.w3.org/1999/xlink" x="0px" y="0px"
	 viewBox="0 0 370 370" style="enable-background:new 0 0 370 370;" xml:space="preserve">
<style type="text/css">
	.st0{fill:none;stroke:#29235C;stroke-width:2.9068;stroke-linecap:round;stroke-linejoin:round;stroke-miterlimit:10;}
	.st1{fill:none;stroke:#29235C;stroke-width:2.9473;stroke-linecap:round;stroke-linejoin:round;stroke-miterlimit:10;}
	.st2{fill:none;stroke:#29235C;stroke-width:2.9472;stroke-linecap:round;stroke-linejoin:round;stroke-miterlimit:9.9997;}
	.st3{fill:none;stroke:#29235C;stroke-width:2.9472;stroke-linecap:round;stroke-linejoin:round;stroke-miterlimit:9.9998;}
	.st4{fill:none;stroke:#29235C;stroke-width:2.9474;stroke-linecap:round;stroke-linejoin:round;stroke-miterlimit:10.0004;}
	.st5{fill:none;stroke:#29235C;stroke-width:1.995;stroke-linecap:round;stroke-linejoin:round;stroke-miterlimit:10;}
	.st6{fill:#B0D2F0;}
</style>
<g>
	<path class="st0" d="M98.2,101.9L94.3,98 M127.5,131.2l-3.9-3.9 M127.5,98l-3.9,3.9 M134.4,114.6h-5.5 M110.9,91.1v5.5
		 M119.6,123.3c2.2-2.2,3.6-5.3,3.6-8.7c0-6.8-5.5-12.3-12.3-12.3c-3.7,0-7,1.6-9.3,4.2 M104.3,137.8c5.6,0,10.2-4.6,10.2-10.2
		c0-5.6-4.6-10.2-10.2-10.2c-3.1,0-5.8,1.4-7.7,3.5 M76,120.3c0.1,0,0.2,0,0.3,0c1.5-6.2,7.1-10.7,13.7-10.7
		c5.6,0,10.3,3.2,12.6,7.9c0.5-0.1,1-0.1,1.6-0.1c5.6,0,10.2,4.6,10.2,10.2c0,5.7-4.6,10.2-10.2,10.2H76c-4.8,0-8.7-3.9-8.7-8.7
		C67.3,124.2,71.2,120.3,76,120.3z"/>
</g>
<line class="st1" x1="7.7" y1="222.1" x2="354.9" y2="222.1"/>
<line class="st1" x1="72.5" y1="222.2" x2="72.5" y2="207.1"/>
<line class="st1" x1="99.5" y1="222.2" x2="99.5" y2="195.7"/>
<polygon class="st1" points="275.4,155.4 279.7,155.4 280.6,221.8 274.4,221.8 "/>
<ellipse transform="matrix(0.9678 -0.2516 0.2516 0.9678 -32.4059 69.1465)" class="st2" cx="254.2" cy="161.3" rx="24" ry="3"/>
<ellipse transform="matrix(0.6992 -0.7149 0.7149 0.6992 -34.2723 262.3065)" class="st3" cx="294.6" cy="171.9" rx="3" ry="24"/>
<ellipse transform="matrix(0.2646 -0.9644 0.9644 0.2646 81.2172 371.305)" class="st4" cx="284.1" cy="132.4" rx="24" ry="3"/>
<path class="st1" d="M281.9,155.5c0,2.3-1.9,4.2-4.2,4.2s-4.2-1.9-4.2-4.2s1.9-4.2,4.2-4.2S281.9,153.1,281.9,155.5z"/>
<path class="st1" d="M99.7,203.6c-12.8,0-23.2-10.4-23.2-23.2s10.4-23.2,23.2-23.2s23.2,10.4,23.2,23.2c0,8-4.1,15.1-10.2,19.3"/>
<path class="st1" d="M86,200.1c-0.7,3.7-2.8,6.9-5.8,8.9"/>
<path class="st1" d="M72.5,211.4c-7.6,0-13.7-6.1-13.7-13.7c0-7.6,6.1-13.7,13.7-13.7c0.9,0,1.9,0.1,2.8,0.3"/>
<g>
	<line class="st5" x1="217.6" y1="191.1" x2="217.6" y2="207.9"/>
	<path class="st6" d="M206.9,287.2c1.2,3.4-0.8,6.2-4.4,6.2h-30.1c-3.6,0-5.6-2.8-4.3-6.2l0.5-1.5c1.2-3.4,5.2-6.2,8.8-6.2h20.3
		c3.6,0,7.5,2.8,8.7,6.2L206.9,287.2z"/>
	<path class="st0" d="M206.9,287.2c1.2,3.4-0.8,6.2-4.4,6.2h-30.1c-3.6,0-5.6-2.8-4.3-6.2l0.5-1.5c1.2-3.4,5.2-6.2,8.8-6.2h20.3
		c3.6,0,7.5,2.8,8.7,6.2L206.9,287.2z"/>
	<line class="st0" x1="168.9" y1="226.1" x2="172.7" y2="279.4"/>
	<line class="st0" x1="206.1" y1="226.2" x2="202.3" y2="279.6"/>
	<line class="st0" x1="187.6" y1="228.8" x2="187.6" y2="286.9"/>
	<path class="st6" d="M202.3,109.9c0,8.1-6.8,14.6-15.3,14.6c-8.4,0-15.3-6.6-15.3-14.6c-11.9,11.3-7.4,21-4.1,32.9
		c3.3,11.9-0.8,18.7-0.8,18.7c-4.1,5.8-7.7,11.9-10.8,18.4c-5.2,11.2-8.6,23.4-9.9,36.2c11.8,7.7,25.8,12.3,41,12.3l0.6,0.1
		c15.1,0,29.2-4.5,41-12.3c-1.3-12.8-4.7-25-9.9-36.2c-3-6.5-6.6-12.7-10.8-18.4c0,0-4.2-6.8-0.8-18.7c3.3-11.9,7.8-21.6-4.1-32.9
		L202.3,109.9z"/>
	<path class="st0" d="M202.3,109.9c0,8.1-6.8,14.6-15.3,14.6c-8.4,0-15.3-6.6-15.3-14.6c-11.9,11.3-7.4,21-4.1,32.9
		c3.3,11.9-0.8,18.7-0.8,18.7c-4.1,5.8-7.7,11.9-10.8,18.4c-5.2,11.2-8.6,23.4-9.9,36.2c11.8,7.7,25.8,12.3,41,12.3l0.6,0.1
		c15.1,0,29.2-4.5,41-12.3c-1.3-12.8-4.7-25-9.9-36.2c-3-6.5-6.6-12.7-10.8-18.4c0,0-4.2-6.8-0.8-18.7c3.3-11.9,7.8-21.6-4.1-32.9
		L202.3,109.9z"/>
	<path class="st0" d="M171.8,109.9c0,0-16.5,5.3-16.5,20.6l0.6,49.4"/>
	<path class="st0" d="M203.2,110.1c0,0,16.5,5.3,16.5,20.6l-0.6,49.4"/>
	<line class="st0" x1="187.1" y1="128.6" x2="187.1" y2="160.8"/>
	<polyline class="st0" points="171.2,121.8 177.3,135.8 187.1,128.6 	"/>
	<polyline class="st0" points="202.4,121.8 196.4,135.8 187.1,128.6 	"/>
	<path class="st0" d="M204.3,83.9c0,11.9-7.9,21.5-17.6,21.5c-9.7,0-17.6-9.6-17.6-21.5"/>
	<path class="st0" d="M163.9,86.1c0,0,14.3-5.6,22.7-16.1"/>
	<path class="st0" d="M181.8,62.6c0,0,12.7,15.8,27.5,23.5"/>
	<path class="st0" d="M187.1,51.5c-22.8-2.7-31.8,30.5-28.7,52.6h19.5"/>
	<path class="st0" d="M196.3,104.1h19.5c3.1-22.1-5.8-55.3-28.7-52.6"/>
	<path class="st0" d="M187.1,115.5c-7.3,0-10.3-5.3-10.3-5.3"/>
	<path class="st0" d="M197.4,110.1c0.6,0-3.5,5.3-10.3,5.3"/>
</g>
</svg>
