<?xml version="1.0" encoding="utf-8"?>
<!-- Generator: Adobe Illustrator 23.0.2, SVG Export Plug-In . SVG Version: 6.00 Build 0)  -->
<svg version="1.1" id="Intern" xmlns="http://www.w3.org/2000/svg" xmlns:xlink="http://www.w3.org/1999/xlink" x="0px" y="0px"
	 viewBox="0 0 370 370" style="enable-background:new 0 0 370 370;" xml:space="preserve">
<style type="text/css">
	.st0{fill:none;stroke:#29235C;stroke-width:2.8092;stroke-linecap:round;stroke-linejoin:round;stroke-miterlimit:10;}
	.st1{fill:none;stroke:#29235C;stroke-width:2.9068;stroke-linecap:round;stroke-linejoin:round;stroke-miterlimit:10;}
	.st2{fill:none;stroke:#29235C;stroke-width:2.9473;stroke-linecap:round;stroke-linejoin:round;stroke-miterlimit:10;}
	.st3{fill:none;stroke:#29235C;stroke-width:1.995;stroke-linecap:round;stroke-linejoin:round;stroke-miterlimit:10;}
	.st4{fill:#B0D2F0;}
</style>
<g>
	<rect x="70.7" y="79.7" class="st0" width="54.1" height="31.1"/>
	<path class="st0" d="M124.7,86.1c-3.5,0-6.4-2.9-6.4-6.4"/>
	<path class="st0" d="M118.4,110.8c0-3.5,2.9-6.4,6.4-6.4"/>
	<path class="st0" d="M70.7,86.1c3.5,0,6.4-2.9,6.4-6.4"/>
	<path class="st0" d="M77,110.8c0-3.5-2.9-6.4-6.4-6.4"/>
</g>
<path class="st0" d="M103.5,89.5c-2.9-2.9-7.7-2.9-10.6,0s-2.9,7.7,0,10.6s7.7,2.9,10.6,0"/>
<line class="st0" x1="86.8" y1="93.7" x2="97.5" y2="93.7"/>
<line class="st0" x1="86.8" y1="97.3" x2="97.5" y2="97.3"/>
<line class="st1" x1="10.7" y1="222.7" x2="353.1" y2="222.7"/>
<g>
	<path class="st1" d="M225.7,171.1"/>
</g>
<path class="st2" d="M163.1,125.5h-60c-7.9,0-14.3-6.6-14.3-14.7l83.1-0.4"/>
<g>
	<line class="st3" x1="217.7" y1="191.6" x2="217.7" y2="208.4"/>
	<path class="st4" d="M207,287.7c1.2,3.4-0.8,6.2-4.4,6.2h-30.1c-3.6,0-5.6-2.8-4.3-6.2l0.5-1.5c1.2-3.4,5.2-6.2,8.8-6.2h20.3
		c3.6,0,7.5,2.8,8.7,6.2L207,287.7z"/>
	<path class="st1" d="M207,287.7c1.2,3.4-0.8,6.2-4.4,6.2h-30.1c-3.6,0-5.6-2.8-4.3-6.2l0.5-1.5c1.2-3.4,5.2-6.2,8.8-6.2h20.3
		c3.6,0,7.5,2.8,8.7,6.2L207,287.7z"/>
	<line class="st1" x1="169" y1="226.6" x2="172.8" y2="279.9"/>
	<line class="st1" x1="206.2" y1="226.7" x2="202.4" y2="280.1"/>
	<line class="st1" x1="187.7" y1="229.3" x2="187.7" y2="287.4"/>
	<path class="st4" d="M202.4,110.4c0,8.1-6.8,14.6-15.3,14.6c-8.4,0-15.3-6.6-15.3-14.6c-11.9,11.3-7.4,21-4.1,32.9
		c3.3,11.9-0.8,18.7-0.8,18.7c-4.1,5.8-7.7,11.9-10.8,18.4c-5.2,11.2-8.6,23.4-9.9,36.2c11.8,7.7,25.8,12.3,41,12.3l0.6,0.1
		c15.1,0,29.2-4.5,41-12.3c-1.3-12.8-4.7-25-9.9-36.2c-3-6.5-6.6-12.7-10.8-18.4c0,0-4.2-6.8-0.8-18.7c3.3-11.9,7.8-21.6-4.1-32.9
		L202.4,110.4z"/>
	<path class="st1" d="M202.4,110.4c0,8.1-6.8,14.6-15.3,14.6c-8.4,0-15.3-6.6-15.3-14.6c-11.9,11.3-7.4,21-4.1,32.9
		c3.3,11.9-0.8,18.7-0.8,18.7c-4.1,5.8-7.7,11.9-10.8,18.4c-5.2,11.2-8.6,23.4-9.9,36.2c11.8,7.7,25.8,12.3,41,12.3l0.6,0.1
		c15.1,0,29.2-4.5,41-12.3c-1.3-12.8-4.7-25-9.9-36.2c-3-6.5-6.6-12.7-10.8-18.4c0,0-4.2-6.8-0.8-18.7c3.3-11.9,7.8-21.6-4.1-32.9
		L202.4,110.4z"/>
	<path class="st1" d="M203.3,110.6c0,0,16.5,5.3,16.5,20.6l-0.6,49.4"/>
	<line class="st1" x1="187.2" y1="129.1" x2="187.2" y2="161.3"/>
	<polyline class="st1" points="171.3,122.3 177.4,136.3 187.2,129.1 	"/>
	<polyline class="st1" points="202.5,122.3 196.5,136.3 187.2,129.1 	"/>
	<path class="st1" d="M204.4,84.4c0,11.9-7.9,21.5-17.6,21.5c-9.7,0-17.6-9.6-17.6-21.5"/>
	<path class="st1" d="M164,86.6c0,0,14.3-5.6,22.7-16.1"/>
	<path class="st1" d="M181.9,63.1c0,0,12.7,15.8,27.5,23.5"/>
	<path class="st1" d="M187.2,52c-22.8-2.7-31.8,30.5-28.7,52.6H178"/>
	<path class="st1" d="M196.4,104.6h19.5C219,82.5,210,49.3,187.2,52"/>
	<path class="st1" d="M187.2,116c-7.3,0-10.3-5.3-10.3-5.3"/>
	<path class="st1" d="M197.5,110.6c0.6,0-3.5,5.3-10.3,5.3"/>
</g>
</svg>
