<?xml version="1.0" encoding="utf-8"?>
<!-- Generator: Adobe Illustrator 23.0.2, SVG Export Plug-In . SVG Version: 6.00 Build 0)  -->
<svg version="1.1" id="Intern" xmlns="http://www.w3.org/2000/svg" xmlns:xlink="http://www.w3.org/1999/xlink" x="0px" y="0px"
	 viewBox="0 0 370 370" style="enable-background:new 0 0 370 370;" xml:space="preserve">
<style type="text/css">
	.st0{fill:none;stroke:#29235C;stroke-width:2.8579;stroke-linecap:round;stroke-linejoin:round;stroke-miterlimit:10;}
	.st1{fill:#FFFFFF;}
	.st2{fill:none;stroke:#29235C;stroke-width:2.9068;stroke-linecap:round;stroke-linejoin:round;stroke-miterlimit:10;}
	.st3{fill:none;stroke:#29235C;stroke-width:2.9473;stroke-linecap:round;stroke-linejoin:round;stroke-miterlimit:10;}
	.st4{fill:none;stroke:#29235C;stroke-width:1.995;stroke-linecap:round;stroke-linejoin:round;stroke-miterlimit:10;}
	.st5{fill:#B0D2F0;}
</style>
<polyline class="st0" points="347.4,77.6 291.3,77.6 291.3,106.4 235.1,106.4 235.1,135.3 179,135.3 179,164.2 122.9,164.2 
	122.9,193 66.7,193 66.7,221.9 10.6,221.9 "/>
<rect x="207.3" y="128.5" class="st1" width="12.4" height="15.9"/>
<path class="st2" d="M98,93.3l3.1,5.3c1.2,2,3.8,2.7,5.8,1.6l5.9-3.4c2-1.2,2.7-3.8,1.6-5.8l-3.1-5.3c3.7-3.7,6.1-8.2,7.4-12.9h6.1
	c2.4,0,4.3-1.9,4.3-4.3v-6.8c0-2.4-1.9-4.3-4.3-4.3h-6.1c-1.3-4.7-3.7-9.1-7.4-12.9l3.1-5.3c1.2-2,0.5-4.7-1.6-5.8l-5.9-3.4
	c-2-1.2-4.7-0.5-5.8,1.6L98,37.1c-4.9-1.3-10-1.3-14.8,0l-3.1-5.3c-1.2-2-3.8-2.7-5.8-1.6l-5.9,3.4c-2,1.2-2.7,3.8-1.6,5.8l3,5.3
	c-3.7,3.7-6.1,8.2-7.4,12.9h-6.1c-2.4,0-4.3,1.9-4.3,4.3v6.8c0,2.4,1.9,4.3,4.3,4.3h6.1c1.3,4.7,3.7,9.1,7.4,12.9l-3,5.3
	c-1.2,2-0.5,4.7,1.6,5.8l5.9,3.4c2,1.2,4.7,0.5,5.8-1.6l3.1-5.3C88,94.6,93.1,94.6,98,93.3z"/>
<path class="st2" d="M95.8,59.9c-2.9-2.9-7.6-2.9-10.5,0s-2.9,7.6,0,10.5s7.6,2.9,10.5,0C98.7,67.6,98.7,62.9,95.8,59.9z"/>
<g>
	<path class="st3" d="M162.7,124.7h-60c-7.9,0-14.3-6.6-14.3-14.7l83.1-0.4"/>
	<g>
		<path class="st2" d="M225.7,170.3"/>
	</g>
</g>
<g>
	<line class="st4" x1="217.7" y1="190.8" x2="217.7" y2="207.6"/>
	<path class="st5" d="M207,286.9c1.2,3.4-0.8,6.2-4.4,6.2h-30.1c-3.6,0-5.6-2.8-4.3-6.2l0.5-1.5c1.2-3.4,5.2-6.2,8.8-6.2h20.3
		c3.6,0,7.5,2.8,8.7,6.2L207,286.9z"/>
	<path class="st2" d="M207,286.9c1.2,3.4-0.8,6.2-4.4,6.2h-30.1c-3.6,0-5.6-2.8-4.3-6.2l0.5-1.5c1.2-3.4,5.2-6.2,8.8-6.2h20.3
		c3.6,0,7.5,2.8,8.7,6.2L207,286.9z"/>
	<line class="st2" x1="169" y1="225.8" x2="172.8" y2="279.1"/>
	<line class="st2" x1="206.2" y1="225.9" x2="202.4" y2="279.3"/>
	<line class="st2" x1="187.7" y1="228.5" x2="187.7" y2="286.6"/>
	<path class="st5" d="M202.4,109.6c0,8.1-6.8,14.6-15.3,14.6c-8.4,0-15.3-6.6-15.3-14.6c-11.9,11.3-7.4,21-4.1,32.9
		c3.3,11.9-0.8,18.7-0.8,18.7c-4.1,5.8-7.7,11.9-10.8,18.4c-5.2,11.2-8.6,23.4-9.9,36.2c11.8,7.7,25.8,12.3,41,12.3l0.6,0.1
		c15.1,0,29.2-4.5,41-12.3c-1.3-12.8-4.7-25-9.9-36.2c-3-6.5-6.6-12.7-10.8-18.4c0,0-4.2-6.8-0.8-18.7c3.3-11.9,7.8-21.6-4.1-32.9
		L202.4,109.6z"/>
	<path class="st2" d="M202.4,109.6c0,8.1-6.8,14.6-15.3,14.6c-8.4,0-15.3-6.6-15.3-14.6c-11.9,11.3-7.4,21-4.1,32.9
		c3.3,11.9-0.8,18.7-0.8,18.7c-4.1,5.8-7.7,11.9-10.8,18.4c-5.2,11.2-8.6,23.4-9.9,36.2c11.8,7.7,25.8,12.3,41,12.3l0.6,0.1
		c15.1,0,29.2-4.5,41-12.3c-1.3-12.8-4.7-25-9.9-36.2c-3-6.5-6.6-12.7-10.8-18.4c0,0-4.2-6.8-0.8-18.7c3.3-11.9,7.8-21.6-4.1-32.9
		L202.4,109.6z"/>
	<path class="st2" d="M203.3,109.8c0,0,16.5,5.3,16.5,20.6l-0.6,49.4"/>
	<line class="st2" x1="187.2" y1="128.3" x2="187.2" y2="160.5"/>
	<polyline class="st2" points="171.3,121.5 177.4,135.5 187.2,128.3 	"/>
	<polyline class="st2" points="202.5,121.5 196.5,135.5 187.2,128.3 	"/>
	<path class="st2" d="M204.4,83.6c0,11.9-7.9,21.5-17.6,21.5c-9.7,0-17.6-9.6-17.6-21.5"/>
	<path class="st2" d="M164,85.8c0,0,14.3-5.6,22.7-16.1"/>
	<path class="st2" d="M181.9,62.3c0,0,12.7,15.8,27.5,23.5"/>
	<path class="st2" d="M187.2,51.2c-22.8-2.7-31.8,30.5-28.7,52.6H178"/>
	<path class="st2" d="M196.4,103.8h19.5c3.1-22.1-5.8-55.3-28.7-52.6"/>
	<path class="st2" d="M187.2,115.2c-7.3,0-10.3-5.3-10.3-5.3"/>
	<path class="st2" d="M197.5,109.8c0.6,0-3.5,5.3-10.3,5.3"/>
</g>
</svg>
