<?xml version="1.0" encoding="utf-8"?>
<!-- Generator: Adobe Illustrator 23.0.2, SVG Export Plug-In . SVG Version: 6.00 Build 0)  -->
<svg version="1.1" xmlns="http://www.w3.org/2000/svg" xmlns:xlink="http://www.w3.org/1999/xlink" x="0px" y="0px"
	 viewBox="0 0 370 370" style="enable-background:new 0 0 370 370;" xml:space="preserve">
<style type="text/css">
	.st0{fill:none;stroke:#29235C;stroke-width:2.9473;stroke-linecap:round;stroke-linejoin:round;stroke-miterlimit:10;}
	.st1{fill:none;stroke:#29235C;stroke-width:2.7942;stroke-linecap:round;stroke-linejoin:round;stroke-miterlimit:10;}
	.st2{fill:#FFFFFF;stroke:#29235C;stroke-width:2.9473;stroke-linecap:round;stroke-linejoin:round;stroke-miterlimit:10;}
	.st3{fill:#B0D2F0;}
	.st4{fill:none;stroke:#29235C;stroke-width:2.9068;stroke-linecap:round;stroke-linejoin:round;stroke-miterlimit:10;}
	.st5{fill:none;stroke:#29235C;stroke-width:1.995;stroke-linecap:round;stroke-linejoin:round;stroke-miterlimit:10;}
</style>
<g id="Layer_2">
</g>
<g id="Klant__x26__markt_vrouw">
	<line class="st0" x1="11.2" y1="221.9" x2="358.4" y2="221.9"/>
	<g>
		<rect x="249.7" y="57.4" class="st0" width="68.1" height="103.6"/>
		<line class="st0" x1="314.5" y1="242.7" x2="295.3" y2="161.8"/>
		<line class="st0" x1="255.4" y1="242.7" x2="274.6" y2="161.8"/>
		<line class="st0" x1="284.9" y1="160.9" x2="284.9" y2="242.7"/>
		<g>
			<ellipse class="st0" cx="285.4" cy="130.1" rx="20.6" ry="20.6"/>
		</g>
		<polyline class="st0" points="304,122.6 285,130 305.9,130 		"/>
		<polyline class="st0" points="267.3,139.6 285,129.8 274.8,112.6 		"/>
		<rect x="263.3" y="80.9" class="st0" width="6.6" height="18.4"/>
		<rect x="274.6" y="83" class="st0" width="6.6" height="16.4"/>
		<rect x="285.9" y="74.1" class="st0" width="6.6" height="25.2"/>
		<rect x="297.1" y="68.8" class="st0" width="6.6" height="30.5"/>
	</g>
	<path class="st0" d="M103.2,117.4"/>
	<rect x="65.4" y="66.4" class="st0" width="38.6" height="59"/>
	<line class="st1" x1="82" y1="81.5" x2="96.6" y2="81.5"/>
	<line class="st1" x1="82" y1="92.7" x2="96.6" y2="92.7"/>
	<line class="st1" x1="82" y1="103.8" x2="96.6" y2="103.8"/>
	<polyline class="st0" points="71.8,79 73.9,81.5 77.2,76.6 	"/>
	<polyline class="st0" points="71.8,90.9 73.9,93.3 77.2,88.4 	"/>
	<polyline class="st0" points="71.8,101.3 73.9,103.8 77.2,98.9 	"/>
	<rect x="73.4" y="62.3" class="st2" width="23.7" height="7.3"/>
	<g>
		<path class="st0" d="M163.4,125.4h-60c-7.9,0-14.3-6.6-14.3-14.7l83.1-0.4"/>
	</g>
	<g>
		<rect x="210.1" y="209.4" class="st3" width="15.2" height="51.6"/>
		<rect x="210.1" y="216.6" class="st4" width="15.7" height="44.4"/>
		<line class="st5" x1="217.9" y1="191" x2="217.9" y2="207.7"/>
		<path class="st3" d="M207.2,287c1.2,3.4-0.8,6.2-4.4,6.2h-30.1c-3.6,0-5.6-2.8-4.3-6.2l0.6-1.5c1.2-3.4,5.2-6.2,8.8-6.2H198
			c3.6,0,7.5,2.8,8.7,6.2L207.2,287z"/>
		<path class="st4" d="M207.2,287c1.2,3.4-0.8,6.2-4.4,6.2h-30.1c-3.6,0-5.6-2.8-4.3-6.2l0.6-1.5c1.2-3.4,5.2-6.2,8.8-6.2H198
			c3.6,0,7.5,2.8,8.7,6.2L207.2,287z"/>
		<line class="st4" x1="169.2" y1="225.9" x2="173" y2="279.3"/>
		<line class="st4" x1="206.4" y1="226.1" x2="202.6" y2="279.4"/>
		<line class="st4" x1="187.9" y1="228.7" x2="187.9" y2="286.7"/>
		<path class="st3" d="M202.6,109.8c0,8.1-6.8,14.7-15.3,14.7c-8.4,0-15.3-6.6-15.3-14.7c-11.9,11.3-7.4,21-4.1,32.9
			s-0.8,18.7-0.8,18.7c-4.1,5.8-7.7,11.9-10.8,18.4c-5.2,11.2-8.6,23.4-9.9,36.2c11.8,7.8,25.8,12.3,41,12.3l0.6,0.1
			c15.1,0,29.2-4.5,41-12.3c-1.3-12.8-4.7-25-9.9-36.2c-3-6.5-6.6-12.7-10.8-18.4c0,0-4.2-6.8-0.8-18.7s7.8-21.6-4.1-32.9
			L202.6,109.8z"/>
		<path class="st4" d="M202.6,109.8c0,8.1-6.8,14.7-15.3,14.7c-8.4,0-15.3-6.6-15.3-14.7c-11.9,11.3-7.4,21-4.1,32.9
			s-0.8,18.7-0.8,18.7c-4.1,5.8-7.7,11.9-10.8,18.4c-5.2,11.2-8.6,23.4-9.9,36.2c11.8,7.8,25.8,12.3,41,12.3l0.6,0.1
			c15.1,0,29.2-4.5,41-12.3c-1.3-12.8-4.7-25-9.9-36.2c-3-6.5-6.6-12.7-10.8-18.4c0,0-4.2-6.8-0.8-18.7s7.8-21.6-4.1-32.9
			L202.6,109.8z"/>
		<path class="st4" d="M203.5,109.9c0,0,16.5,5.3,16.5,20.6l-0.6,49.4"/>
		<line class="st4" x1="187.4" y1="128.4" x2="187.4" y2="160.6"/>
		<polyline class="st4" points="171.5,121.7 177.6,135.6 187.4,128.4 		"/>
		<polyline class="st4" points="202.8,121.7 196.7,135.6 187.4,128.4 		"/>
		<path class="st4" d="M204.6,83.8c0,11.9-7.9,21.5-17.6,21.5s-17.6-9.6-17.6-21.5"/>
		<path class="st4" d="M164.2,86c0,0,14.3-5.6,22.7-16.1"/>
		<path class="st4" d="M182.1,62.4c0,0,12.7,15.8,27.5,23.5"/>
		<path class="st4" d="M187.4,51.3c-22.8-2.7-31.8,30.5-28.7,52.6h19.5"/>
		<path class="st4" d="M196.6,103.9h19.5c3.1-22.1-5.8-55.3-28.7-52.6"/>
		<path class="st4" d="M187.4,115.3c-7.3,0-10.3-5.3-10.3-5.3"/>
		<path class="st4" d="M197.7,110c0.6,0-3.5,5.3-10.3,5.3"/>
	</g>
</g>
</svg>
