<?xml version="1.0" encoding="utf-8"?>
<!-- Generator: Adobe Illustrator 23.0.2, SVG Export Plug-In . SVG Version: 6.00 Build 0)  -->
<svg version="1.1" xmlns="http://www.w3.org/2000/svg" xmlns:xlink="http://www.w3.org/1999/xlink" x="0px" y="0px"
	 viewBox="0 0 370 370" style="enable-background:new 0 0 370 370;" xml:space="preserve">
<style type="text/css">
	.st0{fill:none;stroke:#29235C;stroke-width:2.9068;stroke-linecap:round;stroke-linejoin:round;stroke-miterlimit:10;}
	.st1{fill:none;stroke:#29235C;stroke-width:3.1946;stroke-linecap:round;stroke-linejoin:round;stroke-miterlimit:10;}
	.st2{fill:#29235C;stroke:#29235C;stroke-width:3.1946;stroke-linecap:round;stroke-linejoin:round;stroke-miterlimit:10;}
	.st3{fill:#B0D2F0;}
	.st4{fill:none;stroke:#29235C;stroke-width:1.995;stroke-linecap:round;stroke-linejoin:round;stroke-miterlimit:10;}
</style>
<g id="Layer_2">
</g>
<g id="Communicatie_vrouw">
	<line class="st0" x1="14" y1="222.1" x2="356.4" y2="222.1"/>
	<g>
		<path class="st0" d="M226.1,170.5"/>
	</g>
	<g>
		<path class="st1" d="M253.4,66.6c-15.7,0-26.7,9.7-26.7,21.7c0,7.7,3.5,14.4,11.3,18.2v12.4l13.6-9c0.6,0,1.2,0.1,1.8,0.1
			c15.7,0,26.7-9.7,26.7-21.7S269,66.6,253.4,66.6z"/>
		<circle class="st2" cx="265.7" cy="88.6" r="0.9"/>
		<path class="st2" d="M254.2,88.6c0,0.5-0.4,0.8-0.9,0.8s-0.9-0.4-0.9-0.8s0.4-0.8,0.9-0.8S254.2,88.1,254.2,88.6z"/>
		<path class="st2" d="M241.9,88.6c0,0.5-0.4,0.8-0.9,0.8s-0.9-0.4-0.9-0.8s0.4-0.8,0.9-0.8S241.9,88.1,241.9,88.6z"/>
	</g>
	<g>
		<path class="st0" d="M110.1,35.5c24.1,0,40.9,14.9,40.9,33.3c0,11.8-5.3,22.1-17.4,28v19l-20.8-13.8c-0.9,0.1-1.8,0.1-2.7,0.1
			c-24,0-40.9-14.9-40.9-33.3C69.2,50.4,86.1,35.5,110.1,35.5z"/>
		<g>
			<line class="st0" x1="129.3" y1="56.8" x2="91" y2="56.8"/>
			<line class="st0" x1="129.3" y1="69.3" x2="91" y2="69.3"/>
			<line class="st0" x1="129.3" y1="81.7" x2="110.1" y2="81.7"/>
		</g>
	</g>
	<g>
		<rect x="210.4" y="210.1" class="st3" width="15.2" height="51.6"/>
		<rect x="210.4" y="217.3" class="st0" width="15.7" height="44.4"/>
		<line class="st4" x1="218.2" y1="191.6" x2="218.2" y2="208.4"/>
		<path class="st3" d="M207.4,287.6c1.2,3.4-0.8,6.2-4.4,6.2h-30.1c-3.6,0-5.6-2.8-4.3-6.2l0.6-1.5c1.2-3.4,5.2-6.2,8.8-6.2h20.3
			c3.6,0,7.5,2.8,8.7,6.2L207.4,287.6z"/>
		<path class="st0" d="M207.4,287.6c1.2,3.4-0.8,6.2-4.4,6.2h-30.1c-3.6,0-5.6-2.8-4.3-6.2l0.6-1.5c1.2-3.4,5.2-6.2,8.8-6.2h20.3
			c3.6,0,7.5,2.8,8.7,6.2L207.4,287.6z"/>
		<line class="st0" x1="169.5" y1="226.6" x2="173.2" y2="279.9"/>
		<line class="st0" x1="206.7" y1="226.7" x2="202.9" y2="280"/>
		<line class="st0" x1="188.2" y1="229.3" x2="188.2" y2="287.4"/>
		<path class="st3" d="M202.9,110.4c0,8.1-6.8,14.7-15.3,14.7s-15.3-6.6-15.3-14.7c-11.9,11.3-7.4,21-4.1,32.9s-0.8,18.7-0.8,18.7
			c-4.1,5.8-7.7,11.9-10.8,18.4c-5.2,11.2-8.6,23.4-9.9,36.2c11.8,7.8,25.8,12.3,41,12.3l0.6,0.1c15.1,0,29.2-4.5,41-12.3
			c-1.3-12.8-4.7-25-9.9-36.2c-3-6.5-6.6-12.7-10.8-18.4c0,0-4.2-6.8-0.8-18.7s7.8-21.6-4.1-32.9L202.9,110.4z"/>
		<path class="st0" d="M202.9,110.4c0,8.1-6.8,14.7-15.3,14.7s-15.3-6.6-15.3-14.7c-11.9,11.3-7.4,21-4.1,32.9s-0.8,18.7-0.8,18.7
			c-4.1,5.8-7.7,11.9-10.8,18.4c-5.2,11.2-8.6,23.4-9.9,36.2c11.8,7.8,25.8,12.3,41,12.3l0.6,0.1c15.1,0,29.2-4.5,41-12.3
			c-1.3-12.8-4.7-25-9.9-36.2c-3-6.5-6.6-12.7-10.8-18.4c0,0-4.2-6.8-0.8-18.7s7.8-21.6-4.1-32.9L202.9,110.4z"/>
		<path class="st0" d="M172.4,110.4c0,0-16.5,5.3-16.5,20.6l0.6,49.4"/>
		<path class="st0" d="M203.8,110.5c0,0,16.5,5.3,16.5,20.5l-0.6,49.4"/>
		<line class="st0" x1="187.6" y1="129" x2="187.6" y2="161.3"/>
		<polyline class="st0" points="171.8,122.3 177.9,136.2 187.6,129 		"/>
		<polyline class="st0" points="203,122.3 197,136.2 187.6,129 		"/>
		<path class="st0" d="M204.9,84.4c0,11.9-7.9,21.5-17.6,21.5s-17.6-9.6-17.6-21.5"/>
		<path class="st0" d="M164.5,86.6c0,0,14.3-5.6,22.7-16.1"/>
		<path class="st0" d="M182.4,63.1c0,0,12.7,15.8,27.5,23.5"/>
		<path class="st0" d="M187.7,52c-22.8-2.7-31.8,30.5-28.7,52.6h19.5"/>
		<path class="st0" d="M196.9,104.6h19.5c3.1-22.1-5.8-55.3-28.7-52.6"/>
		<path class="st0" d="M187.6,115.9c-7.3,0-10.3-5.3-10.3-5.3"/>
		<path class="st0" d="M198,110.6c0.6,0-3.5,5.3-10.3,5.3"/>
	</g>
</g>
</svg>
