<?xml version="1.0" encoding="utf-8"?>
<!-- Generator: Adobe Illustrator 23.0.2, SVG Export Plug-In . SVG Version: 6.00 Build 0)  -->
<svg version="1.1" id="Intern" xmlns="http://www.w3.org/2000/svg" xmlns:xlink="http://www.w3.org/1999/xlink" x="0px" y="0px"
	 viewBox="0 0 370 370" style="enable-background:new 0 0 370 370;" xml:space="preserve">
<style type="text/css">
	.st0{fill:none;}
	.st1{fill:none;stroke:#29235C;stroke-width:2.9068;stroke-linecap:round;stroke-linejoin:round;stroke-miterlimit:10;}
	.st2{fill:none;stroke:#29235C;stroke-width:3.1946;stroke-linecap:round;stroke-linejoin:round;stroke-miterlimit:10;}
	.st3{fill:none;stroke:#29235C;stroke-width:1.995;stroke-linecap:round;stroke-linejoin:round;stroke-miterlimit:10;}
	.st4{fill:#B0D2F0;}
</style>
<line class="st0" x1="163" y1="188.1" x2="211.9" y2="188.1"/>
<path class="st1" d="M163.5,142.6"/>
<path class="st1" d="M225.7,171.1"/>
<path class="st1" d="M202.6,110.4l77.2,0.4c0,8.5-6.7,15.4-15,15.4H212l-0.9-0.1"/>
<path class="st1" d="M148.7,166.6"/>
<line class="st1" x1="163.7" y1="223.1" x2="15.7" y2="223.1"/>
<g>
	<path class="st1" d="M268.3,93.1v10.1c0,1.8,1.5,3.2,3.2,3.2h12.4c1.8,0,3.2-1.5,3.2-3.2v-5 M247.1,90.8c0,1.8-1.4,3.2-3.2,3.2
		s-3.2-1.4-3.2-3.2V73.3c0-1.8,1.4-3.2,3.2-3.2s3.2,1.4,3.2,3.2v17.9 M247.1,91.5l9.8-1.5V74.1l-9.8-1.5 M310.4,96.8V59.2
		c0-1.5,1.2-2.8,2.8-2.8c1.5,0,2.8,1.2,2.8,2.8v45.7c0,1.5-1.2,2.8-2.8,2.8c-1.5,0-2.8-1.2-2.8-2.8v-9"/>
	<polyline class="st1" points="310.4,60.4 256.9,74.1 256.9,82.1 256.9,90.1 310.4,103.8 	"/>
</g>
<line class="st1" x1="362.8" y1="223.1" x2="214.8" y2="223.1"/>
<g>
	<path class="st2" d="M244.6,17.3c-15.7,0-26.7,9.7-26.7,21.7c0,7.7,3.5,14.4,11.3,18.2v12.4l13.6-9c0.6,0,1.2,0.1,1.8,0.1
		c15.7,0,26.7-9.7,26.7-21.7C271.2,27.1,260.2,17.3,244.6,17.3z"/>
	<circle class="st2" cx="256.9" cy="39.3" r="0.9"/>
	<circle class="st2" cx="244.6" cy="39.3" r="0.9"/>
	<circle class="st2" cx="232.2" cy="39.3" r="0.9"/>
</g>
<g>
	<path class="st1" d="M110.9,11.7c24,0,40.9,14.9,40.9,33.3c0,11.8-5.3,22.1-17.3,28v19l-20.8-13.8c-0.9,0-1.8,0.1-2.7,0.1
		C86.8,78.4,70,63.4,70,45S86.8,11.7,110.9,11.7z"/>
	<g>
		<line class="st1" x1="130" y1="33" x2="91.7" y2="33"/>
		<line class="st1" x1="130" y1="45.5" x2="91.7" y2="45.5"/>
		<line class="st1" x1="130" y1="57.9" x2="110.9" y2="57.9"/>
	</g>
</g>
<g>
	<line class="st3" x1="217.7" y1="191.6" x2="217.7" y2="208.4"/>
	<path class="st4" d="M207,287.7c1.2,3.4-0.8,6.2-4.4,6.2h-30.1c-3.6,0-5.6-2.8-4.3-6.2l0.5-1.5c1.2-3.4,5.2-6.2,8.8-6.2h20.3
		c3.6,0,7.5,2.8,8.7,6.2L207,287.7z"/>
	<path class="st1" d="M207,287.7c1.2,3.4-0.8,6.2-4.4,6.2h-30.1c-3.6,0-5.6-2.8-4.3-6.2l0.5-1.5c1.2-3.4,5.2-6.2,8.8-6.2h20.3
		c3.6,0,7.5,2.8,8.7,6.2L207,287.7z"/>
	<line class="st1" x1="169" y1="226.6" x2="172.8" y2="279.9"/>
	<line class="st1" x1="206.2" y1="226.7" x2="202.4" y2="280.1"/>
	<line class="st1" x1="187.7" y1="229.3" x2="187.7" y2="287.4"/>
	<path class="st4" d="M202.4,110.4c0,8.1-6.8,14.6-15.3,14.6c-8.4,0-15.3-6.6-15.3-14.6c-11.9,11.3-7.4,21-4.1,32.9
		c3.3,11.9-0.8,18.7-0.8,18.7c-4.1,5.8-7.7,11.9-10.8,18.4c-5.2,11.2-8.6,23.4-9.9,36.2c11.8,7.7,25.8,12.3,41,12.3l0.6,0.1
		c15.1,0,29.2-4.5,41-12.3c-1.3-12.8-4.7-25-9.9-36.2c-3-6.5-6.6-12.7-10.8-18.4c0,0-4.2-6.8-0.8-18.7c3.3-11.9,7.8-21.6-4.1-32.9
		L202.4,110.4z"/>
	<path class="st1" d="M202.4,110.4c0,8.1-6.8,14.6-15.3,14.6c-8.4,0-15.3-6.6-15.3-14.6c-11.9,11.3-7.4,21-4.1,32.9
		c3.3,11.9-0.8,18.7-0.8,18.7c-4.1,5.8-7.7,11.9-10.8,18.4c-5.2,11.2-8.6,23.4-9.9,36.2c11.8,7.7,25.8,12.3,41,12.3l0.6,0.1
		c15.1,0,29.2-4.5,41-12.3c-1.3-12.8-4.7-25-9.9-36.2c-3-6.5-6.6-12.7-10.8-18.4c0,0-4.2-6.8-0.8-18.7c3.3-11.9,7.8-21.6-4.1-32.9
		L202.4,110.4z"/>
	<path class="st1" d="M171.9,110.4c0,0-16.5,5.3-16.5,20.6l0.6,49.4"/>
	<line class="st1" x1="187.2" y1="129.1" x2="187.2" y2="161.3"/>
	<polyline class="st1" points="171.3,122.3 177.4,136.3 187.2,129.1 	"/>
	<polyline class="st1" points="202.5,122.3 196.5,136.3 187.2,129.1 	"/>
	<path class="st1" d="M204.4,84.4c0,11.9-7.9,21.5-17.6,21.5c-9.7,0-17.6-9.6-17.6-21.5"/>
	<path class="st1" d="M164,86.6c0,0,14.3-5.6,22.7-16.1"/>
	<path class="st1" d="M181.9,63.1c0,0,12.7,15.8,27.5,23.5"/>
	<path class="st1" d="M187.2,52c-22.8-2.7-31.8,30.5-28.7,52.6H178"/>
	<path class="st1" d="M196.4,104.6h19.5C219,82.5,210,49.3,187.2,52"/>
	<path class="st1" d="M187.2,116c-7.3,0-10.3-5.3-10.3-5.3"/>
	<path class="st1" d="M197.5,110.6c0.6,0-3.5,5.3-10.3,5.3"/>
</g>
</svg>
