<?xml version="1.0" encoding="utf-8"?>
<!-- Generator: Adobe Illustrator 23.0.2, SVG Export Plug-In . SVG Version: 6.00 Build 0)  -->
<svg version="1.1" xmlns="http://www.w3.org/2000/svg" xmlns:xlink="http://www.w3.org/1999/xlink" x="0px" y="0px"
	 viewBox="0 0 370 370" style="enable-background:new 0 0 370 370;" xml:space="preserve">
<style type="text/css">
	.st0{fill:none;stroke:#29235C;stroke-width:2.9068;stroke-linecap:round;stroke-linejoin:round;stroke-miterlimit:10;}
	.st1{fill:#FFFFFF;}
	.st2{fill:none;stroke:#29235C;stroke-width:2.9473;stroke-linecap:round;stroke-linejoin:round;stroke-miterlimit:10;}
	.st3{fill:none;stroke:#29235C;stroke-width:1.995;stroke-linecap:round;stroke-linejoin:round;stroke-miterlimit:10;}
	.st4{fill:#B0D2F0;}
</style>
<g id="Layer_2">
</g>
<g id="Leiderschap_vrouw">
	<polyline class="st0" points="207.3,110.3 236,79 259.9,110.7 	"/>
	<polygon class="st1" points="203,103.9 216.5,104 216.5,96.9 212,95.9 207,100 	"/>
	<path class="st0" d="M226.1,170.5"/>
	<line class="st0" x1="265.1" y1="256" x2="265.1" y2="94.3"/>
	<path class="st0" d="M265.2,115.8"/>
	<path class="st0" d="M265.2,130.1"/>
	<path class="st0" d="M340.6,91.6c0,0-5.9,10-23.5,10c-16.9,0-17.8-14.4-33.7-14.4c-12.2,0-18.3,7.1-18.3,7.1V49.6
		c0,0,6.1-7.1,18.3-7.1c16,0,16.8,14.4,33.7,14.4c17.5,0,23.5-10,23.5-10V91.6z"/>
	<polyline class="st0" points="164,222.5 16,222.5 92.3,138.5 136.3,179.5 156.3,158.3 	"/>
	<polyline class="st0" points="271.1,125.6 344,222.5 212.1,222.5 	"/>
	<g>
		<path class="st0" d="M94.5,73.4l-3.9-3.9 M123.8,102.7l-3.9-3.9 M123.8,69.5l-3.9,3.9 M130.7,86.1h-5.5 M107.2,62.6v5.5
			 M115.9,94.8c2.2-2.2,3.6-5.3,3.6-8.7c0-6.8-5.5-12.3-12.3-12.3c-3.7,0-7,1.7-9.3,4.3 M100.6,109.3c5.7,0,10.2-4.6,10.2-10.2
			c0-5.7-4.6-10.2-10.2-10.2c-3.1,0-5.8,1.3-7.7,3.5 M72.3,91.8c0.1,0,0.2,0,0.3,0c1.5-6.2,7.1-10.7,13.7-10.7
			c5.6,0,10.3,3.2,12.6,7.9c0.5-0.1,1-0.1,1.6-0.1c5.7,0,10.2,4.6,10.2,10.2c0,5.7-4.6,10.2-10.2,10.2H72.3c-4.8,0-8.8-3.9-8.8-8.8
			C63.6,95.8,67.5,91.8,72.3,91.8z"/>
	</g>
	<g>
		<path class="st2" d="M213.9,125.5h60c7.9,0,14.3-6.6,14.3-14.7l-83.1-0.4"/>
		<line class="st3" x1="218.3" y1="191" x2="218.3" y2="207.8"/>
		<path class="st4" d="M207.6,287.1c1.2,3.4-0.8,6.2-4.4,6.2H173c-3.6,0-5.6-2.8-4.3-6.2l0.6-1.5c1.2-3.4,5.2-6.2,8.8-6.2h20.3
			c3.6,0,7.5,2.8,8.7,6.2L207.6,287.1z"/>
		<path class="st0" d="M207.6,287.1c1.2,3.4-0.8,6.2-4.4,6.2H173c-3.6,0-5.6-2.8-4.3-6.2l0.6-1.5c1.2-3.4,5.2-6.2,8.8-6.2h20.3
			c3.6,0,7.5,2.8,8.7,6.2L207.6,287.1z"/>
		<line class="st0" x1="169.6" y1="226" x2="173.4" y2="279.3"/>
		<line class="st0" x1="206.8" y1="226.1" x2="203" y2="279.5"/>
		<line class="st0" x1="188.3" y1="228.7" x2="188.3" y2="286.8"/>
		<path class="st4" d="M203,109.8c0,8.1-6.8,14.7-15.3,14.7s-15.3-6.6-15.3-14.7c-11.9,11.3-7.4,21-4.1,32.9s-0.8,18.7-0.8,18.7
			c-4.1,5.8-7.7,11.9-10.8,18.4c-5.2,11.2-8.6,23.4-9.9,36.2c11.8,7.8,25.8,12.3,41,12.3l0.6,0.1c15.1,0,29.2-4.5,41-12.3
			c-1.3-12.8-4.7-25-9.9-36.2c-3-6.5-6.6-12.7-10.8-18.4c0,0-4.2-6.8-0.8-18.7s7.8-21.6-4.1-32.9L203,109.8z"/>
		<path class="st0" d="M203,109.8c0,8.1-6.8,14.7-15.3,14.7s-15.3-6.6-15.3-14.7c-11.9,11.3-7.4,21-4.1,32.9s-0.8,18.7-0.8,18.7
			c-4.1,5.8-7.7,11.9-10.8,18.4c-5.2,11.2-8.6,23.4-9.9,36.2c11.8,7.8,25.8,12.3,41,12.3l0.6,0.1c15.1,0,29.2-4.5,41-12.3
			c-1.3-12.8-4.7-25-9.9-36.2c-3-6.5-6.6-12.7-10.8-18.4c0,0-4.2-6.8-0.8-18.7s7.8-21.6-4.1-32.9L203,109.8z"/>
		<path class="st0" d="M172.4,109.9c0,0-16.5,5.3-16.5,20.6l0.6,49.4"/>
		<line class="st0" x1="187.8" y1="128.5" x2="187.8" y2="160.7"/>
		<polyline class="st0" points="171.9,121.7 178,135.7 187.8,128.5 		"/>
		<polyline class="st0" points="203.1,121.7 197.1,135.7 187.8,128.5 		"/>
		<path class="st0" d="M205,83.8c0,11.9-7.9,21.5-17.6,21.5s-17.6-9.6-17.6-21.5"/>
		<path class="st0" d="M164.6,86c0,0,14.3-5.6,22.7-16.1"/>
		<path class="st0" d="M182.5,62.5c0,0,12.7,15.8,27.5,23.5"/>
		<path class="st0" d="M187.8,51.4c-22.8-2.7-31.8,30.5-28.7,52.6h19.5"/>
		<path class="st0" d="M197,104h19.5c3.1-22.1-5.8-55.3-28.7-52.6"/>
		<path class="st0" d="M187.8,115.4c-7.3,0-10.3-5.3-10.3-5.3"/>
		<path class="st0" d="M198.1,110c0.6,0-3.5,5.3-10.3,5.3"/>
	</g>
</g>
</svg>
