<?xml version="1.0" encoding="utf-8"?>
<!-- Generator: Adobe Illustrator 23.0.2, SVG Export Plug-In . SVG Version: 6.00 Build 0)  -->
<svg version="1.1" xmlns="http://www.w3.org/2000/svg" xmlns:xlink="http://www.w3.org/1999/xlink" x="0px" y="0px"
	 viewBox="0 0 370 370" style="enable-background:new 0 0 370 370;" xml:space="preserve">
<style type="text/css">
	.st0{fill:none;stroke:#29235C;stroke-width:2.9068;stroke-linecap:round;stroke-linejoin:round;stroke-miterlimit:10;}
	.st1{fill:#B0D2F0;}
	.st2{fill:none;stroke:#29235C;stroke-width:1.995;stroke-linecap:round;stroke-linejoin:round;stroke-miterlimit:10;}
</style>
<g id="Layer_2">
</g>
<g id="Basis_vrouw">
	<line class="st0" x1="14" y1="222.1" x2="356.4" y2="222.1"/>
	<g id="Schilderij_2_kopie">
	</g>
	<g>
		<path class="st0" d="M156,171.6h-14.1 M116.8,171.6H31.7v49.9 M147.3,188.3v33.3 M121.5,188.3v33.3 M95.8,188.3v33.3 M70,188.3
			v33.3 M104.6,171.6v-6 M60.1,171.6v-6 M116.8,171.6h25 M47.8,165.1h69v-26.1h-69V165.1z M164,188.3H43.6v33.3"/>
	</g>
	<line class="st0" x1="219.3" y1="200.1" x2="219.3" y2="216.3"/>
	<g>
		<path class="st0" d="M286.5,114.4l-3.9-3.9 M315.8,143.7l-3.9-3.9 M315.8,110.5l-3.9,3.9 M322.7,127.1h-5.5 M299.2,103.6v5.5
			 M307.9,135.8c2.2-2.2,3.6-5.3,3.6-8.7c0-6.8-5.5-12.3-12.3-12.3c-3.7,0-7,1.7-9.3,4.3 M292.5,150.3c5.6,0,10.2-4.6,10.2-10.2
			s-4.6-10.2-10.2-10.2c-3.1,0-5.8,1.4-7.7,3.5 M264.3,132.8c0.1,0,0.2,0,0.3,0c1.5-6.2,7.1-10.7,13.7-10.7c5.5,0,10.3,3.2,12.6,7.9
			c0.5-0.1,1-0.1,1.6-0.1c5.6,0,10.2,4.6,10.2,10.2c0,5.6-4.6,10.2-10.2,10.2h-28.2c-4.8,0-8.8-3.9-8.8-8.8S259.5,132.8,264.3,132.8
			z"/>
	</g>
	<polyline class="st0" points="220,170.5 309.5,170.5 309.5,222.1 	"/>
	<rect x="262.8" y="188" class="st0" width="26.4" height="33.9"/>
	<g>
		<rect x="210.3" y="209.5" class="st1" width="15.2" height="51.6"/>
		<rect x="210.3" y="216.7" class="st0" width="15.7" height="44.4"/>
		<line class="st2" x1="218.1" y1="191.1" x2="218.1" y2="207.8"/>
		<path class="st1" d="M207.3,287.1c1.2,3.4-0.8,6.2-4.4,6.2h-30.1c-3.6,0-5.6-2.8-4.3-6.2l0.6-1.5c1.2-3.4,5.2-6.2,8.8-6.2h20.3
			c3.6,0,7.5,2.8,8.7,6.2L207.3,287.1z"/>
		<path class="st0" d="M207.3,287.1c1.2,3.4-0.8,6.2-4.4,6.2h-30.1c-3.6,0-5.6-2.8-4.3-6.2l0.6-1.5c1.2-3.4,5.2-6.2,8.8-6.2h20.3
			c3.6,0,7.5,2.8,8.7,6.2L207.3,287.1z"/>
		<line class="st0" x1="169.4" y1="226" x2="173.1" y2="279.4"/>
		<line class="st0" x1="206.6" y1="226.1" x2="202.8" y2="279.5"/>
		<line class="st0" x1="188.1" y1="228.8" x2="188.1" y2="286.8"/>
		<path class="st1" d="M202.8,109.8c0,8.1-6.8,14.7-15.3,14.7c-8.4,0-15.3-6.6-15.3-14.7c-11.9,11.3-7.4,21-4.1,32.9
			s-0.8,18.7-0.8,18.7c-4.1,5.8-7.7,11.9-10.8,18.4c-5.2,11.2-8.6,23.4-9.9,36.2c11.8,7.8,25.8,12.3,41,12.3l0.6,0.1
			c15.1,0,29.2-4.5,41-12.3c-1.3-12.8-4.7-25-9.9-36.2c-3-6.5-6.6-12.7-10.8-18.4c0,0-4.2-6.8-0.8-18.7s7.8-21.6-4.1-32.9
			L202.8,109.8z"/>
		<path class="st0" d="M202.8,109.8c0,8.1-6.8,14.7-15.3,14.7c-8.4,0-15.3-6.6-15.3-14.7c-11.9,11.3-7.4,21-4.1,32.9
			s-0.8,18.7-0.8,18.7c-4.1,5.8-7.7,11.9-10.8,18.4c-5.2,11.2-8.6,23.4-9.9,36.2c11.8,7.8,25.8,12.3,41,12.3l0.6,0.1
			c15.1,0,29.2-4.5,41-12.3c-1.3-12.8-4.7-25-9.9-36.2c-3-6.5-6.6-12.7-10.8-18.4c0,0-4.2-6.8-0.8-18.7s7.8-21.6-4.1-32.9
			L202.8,109.8z"/>
		<path class="st0" d="M172.3,109.8c0,0-16.5,5.3-16.5,20.6l0.6,49.4"/>
		<path class="st0" d="M203.7,110c0,0,16.5,5.3,16.5,20.5l-0.6,49.4"/>
		<line class="st0" x1="187.5" y1="128.5" x2="187.5" y2="160.7"/>
		<polyline class="st0" points="171.7,121.8 177.7,135.7 187.5,128.5 		"/>
		<polyline class="st0" points="202.9,121.8 196.9,135.7 187.5,128.5 		"/>
		<path class="st0" d="M204.8,83.9c0,11.9-7.9,21.5-17.6,21.5s-17.6-9.6-17.6-21.5"/>
		<path class="st0" d="M164.4,86.1c0,0,14.3-5.6,22.7-16.1"/>
		<path class="st0" d="M182.3,62.5c0,0,12.7,15.8,27.5,23.5"/>
		<path class="st0" d="M187.6,51.4c-22.8-2.7-31.8,30.5-28.7,52.6h19.5"/>
		<path class="st0" d="M196.8,104h19.5c3.1-22.1-5.8-55.3-28.7-52.6"/>
		<path class="st0" d="M187.5,115.4c-7.3,0-10.3-5.3-10.3-5.3"/>
		<path class="st0" d="M197.9,110.1c0.6,0-3.5,5.3-10.3,5.3"/>
	</g>
</g>
</svg>
