<?xml version="1.0" encoding="utf-8"?>
<!-- Generator: Adobe Illustrator 23.0.2, SVG Export Plug-In . SVG Version: 6.00 Build 0)  -->
<svg version="1.1" xmlns="http://www.w3.org/2000/svg" xmlns:xlink="http://www.w3.org/1999/xlink" x="0px" y="0px"
	 viewBox="0 0 370 370" style="enable-background:new 0 0 370 370;" xml:space="preserve">
<style type="text/css">
	.st0{fill:none;stroke:#29235C;stroke-width:2.8092;stroke-linecap:round;stroke-linejoin:round;stroke-miterlimit:10;}
	.st1{fill:#FFFFFF;}
	.st2{fill:none;stroke:#29235C;stroke-width:2.9068;stroke-linecap:round;stroke-linejoin:round;stroke-miterlimit:10;}
	.st3{fill:none;stroke:#29235C;stroke-width:2.7679;stroke-linecap:round;stroke-linejoin:round;stroke-miterlimit:10;}
	.st4{fill:none;stroke:#29235C;stroke-width:2.9473;stroke-linecap:round;stroke-linejoin:round;stroke-miterlimit:10;}
	.st5{fill:#B0D2F0;}
	.st6{fill:none;stroke:#29235C;stroke-width:1.995;stroke-linecap:round;stroke-linejoin:round;stroke-miterlimit:10;}
	.st7{fill:#FFFFFF;stroke:#29235C;stroke-width:2.8092;stroke-linecap:round;stroke-linejoin:round;stroke-miterlimit:10;}
</style>
<g id="Layer_2">
</g>
<g id="financieel_vrouw">
	<rect x="67.4" y="171.1" class="st0" width="270.6" height="14"/>
	<rect x="67.4" y="171.1" class="st0" width="270.6" height="14"/>
	<rect x="58.5" y="165.7" class="st0" width="290.4" height="5.4"/>
	<rect x="58.5" y="165.7" class="st0" width="290.4" height="5.4"/>
	<polygon class="st1" points="208.7,159.8 206,179.4 212.3,186 219.6,183.4 217.3,154.5 	"/>
	<g>
		<rect x="70.7" y="80" class="st0" width="54.1" height="31.1"/>
		<path class="st0" d="M124.8,86.4c-3.5,0-6.4-2.9-6.4-6.4"/>
		<path class="st0" d="M118.4,111.1c0-3.5,2.9-6.4,6.4-6.4"/>
		<path class="st0" d="M70.7,86.4c3.5,0,6.4-2.9,6.4-6.4"/>
		<path class="st0" d="M77.1,111.1c0-3.5-2.9-6.4-6.4-6.4"/>
	</g>
	<path class="st0" d="M103.5,89.9c-2.9-2.9-7.7-2.9-10.7,0s-2.9,7.7,0,10.7s7.7,2.9,10.7,0"/>
	<line class="st0" x1="86.9" y1="94.1" x2="97.6" y2="94.1"/>
	<line class="st0" x1="86.9" y1="97.7" x2="97.6" y2="97.7"/>
	<path class="st1" d="M155.2,201.6"/>
	<line class="st2" x1="14" y1="222.1" x2="356.4" y2="222.1"/>
	<rect x="251.5" y="186.5" class="st1" width="56" height="73"/>
	<rect x="91.5" y="186.5" class="st1" width="9" height="89"/>
	<rect x="290.4" y="141.3" class="st3" width="9.7" height="17.1"/>
	<path class="st3" d="M349.5,134.3c0,3.8-3.1,6.9-6.9,6.9h-94.6c-3.8,0-6.9-3.1-6.9-6.9V84.9c0-3.8,3.1-6.9,6.9-6.9h94.6
		c3.8,0,6.9,3.1,6.9,6.9V134.3z"/>
	<path class="st3" d="M349.5,134.3c0,3.8-3.1,6.9-6.9,6.9h-94.6c-3.8,0-6.9-3.1-6.9-6.9V84.9c0-3.8,3.1-6.9,6.9-6.9h94.6
		c3.8,0,6.9,3.1,6.9,6.9V134.3z"/>
	<path class="st3" d="M349.5,134.3c0,3.8-3.1,6.9-6.9,6.9h-94.6c-3.8,0-6.9-3.1-6.9-6.9v-9.6V84.9c0-3.8,3.1-6.9,6.9-6.9h94.6
		c3.8,0,6.9,3.1,6.9,6.9V134.3z"/>
	<path class="st3" d="M273,163.7V161c0-1.5,3.1-2.7,6.9-2.7H309c3.8,0,6.9,1.2,6.9,2.7v2.7"/>
	<path class="st3" d="M273,163.7V161c0-1.5,3.1-2.7,6.9-2.7H309c3.8,0,6.9,1.2,6.9,2.7v2.7"/>
	<path class="st3" d="M273,163.7V161c0-1.5,3.1-2.7,6.9-2.7H309c3.8,0,6.9,1.2,6.9,2.7v2.7"/>
	<rect x="92.3" y="185.2" class="st0" width="6.6" height="89.6"/>
	<rect x="308.8" y="185.2" class="st0" width="8.6" height="89.6"/>
	<rect x="252.3" y="185.2" class="st0" width="56.5" height="74"/>
	<rect x="252.3" y="185.2" class="st0" width="56.5" height="74"/>
	<line class="st0" x1="254" y1="205" x2="308.8" y2="205"/>
	<line class="st0" x1="254" y1="222.2" x2="308.8" y2="222.2"/>
	<path class="st3" d="M250.7,126.9l8.3-7.2l14.9,4.9l19.3-16.5l5,2.8l5-2.8l7.7,6.6c1.6-2.2,22.6-24.2,22.6-24.2"/>
	<path class="st3" d="M327,90.5"/>
	<g>
		<line class="st3" x1="333.9" y1="90" x2="333.9" y2="96.2"/>
		<line class="st3" x1="327.7" y1="90" x2="333.9" y2="90"/>
	</g>
	<path class="st3" d="M248,91.6"/>
	<polyline class="st3" points="250.7,87.2 250.7,132.4 332.7,132.4 	"/>
	<g>
		<path class="st4" d="M163.3,125.9h-60c-7.9,0-14.3-6.6-14.3-14.7l83.1-0.4"/>
	</g>
	<g>
		<rect x="210" y="209.9" class="st5" width="15.2" height="51.6"/>
		<rect x="210" y="217.1" class="st2" width="15.7" height="44.4"/>
		<line class="st6" x1="217.9" y1="191.5" x2="217.9" y2="208.2"/>
		<path class="st5" d="M207.1,287.5c1.2,3.4-0.8,6.2-4.4,6.2h-30.1c-3.6,0-5.6-2.8-4.3-6.2l0.6-1.5c1.2-3.4,5.2-6.2,8.8-6.2h20.3
			c3.6,0,7.5,2.8,8.7,6.2L207.1,287.5z"/>
		<path class="st2" d="M207.1,287.5c1.2,3.4-0.8,6.2-4.4,6.2h-30.1c-3.6,0-5.6-2.8-4.3-6.2l0.6-1.5c1.2-3.4,5.2-6.2,8.8-6.2h20.3
			c3.6,0,7.5,2.8,8.7,6.2L207.1,287.5z"/>
		<line class="st2" x1="169.1" y1="226.4" x2="172.9" y2="279.8"/>
		<line class="st2" x1="206.3" y1="226.6" x2="202.6" y2="279.9"/>
		<line class="st2" x1="187.9" y1="229.2" x2="187.9" y2="287.2"/>
		<path class="st5" d="M202.6,110.3c0,8.1-6.8,14.7-15.3,14.7s-15.3-6.6-15.3-14.7c-11.9,11.3-7.4,21-4.1,32.9s-0.8,18.7-0.8,18.7
			c-4.1,5.8-7.7,11.9-10.8,18.4c-5.2,11.2-8.6,23.4-9.9,36.2c11.8,7.8,25.8,12.3,41,12.3l0.6,0.1c15.1,0,29.2-4.5,41-12.3
			c-1.3-12.8-4.7-25-9.9-36.2c-3-6.5-6.6-12.7-10.8-18.4c0,0-4.2-6.8-0.8-18.7s7.8-21.6-4.1-32.9L202.6,110.3z"/>
		<path class="st2" d="M202.6,110.3c0,8.1-6.8,14.7-15.3,14.7s-15.3-6.6-15.3-14.7c-11.9,11.3-7.4,21-4.1,32.9s-0.8,18.7-0.8,18.7
			c-4.1,5.8-7.7,11.9-10.8,18.4c-5.2,11.2-8.6,23.4-9.9,36.2c11.8,7.8,25.8,12.3,41,12.3l0.6,0.1c15.1,0,29.2-4.5,41-12.3
			c-1.3-12.8-4.7-25-9.9-36.2c-3-6.5-6.6-12.7-10.8-18.4c0,0-4.2-6.8-0.8-18.7s7.8-21.6-4.1-32.9L202.6,110.3z"/>
		<path class="st2" d="M219.4,180.4l0.6-49.4c0-15.2-16.5-20.6-16.5-20.6"/>
		<line class="st2" x1="187.3" y1="128.9" x2="187.3" y2="161.1"/>
		<polyline class="st2" points="171.5,122.2 177.5,136.1 187.3,128.9 		"/>
		<polyline class="st2" points="202.7,122.2 196.6,136.1 187.3,128.9 		"/>
		<path class="st2" d="M204.5,84.3c0,11.9-7.9,21.5-17.6,21.5s-17.6-9.6-17.6-21.5"/>
		<path class="st2" d="M164.2,86.5c0,0,14.3-5.6,22.7-16.1"/>
		<path class="st2" d="M182.1,62.9c0,0,12.7,15.8,27.5,23.5"/>
		<path class="st2" d="M187.4,51.8c-22.8-2.7-31.8,30.5-28.7,52.6h19.5"/>
		<path class="st2" d="M196.5,104.4H216c3.1-22.1-5.8-55.3-28.7-52.6"/>
		<path class="st2" d="M187.3,115.8c-7.3,0-10.3-5.3-10.3-5.3"/>
		<path class="st2" d="M197.6,110.5c0.6,0-3.5,5.3-10.3,5.3"/>
	</g>
	<rect x="308.8" y="185.2" class="st7" width="8.6" height="89.6"/>
</g>
</svg>
