<?xml version="1.0" encoding="utf-8"?>
<!-- Generator: Adobe Illustrator 23.0.2, SVG Export Plug-In . SVG Version: 6.00 Build 0)  -->
<svg version="1.1" xmlns="http://www.w3.org/2000/svg" xmlns:xlink="http://www.w3.org/1999/xlink" x="0px" y="0px"
	 viewBox="0 0 370 370" style="enable-background:new 0 0 370 370;" xml:space="preserve">
<style type="text/css">
	.st0{display:none;}
	
		.st1{display:inline;fill:none;stroke:#29235C;stroke-width:2.9068;stroke-linecap:round;stroke-linejoin:round;stroke-miterlimit:10;}
	.st2{display:inline;}
	.st3{fill:none;stroke:#29235C;stroke-width:2.9068;stroke-linecap:round;stroke-linejoin:round;stroke-miterlimit:10;}
	.st4{display:inline;fill:#B0D2F0;}
	.st5{display:inline;fill:#FFFFFF;}
	.st6{display:inline;fill:none;stroke:#29235C;stroke-width:2.9068;stroke-linecap:round;stroke-miterlimit:10;}
	
		.st7{display:inline;fill:none;stroke:#B0D2F0;stroke-width:2.9068;stroke-linecap:round;stroke-linejoin:round;stroke-miterlimit:10;}
	.st8{fill:#B0D2F0;}
	.st9{fill:none;stroke:#29235C;stroke-width:1.995;stroke-linecap:round;stroke-linejoin:round;stroke-miterlimit:10;}
	.st10{fill:none;stroke:#29235C;stroke-width:2.9473;stroke-linecap:round;stroke-linejoin:round;stroke-miterlimit:10;}
	.st11{fill:#FFFFFF;}
	.st12{fill:none;stroke:#29235C;stroke-width:2.9068;stroke-linecap:round;stroke-miterlimit:10;}
	.st13{fill:none;stroke:#B0D2F0;stroke-width:2.9068;stroke-linecap:round;stroke-linejoin:round;stroke-miterlimit:10;}
	.st14{display:inline;fill:none;stroke:#29235C;stroke-width:2.9;stroke-linecap:round;stroke-miterlimit:10;}
	
		.st15{display:inline;fill:none;stroke:#29235C;stroke-width:2.9;stroke-linecap:round;stroke-linejoin:round;stroke-miterlimit:10;}
	.st16{fill:none;stroke:#29235C;stroke-width:2.6838;stroke-linecap:round;stroke-miterlimit:10;}
	.st17{fill:none;stroke:#29235C;stroke-width:2.9;stroke-linecap:round;stroke-linejoin:round;stroke-miterlimit:10;}
	.st18{fill:none;stroke:#B0D2F0;stroke-width:2.9;stroke-linecap:round;stroke-linejoin:round;stroke-miterlimit:10;}
	.st19{fill:none;stroke:#29235C;stroke-width:2.6838;stroke-linecap:round;stroke-linejoin:round;stroke-miterlimit:10;}
	.st20{fill:none;stroke:#29235C;stroke-width:3.1946;stroke-linecap:round;stroke-linejoin:round;stroke-miterlimit:10;}
	.st21{fill:#29235C;stroke:#29235C;stroke-width:3.1946;stroke-linecap:round;stroke-linejoin:round;stroke-miterlimit:10;}
	
		.st22{display:inline;fill:none;stroke:#29235C;stroke-width:2.9473;stroke-linecap:round;stroke-linejoin:round;stroke-miterlimit:10;}
	
		.st23{display:inline;fill:none;stroke:#29235C;stroke-width:2.7942;stroke-linecap:round;stroke-linejoin:round;stroke-miterlimit:10;}
	
		.st24{display:inline;fill:#FFFFFF;stroke:#29235C;stroke-width:2.9473;stroke-linecap:round;stroke-linejoin:round;stroke-miterlimit:10;}
	.st25{fill:none;stroke:#29235C;stroke-width:2.8092;stroke-linecap:round;stroke-linejoin:round;stroke-miterlimit:10;}
	
		.st26{display:inline;fill:none;stroke:#29235C;stroke-width:2.8092;stroke-linecap:round;stroke-linejoin:round;stroke-miterlimit:10;}
	.st27{fill:none;stroke:#29235C;stroke-width:2.7679;stroke-linecap:round;stroke-linejoin:round;stroke-miterlimit:10;}
	.st28{fill:#FFFFFF;stroke:#29235C;stroke-width:2.8092;stroke-linecap:round;stroke-linejoin:round;stroke-miterlimit:10;}
	
		.st29{display:inline;fill:none;stroke:#29235C;stroke-width:2.7679;stroke-linecap:round;stroke-linejoin:round;stroke-miterlimit:10;}
	
		.st30{display:inline;fill:#FFFFFF;stroke:#29235C;stroke-width:2.8092;stroke-linecap:round;stroke-linejoin:round;stroke-miterlimit:10;}
</style>
<g id="Layer_2">
</g>
<g id="Layer_1">
	<g id="Basis_man" class="st0">
		<line class="st1" x1="14" y1="222.1" x2="356.4" y2="222.1"/>
		<g id="Schilderij_2" class="st2">
		</g>
		<g class="st2">
			<path class="st3" d="M147.7,171.6h-5.8 M116.8,171.6H31.7v49.9 M147.3,188.3v33.3 M121.5,188.3v33.3 M95.8,188.3v33.3 M70,188.3
				v33.3 M104.6,171.6v-6 M60.1,171.6v-6 M147.7,171.6h25 M116.8,171.6h25 M185.6,221.6v-49.9h-12.9l4.2-41.5l-3.1-5.3l5.4-5.3
				 M47.8,165.1h69v-26.1h-69V165.1z M173.7,221.6v-33.3H43.6v33.3"/>
		</g>
		<path class="st4" d="M226.1,188v-49.4c0-12.9-10.4-23.3-23.3-23.3l0,0c-8.4,8.4-21.9,8.4-30.3,0l0,0c-12.9,0-23.3,10.4-23.3,23.3
			V188H226.1z"/>
		<polyline class="st5" points="184.1,133.5 182.2,177.1 188.1,182.2 194.2,176.5 191.1,132.8 194.2,129.1 186.4,122.1 181,128.5 		
			"/>
		<rect x="163.3" y="187.5" class="st5" width="48.9" height="91.6"/>
		<path class="st4" d="M218.7,287c0,3.5-2.9,6.4-6.4,6.4h-49c-3.5,0-6.4-2.9-6.4-6.4v-0.7c0-3.5,2.9-6.4,6.4-6.4h49
			c3.5,0,6.4,2.9,6.4,6.4V287z"/>
		<rect x="211.7" y="216.4" class="st4" width="15.2" height="51.6"/>
		<rect x="211.7" y="216.4" class="st6" width="15.2" height="51.6"/>
		<line class="st1" x1="219.3" y1="200.1" x2="219.3" y2="216.3"/>
		<path class="st7" d="M226.1,188v-49.4c0-12.9-10.4-23.3-23.3-23.3l0,0c-8.4,8.4-21.9,8.4-30.3,0l0,0c-12.9,0-23.3,10.4-23.3,23.3
			V188H226.1z"/>
		<path class="st1" d="M226.1,188v-49.4c0-12.9-10.4-23.3-23.3-23.3l0,0c-8.4,8.4-21.9,8.4-30.3,0l0,0c-12.9,0-23.3,10.4-23.3,23.3
			V188H226.1z"/>
		<path class="st1" d="M172.5,116.5l5.9,13.5l8.5-8.3 M180.1,129.1l3.9,3.7l-2.8,43.9l6.3,5.6 M202.8,116.5l-5.9,13.5l-8.5-8.3
			 M195.1,129.1l-3.9,3.7l2.8,43.9l-6.3,5.6 M184.1,132.8h7 M163.8,202.3c-8.1,0-14.7-6.4-14.7-14.3 M211.4,202.3
			c8.1,0,14.7-6.4,14.7-14.3h16.7v33.5 M211.4,142.1V279 M163.8,142.1V279 M199,65.7c5.4,4.4,9,12,9,20.5c0,13.7-9.1,24.8-20.4,24.8
			c-11.2,0-20.4-11.1-20.4-24.8c0-4.6,1-8.9,2.8-12.6 M208,88.4c3.5-3.5,5.7-8.3,5.7-13.7c0-10.7-8.7-19.4-19.4-19.4
			c0,0-18.1-0.2-25.5-4.6c-1.7,2.7-2.7,5.9-2.7,9.4c0,9.8,7.9,17.7,17.7,17.7c7,0,13.1-4.1,16-10.1"/>
		<line class="st6" x1="188.1" y1="209.4" x2="188.1" y2="286.8"/>
		<path class="st6" d="M218.7,287c0,3.5-2.9,6.4-6.4,6.4h-49c-3.5,0-6.4-2.9-6.4-6.4v-0.7c0-3.5,2.9-6.4,6.4-6.4h49
			c3.5,0,6.4,2.9,6.4,6.4V287z"/>
		<g class="st2">
			<path class="st3" d="M286.5,114.4l-3.9-3.9 M315.8,143.7l-3.9-3.9 M315.8,110.5l-3.9,3.9 M322.7,127.1h-5.5 M299.2,103.6v5.5
				 M307.9,135.8c2.2-2.2,3.6-5.3,3.6-8.7c0-6.8-5.5-12.3-12.3-12.3c-3.7,0-7,1.7-9.3,4.3 M292.5,150.3c5.6,0,10.2-4.6,10.2-10.2
				s-4.6-10.2-10.2-10.2c-3.1,0-5.8,1.4-7.7,3.5 M264.3,132.8c0.1,0,0.2,0,0.3,0c1.5-6.2,7.1-10.7,13.7-10.7
				c5.5,0,10.3,3.2,12.6,7.9c0.5-0.1,1-0.1,1.6-0.1c5.6,0,10.2,4.6,10.2,10.2c0,5.6-4.6,10.2-10.2,10.2h-28.2
				c-4.8,0-8.8-3.9-8.8-8.8S259.5,132.8,264.3,132.8z"/>
		</g>
		<polyline class="st1" points="226.1,170.5 309.5,170.5 309.5,222.1 		"/>
		<rect x="262.8" y="188" class="st1" width="26.4" height="33.9"/>
	</g>
	<g id="Basis_vrouw" class="st0">
		<line class="st1" x1="14" y1="222.1" x2="356.4" y2="222.1"/>
		<g id="Schilderij_2_kopie" class="st2">
		</g>
		<g class="st2">
			<path class="st3" d="M156,171.6h-14.1 M116.8,171.6H31.7v49.9 M147.3,188.3v33.3 M121.5,188.3v33.3 M95.8,188.3v33.3 M70,188.3
				v33.3 M104.6,171.6v-6 M60.1,171.6v-6 M116.8,171.6h25 M47.8,165.1h69v-26.1h-69V165.1z M164,188.3H43.6v33.3"/>
		</g>
		<line class="st1" x1="219.3" y1="200.1" x2="219.3" y2="216.3"/>
		<g class="st2">
			<path class="st3" d="M286.5,114.4l-3.9-3.9 M315.8,143.7l-3.9-3.9 M315.8,110.5l-3.9,3.9 M322.7,127.1h-5.5 M299.2,103.6v5.5
				 M307.9,135.8c2.2-2.2,3.6-5.3,3.6-8.7c0-6.8-5.5-12.3-12.3-12.3c-3.7,0-7,1.7-9.3,4.3 M292.5,150.3c5.6,0,10.2-4.6,10.2-10.2
				s-4.6-10.2-10.2-10.2c-3.1,0-5.8,1.4-7.7,3.5 M264.3,132.8c0.1,0,0.2,0,0.3,0c1.5-6.2,7.1-10.7,13.7-10.7
				c5.5,0,10.3,3.2,12.6,7.9c0.5-0.1,1-0.1,1.6-0.1c5.6,0,10.2,4.6,10.2,10.2c0,5.6-4.6,10.2-10.2,10.2h-28.2
				c-4.8,0-8.8-3.9-8.8-8.8S259.5,132.8,264.3,132.8z"/>
		</g>
		<polyline class="st1" points="220,170.5 309.5,170.5 309.5,222.1 		"/>
		<rect x="262.8" y="188" class="st1" width="26.4" height="33.9"/>
		<g class="st2">
			<rect x="210.3" y="209.5" class="st8" width="15.2" height="51.6"/>
			<rect x="210.3" y="216.7" class="st3" width="15.7" height="44.4"/>
			<line class="st9" x1="218.1" y1="191.1" x2="218.1" y2="207.8"/>
			<path class="st8" d="M207.3,287.1c1.2,3.4-0.8,6.2-4.4,6.2h-30.1c-3.6,0-5.6-2.8-4.3-6.2l0.6-1.5c1.2-3.4,5.2-6.2,8.8-6.2h20.3
				c3.6,0,7.5,2.8,8.7,6.2L207.3,287.1z"/>
			<path class="st3" d="M207.3,287.1c1.2,3.4-0.8,6.2-4.4,6.2h-30.1c-3.6,0-5.6-2.8-4.3-6.2l0.6-1.5c1.2-3.4,5.2-6.2,8.8-6.2h20.3
				c3.6,0,7.5,2.8,8.7,6.2L207.3,287.1z"/>
			<line class="st3" x1="169.4" y1="226" x2="173.1" y2="279.4"/>
			<line class="st3" x1="206.6" y1="226.1" x2="202.8" y2="279.5"/>
			<line class="st3" x1="188.1" y1="228.8" x2="188.1" y2="286.8"/>
			<path class="st8" d="M202.8,109.8c0,8.1-6.8,14.7-15.3,14.7c-8.4,0-15.3-6.6-15.3-14.7c-11.9,11.3-7.4,21-4.1,32.9
				s-0.8,18.7-0.8,18.7c-4.1,5.8-7.7,11.9-10.8,18.4c-5.2,11.2-8.6,23.4-9.9,36.2c11.8,7.8,25.8,12.3,41,12.3l0.6,0.1
				c15.1,0,29.2-4.5,41-12.3c-1.3-12.8-4.7-25-9.9-36.2c-3-6.5-6.6-12.7-10.8-18.4c0,0-4.2-6.8-0.8-18.7s7.8-21.6-4.1-32.9
				L202.8,109.8z"/>
			<path class="st3" d="M202.8,109.8c0,8.1-6.8,14.7-15.3,14.7c-8.4,0-15.3-6.6-15.3-14.7c-11.9,11.3-7.4,21-4.1,32.9
				s-0.8,18.7-0.8,18.7c-4.1,5.8-7.7,11.9-10.8,18.4c-5.2,11.2-8.6,23.4-9.9,36.2c11.8,7.8,25.8,12.3,41,12.3l0.6,0.1
				c15.1,0,29.2-4.5,41-12.3c-1.3-12.8-4.7-25-9.9-36.2c-3-6.5-6.6-12.7-10.8-18.4c0,0-4.2-6.8-0.8-18.7s7.8-21.6-4.1-32.9
				L202.8,109.8z"/>
			<path class="st3" d="M172.3,109.8c0,0-16.5,5.3-16.5,20.6l0.6,49.4"/>
			<path class="st3" d="M203.7,110c0,0,16.5,5.3,16.5,20.5l-0.6,49.4"/>
			<line class="st3" x1="187.5" y1="128.5" x2="187.5" y2="160.7"/>
			<polyline class="st3" points="171.7,121.8 177.7,135.7 187.5,128.5 			"/>
			<polyline class="st3" points="202.9,121.8 196.9,135.7 187.5,128.5 			"/>
			<path class="st3" d="M204.8,83.9c0,11.9-7.9,21.5-17.6,21.5s-17.6-9.6-17.6-21.5"/>
			<path class="st3" d="M164.4,86.1c0,0,14.3-5.6,22.7-16.1"/>
			<path class="st3" d="M182.3,62.5c0,0,12.7,15.8,27.5,23.5"/>
			<path class="st3" d="M187.6,51.4c-22.8-2.7-31.8,30.5-28.7,52.6h19.5"/>
			<path class="st3" d="M196.8,104h19.5c3.1-22.1-5.8-55.3-28.7-52.6"/>
			<path class="st3" d="M187.5,115.4c-7.3,0-10.3-5.3-10.3-5.3"/>
			<path class="st3" d="M197.9,110.1c0.6,0-3.5,5.3-10.3,5.3"/>
		</g>
	</g>
	<g id="Innovatie" class="st0">
		<line class="st1" x1="14" y1="222.1" x2="356.4" y2="222.1"/>
		<g class="st2">
			<path class="st8" d="M226.3,189.4v-50.1c0-13.1-10.6-23.7-23.6-23.7l0,0c-8.5,8.5-22.2,8.5-30.7,0l0,0c-7.3,0-68.8,1.8-68.8,1.8
				c0.3,0,0,13.8,0,13.8c4.5,1.4,45.1-0.2,59.5,1.2v57L226.3,189.4L226.3,189.4z"/>
			<path class="st10" d="M163.1,131.2h-60c-7.9,0-14.3-6.6-14.3-14.7l83.1-0.4"/>
			<g>
				<path class="st8" d="M163.8,188h62.2v-49.4c0-12.9-10.4-23.3-23.3-23.3l0,0c-8.4,8.4-21.9,8.4-30.3,0l0,0"/>
				<polyline class="st11" points="184.1,133.5 182.2,177.1 188.1,182.2 194.2,176.5 191.1,132.8 194.2,129.1 186.4,122.1 
					181,128.5 				"/>
				<rect x="163.3" y="187.5" class="st11" width="48.9" height="91.6"/>
				<path class="st8" d="M218.7,287c0,3.5-2.9,6.4-6.4,6.4h-49c-3.5,0-6.4-2.9-6.4-6.4v-0.7c0-3.5,2.9-6.4,6.4-6.4h49
					c3.5,0,6.4,2.9,6.4,6.4V287z"/>
				<rect x="211.7" y="216.4" class="st8" width="15.2" height="51.6"/>
				<rect x="211.7" y="216.4" class="st12" width="15.2" height="51.6"/>
				<line class="st3" x1="219.3" y1="200.1" x2="219.3" y2="216.3"/>
				<path class="st13" d="M163.8,188h62.2v-49.4c0-12.9-10.4-23.3-23.3-23.3l0,0c-8.4,8.4-21.9,8.4-30.3,0l0,0"/>
				<path class="st3" d="M163.8,188h62.2v-49.4c0-12.9-10.4-23.3-23.3-23.3l0,0c-8.4,8.4-21.9,8.4-30.3,0l0,0"/>
				<path class="st3" d="M172.5,116.5l5.9,13.5l8.5-8.3 M180.1,129.1l3.9,3.7l-2.8,43.9l6.3,5.6 M202.8,116.5l-5.9,13.5l-8.5-8.3
					 M195.1,129.1l-3.9,3.7l2.8,43.9l-6.3,5.6 M184.1,132.8h7 M211.4,202.3c8.1,0,14.7-6.4,14.7-14.3 M211.4,142.1V279 M163.8,131.2
					V279 M199,65.7c5.4,4.4,9,12,9,20.5c0,13.7-9.1,24.8-20.4,24.8c-11.2,0-20.4-11.1-20.4-24.8c0-4.6,1-8.9,2.8-12.6 M208,88.4
					c3.5-3.5,5.7-8.3,5.7-13.7c0-10.7-8.7-19.4-19.4-19.4c0,0-18.1-0.2-25.5-4.6c-1.7,2.7-2.7,5.9-2.7,9.4c0,9.8,7.9,17.7,17.7,17.7
					c7,0,13.1-4.1,16-10.1"/>
				<line class="st12" x1="188.1" y1="209.4" x2="188.1" y2="286.8"/>
				<path class="st12" d="M218.7,287c0,3.5-2.9,6.4-6.4,6.4h-49c-3.5,0-6.4-2.9-6.4-6.4v-0.7c0-3.5,2.9-6.4,6.4-6.4h49
					c3.5,0,6.4,2.9,6.4,6.4V287z"/>
				<path class="st3" d="M226.1,170.5"/>
			</g>
		</g>
		<g class="st2">
			<path class="st3" d="M107.8,37.6l1.8-5 M115.7,42.1l3.4-4.1 M121.5,49.1l4.7-2.7 M124.6,57.6l5.3-0.9 M124.6,66.7l5.3,0.9
				 M73.2,66.7l-5.3,0.9 M73.2,57.6l-5.3-0.9 M76.3,49.1l-4.7-2.7 M82.1,42.1L78.6,38 M89.9,37.6l-1.8-5 M98.9,36v-5.4 M100.1,105.1
				h-2.4c-5.6,0-10.1-4.5-10.1-10.1v-0.7h22.5V95C110.1,100.6,105.6,105.1,100.1,105.1z M87.6,89.8h22.5 M84.9,60.9
				c0.6-6.9,6.2-12.5,13.2-13c0.3,0,0.7,0,1,0c3.6,0,6.9,1.3,9.4,3.5 M119.6,62.2c0-12-10.1-21.5-22.2-20.7
				c-10.1,0.7-18.4,8.8-19.2,19c-0.5,6.4,1.8,12.2,5.9,16.3c2.3,2.3,3.7,5.4,3.7,8.7v0.1H110v-0.1c0-3.2,1.2-6.3,3.5-8.5
				C117.3,73.1,119.6,67.9,119.6,62.2z"/>
		</g>
	</g>
	<g id="Innovatie_vrouw">
		<line class="st3" x1="14" y1="222.1" x2="356.4" y2="222.1"/>
		<g>
			<path class="st10" d="M163.1,125.2h-60c-7.9,0-14.3-6.6-14.3-14.7l83.1-0.4"/>
		</g>
		<g>
			<path class="st3" d="M107.8,37.6l1.8-5 M115.7,42.1l3.4-4.1 M121.5,49.1l4.7-2.7 M124.6,57.6l5.3-0.9 M124.6,66.7l5.3,0.9
				 M73.2,66.7l-5.3,0.9 M73.2,57.6l-5.3-0.9 M76.3,49.1l-4.7-2.7 M82.1,42.1L78.6,38 M89.9,37.6l-1.8-5 M98.9,36v-5.4 M100.1,105.1
				h-2.4c-5.6,0-10.1-4.5-10.1-10.1v-0.7h22.5V95C110.1,100.6,105.6,105.1,100.1,105.1z M87.6,89.8h22.5 M84.9,60.9
				c0.6-6.9,6.2-12.5,13.2-13c0.3,0,0.7,0,1,0c3.6,0,6.9,1.3,9.4,3.5 M119.6,62.2c0-12-10.1-21.5-22.2-20.7
				c-10.1,0.7-18.4,8.8-19.2,19c-0.5,6.4,1.8,12.2,5.9,16.3c2.3,2.3,3.7,5.4,3.7,8.7v0.1H110v-0.1c0-3.2,1.2-6.3,3.5-8.5
				C117.3,73.1,119.6,67.9,119.6,62.2z"/>
		</g>
		<g>
			<rect x="209.9" y="209.2" class="st8" width="15.2" height="51.6"/>
			<rect x="209.9" y="216.4" class="st3" width="15.7" height="44.4"/>
			<line class="st9" x1="217.7" y1="190.8" x2="217.7" y2="207.5"/>
			<path class="st8" d="M206.9,286.8c1.2,3.4-0.8,6.2-4.4,6.2h-30.1c-3.6,0-5.6-2.8-4.3-6.2l0.6-1.5c1.2-3.4,5.2-6.2,8.8-6.2h20.3
				c3.6,0,7.5,2.8,8.7,6.2L206.9,286.8z"/>
			<path class="st3" d="M206.9,286.8c1.2,3.4-0.8,6.2-4.4,6.2h-30.1c-3.6,0-5.6-2.8-4.3-6.2l0.6-1.5c1.2-3.4,5.2-6.2,8.8-6.2h20.3
				c3.6,0,7.5,2.8,8.7,6.2L206.9,286.8z"/>
			<line class="st3" x1="169" y1="225.7" x2="172.7" y2="279"/>
			<line class="st3" x1="206.2" y1="225.8" x2="202.4" y2="279.2"/>
			<line class="st3" x1="187.7" y1="228.5" x2="187.7" y2="286.5"/>
			<path class="st8" d="M202.4,109.5c0,8.1-6.8,14.7-15.3,14.7s-15.3-6.6-15.3-14.7c-11.9,11.3-7.4,21-4.1,32.9s-0.8,18.7-0.8,18.7
				c-4.1,5.8-7.7,11.9-10.8,18.4c-5.2,11.2-8.6,23.4-9.9,36.2c11.8,7.8,25.8,12.3,41,12.3l0.6,0.1c15.1,0,29.2-4.5,41-12.3
				c-1.3-12.8-4.7-25-9.9-36.2c-3-6.5-6.6-12.7-10.8-18.4c0,0-4.2-6.8-0.8-18.7s7.8-21.6-4.1-32.9L202.4,109.5z"/>
			<path class="st3" d="M202.4,109.5c0,8.1-6.8,14.7-15.3,14.7s-15.3-6.6-15.3-14.7c-11.9,11.3-7.4,21-4.1,32.9s-0.8,18.7-0.8,18.7
				c-4.1,5.8-7.7,11.9-10.8,18.4c-5.2,11.2-8.6,23.4-9.9,36.2c11.8,7.8,25.8,12.3,41,12.3l0.6,0.1c15.1,0,29.2-4.5,41-12.3
				c-1.3-12.8-4.7-25-9.9-36.2c-3-6.5-6.6-12.7-10.8-18.4c0,0-4.2-6.8-0.8-18.7s7.8-21.6-4.1-32.9L202.4,109.5z"/>
			<path class="st3" d="M203.3,109.7c0,0,16.5,5.3,16.5,20.6l-0.6,49.4"/>
			<line class="st3" x1="187.1" y1="128.2" x2="187.1" y2="160.4"/>
			<polyline class="st3" points="171.3,121.4 177.3,135.4 187.1,128.2 			"/>
			<polyline class="st3" points="202.5,121.4 196.5,135.4 187.1,128.2 			"/>
			<path class="st3" d="M204.4,83.5c0,11.9-7.9,21.5-17.6,21.5s-17.6-9.6-17.6-21.5"/>
			<path class="st3" d="M164,85.8c0,0,14.3-5.6,22.7-16.1"/>
			<path class="st3" d="M181.9,62.2c0,0,12.7,15.8,27.5,23.5"/>
			<path class="st3" d="M187.2,51.1c-22.8-2.7-31.8,30.5-28.7,52.6H178"/>
			<path class="st3" d="M196.4,103.7h19.5c3.1-22.1-5.8-55.3-28.7-52.6"/>
			<path class="st3" d="M187.1,115.1c-7.3,0-10.3-5.3-10.3-5.3"/>
			<path class="st3" d="M197.4,109.8c0.6,0-3.5,5.3-10.3,5.3"/>
		</g>
	</g>
	<g id="Intern" class="st0">
		<circle class="st5" cx="186.3" cy="187.2" r="187.2"/>
		<line class="st1" x1="14" y1="222.1" x2="356.4" y2="222.1"/>
		<rect x="73.4" y="218.9" class="st5" width="32.5" height="8.6"/>
		<rect x="110.4" y="232.7" class="st5" width="13.2" height="10.5"/>
		<polygon class="st4" points="108.3,246.9 124.8,246.9 124.8,207.6 108.3,214.5 		"/>
		<rect x="75.2" y="232.7" class="st5" width="29.1" height="10.5"/>
		<rect x="261" y="233.1" class="st5" width="43.3" height="10.5"/>
		<rect x="109.6" y="206.6" class="st14" width="14" height="39.5"/>
		<path class="st4" d="M106.9,269.3c1.1,3-0.7,5.5-3.9,5.5H76.2c-3.2,0-4.9-2.5-3.8-5.5l0.5-1.3c1.1-3,4.6-5.5,7.8-5.5h18.1
			c3.2,0,6.7,2.5,7.7,5.5L106.9,269.3z"/>
		<path class="st15" d="M106.9,269.3c1.1,3-0.7,5.5-3.9,5.5H76.2c-3.2,0-4.9-2.5-3.8-5.5l0.5-1.3c1.1-3,4.6-5.5,7.8-5.5h18.1
			c3.2,0,6.7,2.5,7.7,5.5L106.9,269.3z"/>
		<line class="st15" x1="73.1" y1="214.9" x2="76.5" y2="262.4"/>
		<line class="st15" x1="106.3" y1="215" x2="102.9" y2="262.5"/>
		<line class="st15" x1="89.8" y1="217.4" x2="89.8" y2="269.1"/>
		<path class="st4" d="M102.9,111.5c0,7.2-6.1,13.1-13.6,13.1s-13.6-5.8-13.6-13.1c-10.6,10-6.6,18.7-3.6,29.3
			c3,10.6-0.7,16.6-0.7,16.6c-3.7,5.1-6.9,10.6-9.6,16.4c-4.6,10-7.7,20.8-8.8,32.2c10.5,6.9,23,10.9,36.5,10.9l0.5,0.1
			c13.5,0,26-4,36.5-10.9c-1.2-11.4-4.2-22.3-8.8-32.2c-2.7-5.8-5.9-11.3-9.6-16.4c0,0-3.7-6.1-0.7-16.6c3-10.6,7-19.2-3.6-29.3
			L102.9,111.5z"/>
		<path class="st15" d="M102.9,111.5c0,7.2-6.1,13.1-13.6,13.1s-13.6-5.8-13.6-13.1c-10.6,10-6.6,18.7-3.6,29.3
			c3,10.6-0.7,16.6-0.7,16.6c-3.7,5.1-6.9,10.6-9.6,16.4c-4.6,10-7.7,20.8-8.8,32.2c10.5,6.9,23,10.9,36.5,10.9l0.5,0.1
			c13.5,0,26-4,36.5-10.9c-1.2-11.4-4.2-22.3-8.8-32.2c-2.7-5.8-5.9-11.3-9.6-16.4c0,0-3.7-6.1-0.7-16.6c3-10.6,7-19.2-3.6-29.3
			L102.9,111.5z"/>
		<rect x="260.6" y="179.3" class="st5" width="43.7" height="82.5"/>
		<path class="st15" d="M304.3,191.7c7.4,0,13.5-5.9,13.5-13.1h-13.5V191.7z"/>
		<path class="st4" d="M311,269.5c0,3.2-2.6,5.8-5.9,5.8h-45c-3.2,0-5.8-2.6-5.8-5.8v-0.6c0-3.2,2.6-5.8,5.8-5.8h45
			c3.2,0,5.9,2.6,5.9,5.8V269.5z"/>
		<path class="st4" d="M317.8,178.6v-45.4c0-11.8-9.6-21.4-21.4-21.4l0,0c-7.7,7.7-20.1,7.7-27.8,0l0,0c-11.8,0-21.4,9.6-21.4,21.4
			v45.4H317.8z"/>
		<path class="st15" d="M317.8,178.6v-45.4c0-11.8-9.6-21.4-21.4-21.4l0,0c-7.7,7.7-20.1,7.7-27.8,0l0,0c-11.8,0-21.4,9.6-21.4,21.4
			v45.4H317.8z"/>
		<path class="st15" d="M317.8,178.6v-45.4c0-11.8-9.6-21.4-21.4-21.4l0,0c-7.7,7.7-20.1,7.7-27.8,0l0,0c-11.8,0-21.4,9.6-21.4,21.4
			v45.4H317.8z"/>
		<path class="st15" d="M260.6,191.7c-7.4,0-13.5-5.9-13.5-13.1"/>
		<path class="st15" d="M304.3,191.7c7.4,0,13.5-5.9,13.5-13.1"/>
		<path class="st15" d="M260.6,191.7c-7.4,0-13.5-5.9-13.5-13.1h13.5V191.7z"/>
		<line class="st15" x1="304.3" y1="136.4" x2="304.3" y2="262.2"/>
		<line class="st15" x1="260.6" y1="136.4" x2="260.6" y2="262.2"/>
		<path class="st15" d="M285.7,127.8"/>
		<path class="st15" d="M279.2,127.8"/>
		<line class="st15" x1="282.9" y1="198.2" x2="282.9" y2="269.3"/>
		<path class="st15" d="M311,269.5c0,3.2-2.6,5.8-5.9,5.8h-45c-3.2,0-5.8-2.6-5.8-5.8v-0.6c0-3.2,2.6-5.8,5.8-5.8h45
			c3.2,0,5.9,2.6,5.9,5.8V269.5z"/>
		<polygon class="st15" points="287.4,121.7 285.7,127.8 288.2,168.1 282.4,173.2 276.6,168.1 279.2,127.8 277.4,121.8 282.6,117.7 
			282.6,117.7 		"/>
		<line class="st15" x1="279.2" y1="127.8" x2="285.7" y2="127.8"/>
		<polyline class="st15" points="268.5,111.7 273.9,124.2 282.6,117.7 		"/>
		<polyline class="st15" points="296.3,111.7 291,124.2 282.6,117.7 		"/>
		<ellipse class="st15" cx="282.4" cy="84.3" rx="19.2" ry="23.3"/>
		<ellipse class="st15" cx="88.8" cy="84.4" rx="19.2" ry="23.3"/>
		<path class="st15" d="M264.4,78c0,0,14.8,3.5,23.4-8.9c0,0,4,5.6,11.8,6.2"/>
		<path class="st15" d="M75.7,111.5c0,0-14.7,4.8-14.7,18.3l0.5,44"/>
		<path class="st15" d="M103.7,111.6c0,0,14.7,4.8,14.7,18.3l-0.5,44"/>
		<line class="st15" x1="89.3" y1="124.5" x2="89.3" y2="153.2"/>
		<polyline class="st15" points="75.2,118.5 80.6,130.9 89.3,124.5 		"/>
		<polyline class="st15" points="103,118.5 97.6,130.9 89.3,124.5 		"/>
		<path class="st15" d="M69.6,84.7c0,0,19.9,1.8,28.3-13c0,0,6.9,2.3,9.7,8.4"/>
		<path class="st15" d="M128,95.5c-1.2,4.2-4.9,7.4-9.5,7.8c-6,0.5-11.2-4-11.7-9.9"/>
		<path class="st15" d="M128,95.5c-2.8,0.2-5.3-1.9-5.5-4.7c0,0,1.8-16.4,0.5-21.6c-2.2-8.5-8.3-15.2-17-14.5
			c-4.8,0.4-8.9,2.9-11.6,6.5"/>
		<g class="st2">
			<path class="st8" d="M226.1,188v-49.4c0-12.9-10.4-23.3-23.3-23.3l0,0c-8.4,8.4-21.9,8.4-30.3,0l0,0c-12.9,0-23.3,10.4-23.3,23.3
				V188H226.1z"/>
			<polyline class="st11" points="184.1,133.5 182.2,177.1 188.1,182.2 194.2,176.5 191.1,132.8 194.2,129.1 186.4,122.1 181,128.5 
							"/>
			<rect x="163.3" y="187.5" class="st11" width="48.9" height="91.6"/>
			<path class="st8" d="M218.7,287c0,3.5-2.9,6.4-6.4,6.4h-49c-3.5,0-6.4-2.9-6.4-6.4v-0.7c0-3.5,2.9-6.4,6.4-6.4h49
				c3.5,0,6.4,2.9,6.4,6.4V287z"/>
			<rect x="211.7" y="216.4" class="st8" width="15.2" height="51.6"/>
			<rect x="211.7" y="216.4" class="st12" width="15.2" height="51.6"/>
			<line class="st3" x1="219.3" y1="200.1" x2="219.3" y2="216.3"/>
			<path class="st13" d="M226.1,188v-49.4c0-12.9-10.4-23.3-23.3-23.3l0,0c-8.4,8.4-21.9,8.4-30.3,0l0,0
				c-12.9,0-23.3,10.4-23.3,23.3V188H226.1z"/>
			<path class="st3" d="M226.1,188v-49.4c0-12.9-10.4-23.3-23.3-23.3l0,0c-8.4,8.4-21.9,8.4-30.3,0l0,0c-12.9,0-23.3,10.4-23.3,23.3
				V188H226.1z"/>
			<path class="st3" d="M172.5,116.5l5.9,13.5l8.5-8.3 M180.1,129.1l3.9,3.7l-2.8,43.9l6.3,5.6 M202.8,116.5l-5.9,13.5l-8.5-8.3
				 M195.1,129.1l-3.9,3.7l2.8,43.9l-6.3,5.6 M184.1,132.8h7 M163.8,202.3c-8.1,0-14.7-6.4-14.7-14.3 M211.4,202.3
				c8.1,0,14.7-6.4,14.7-14.3 M211.4,142.1V279 M163.8,142.1V279 M199,65.7c5.4,4.4,9,12,9,20.5c0,13.7-9.1,24.8-20.4,24.8
				c-11.2,0-20.4-11.1-20.4-24.8c0-4.6,1-8.9,2.8-12.6 M208,88.4c3.5-3.5,5.7-8.3,5.7-13.7c0-10.7-8.7-19.4-19.4-19.4
				c0,0-18.1-0.2-25.5-4.6c-1.7,2.7-2.7,5.9-2.7,9.4c0,9.8,7.9,17.7,17.7,17.7c7,0,13.1-4.1,16-10.1"/>
			<line class="st12" x1="188.1" y1="209.4" x2="188.1" y2="286.8"/>
			<path class="st12" d="M218.7,287c0,3.5-2.9,6.4-6.4,6.4h-49c-3.5,0-6.4-2.9-6.4-6.4v-0.7c0-3.5,2.9-6.4,6.4-6.4h49
				c3.5,0,6.4,2.9,6.4,6.4V287z"/>
			<path class="st3" d="M226.1,170.5"/>
		</g>
	</g>
	<g id="Intern_vrouw" class="st0">
		<line class="st1" x1="14" y1="222.1" x2="356.4" y2="222.1"/>
		<rect x="110.4" y="232.7" class="st5" width="13.2" height="10.5"/>
		<rect x="75.2" y="232.7" class="st5" width="29.1" height="10.5"/>
		<rect x="261" y="233.1" class="st5" width="43.3" height="10.5"/>
		<rect x="260.6" y="179.3" class="st5" width="43.7" height="82.5"/>
		<path class="st15" d="M304.3,191.7c7.4,0,13.5-5.9,13.5-13.1h-13.5V191.7z"/>
		<path class="st4" d="M311,269.5c0,3.2-2.6,5.8-5.9,5.8h-45c-3.2,0-5.8-2.6-5.8-5.8v-0.6c0-3.2,2.6-5.8,5.8-5.8h45
			c3.2,0,5.9,2.6,5.9,5.8V269.5z"/>
		<path class="st4" d="M317.8,178.6v-45.4c0-11.8-9.6-21.4-21.4-21.4l0,0c-7.7,7.7-20.1,7.7-27.8,0l0,0c-11.8,0-21.4,9.6-21.4,21.4
			v45.4H317.8z"/>
		<path class="st15" d="M317.8,178.6v-45.4c0-11.8-9.6-21.4-21.4-21.4l0,0c-7.7,7.7-20.1,7.7-27.8,0l0,0c-11.8,0-21.4,9.6-21.4,21.4
			v45.4H317.8z"/>
		<path class="st15" d="M317.8,178.6v-45.4c0-11.8-9.6-21.4-21.4-21.4l0,0c-7.7,7.7-20.1,7.7-27.8,0l0,0c-11.8,0-21.4,9.6-21.4,21.4
			v45.4H317.8z"/>
		<path class="st15" d="M260.6,191.7c-7.4,0-13.5-5.9-13.5-13.1"/>
		<path class="st15" d="M304.3,191.7c7.4,0,13.5-5.9,13.5-13.1"/>
		<path class="st15" d="M260.6,191.7c-7.4,0-13.5-5.9-13.5-13.1h13.5V191.7z"/>
		<line class="st15" x1="304.3" y1="136.4" x2="304.3" y2="262.2"/>
		<line class="st15" x1="260.6" y1="136.4" x2="260.6" y2="262.2"/>
		<path class="st15" d="M285.7,127.8"/>
		<path class="st15" d="M279.2,127.8"/>
		<line class="st15" x1="282.9" y1="198.2" x2="282.9" y2="269.3"/>
		<path class="st15" d="M311,269.5c0,3.2-2.6,5.8-5.9,5.8h-45c-3.2,0-5.8-2.6-5.8-5.8v-0.6c0-3.2,2.6-5.8,5.8-5.8h45
			c3.2,0,5.9,2.6,5.9,5.8V269.5z"/>
		<polygon class="st15" points="287.4,121.7 285.7,127.8 288.2,168.1 282.4,173.2 276.6,168.1 279.2,127.8 277.4,121.8 282.6,117.7 
			282.6,117.7 		"/>
		<line class="st15" x1="279.2" y1="127.8" x2="285.7" y2="127.8"/>
		<polyline class="st15" points="268.5,111.7 273.9,124.2 282.6,117.7 		"/>
		<polyline class="st15" points="296.3,111.7 291,124.2 282.6,117.7 		"/>
		<ellipse class="st15" cx="282.4" cy="84.3" rx="19.2" ry="23.3"/>
		<path class="st15" d="M264.4,78c0,0,14.8,3.5,23.4-8.9c0,0,4,5.6,11.8,6.2"/>
		<g class="st2">
			<path class="st8" d="M125.4,178.3v-45.7c0-11.9-9.6-21.5-21.5-21.5l0,0c-7.7,7.7-20.2,7.7-28,0l0,0c-11.9,0-21.5,9.6-21.5,21.5
				v45.6L125.4,178.3L125.4,178.3z"/>
			<polyline class="st11" points="86.6,127.9 84.9,168.1 90.3,172.9 95.9,167.6 93.1,127.2 95.9,123.8 88.8,117.4 83.7,123.3 			"/>
			<rect x="67.4" y="177.8" class="st11" width="45.1" height="84.6"/>
			<path class="st8" d="M118.6,269.6c0,3.2-2.6,5.9-5.9,5.9H67.5c-3.2,0-5.9-2.6-5.9-5.9V269c0-3.2,2.6-5.9,5.9-5.9h45.2
				c3.2,0,5.9,2.6,5.9,5.9L118.6,269.6L118.6,269.6z"/>
			<rect x="112.1" y="204.5" class="st8" width="14.1" height="47.6"/>
			<rect x="112.1" y="204.5" class="st16" width="14.1" height="47.6"/>
			<line class="st17" x1="119.1" y1="189.4" x2="119.1" y2="204.4"/>
			<path class="st18" d="M125.4,178.3v-45.7c0-11.9-9.6-21.5-21.5-21.5l0,0c-7.7,7.7-20.2,7.7-28,0l0,0c-11.9,0-21.5,9.6-21.5,21.5
				v45.6L125.4,178.3L125.4,178.3z"/>
			<path class="st17" d="M125.4,178.3v-45.7c0-11.9-9.6-21.5-21.5-21.5l0,0c-7.7,7.7-20.2,7.7-28,0l0,0c-11.9,0-21.5,9.6-21.5,21.5
				v45.6L125.4,178.3L125.4,178.3z"/>
			<path class="st17" d="M75.9,112.2l5.4,12.5l7.8-7.7 M83,123.8l3.7,3.4l-2.6,40.5l5.8,5.2 M103.9,112.2l-5.4,12.5l-7.8-7.7
				 M96.8,123.8l-3.7,3.4l2.6,40.5l-5.8,5.2 M86.6,127.2h6.5 M67.9,191.5c-7.5,0-13.5-5.9-13.5-13.2 M111.8,191.5
				c7.5,0,13.5-5.9,13.5-13.2 M111.8,135.8v126.4 M67.9,135.8v126.4 M100.4,65.3c5,4.1,8.3,11.1,8.3,19c0,12.6-8.4,22.9-18.8,22.9
				c-10.4,0-18.8-10.2-18.8-22.9c0-4.3,0.9-8.2,2.6-11.6 M108.7,86.3c3.2-3.2,5.2-7.7,5.2-12.6c0-9.9-8-17.9-17.9-17.9
				c0,0-16.8-0.2-23.6-4.3C71,54,70.1,57,70.1,60.1c0,9,7.3,16.3,16.3,16.3c6.5,0,12.1-3.8,14.8-9.3"/>
			<line class="st16" x1="90.3" y1="198" x2="90.3" y2="269.5"/>
			<path class="st16" d="M118.6,269.6c0,3.2-2.6,5.9-5.9,5.9H67.5c-3.2,0-5.9-2.6-5.9-5.9V269c0-3.2,2.6-5.9,5.9-5.9h45.2
				c3.2,0,5.9,2.6,5.9,5.9L118.6,269.6L118.6,269.6z"/>
			<path class="st19" d="M125.4,162.1"/>
		</g>
		<g class="st2">
			<rect x="210.5" y="209.8" class="st8" width="15.2" height="51.6"/>
			<rect x="210.5" y="216.9" class="st3" width="15.7" height="44.4"/>
			<line class="st9" x1="218.4" y1="191.3" x2="218.4" y2="208"/>
			<path class="st8" d="M207.6,287.3c1.2,3.4-0.8,6.2-4.4,6.2h-30.1c-3.6,0-5.6-2.8-4.3-6.2l0.6-1.5c1.2-3.4,5.2-6.2,8.8-6.2h20.3
				c3.6,0,7.5,2.8,8.7,6.2L207.6,287.3z"/>
			<path class="st3" d="M207.6,287.3c1.2,3.4-0.8,6.2-4.4,6.2h-30.1c-3.6,0-5.6-2.8-4.3-6.2l0.6-1.5c1.2-3.4,5.2-6.2,8.8-6.2h20.3
				c3.6,0,7.5,2.8,8.7,6.2L207.6,287.3z"/>
			<line class="st3" x1="169.6" y1="226.2" x2="173.4" y2="279.6"/>
			<line class="st3" x1="206.8" y1="226.4" x2="203.1" y2="279.7"/>
			<line class="st3" x1="188.4" y1="229" x2="188.4" y2="287"/>
			<path class="st8" d="M203.1,110.1c0,8.1-6.8,14.7-15.3,14.7s-15.3-6.6-15.3-14.7c-11.9,11.3-7.4,21-4.1,32.9s-0.8,18.7-0.8,18.7
				c-4.1,5.8-7.7,11.9-10.8,18.4c-5.2,11.2-8.6,23.4-9.9,36.2c11.8,7.8,25.8,12.3,41,12.3l0.6,0.1c15.1,0,29.2-4.5,41-12.3
				c-1.3-12.8-4.7-25-9.9-36.2c-3-6.5-6.6-12.7-10.8-18.4c0,0-4.2-6.8-0.8-18.7s7.8-21.6-4.1-32.9L203.1,110.1z"/>
			<path class="st3" d="M203.1,110.1c0,8.1-6.8,14.7-15.3,14.7s-15.3-6.6-15.3-14.7c-11.9,11.3-7.4,21-4.1,32.9s-0.8,18.7-0.8,18.7
				c-4.1,5.8-7.7,11.9-10.8,18.4c-5.2,11.2-8.6,23.4-9.9,36.2c11.8,7.8,25.8,12.3,41,12.3l0.6,0.1c15.1,0,29.2-4.5,41-12.3
				c-1.3-12.8-4.7-25-9.9-36.2c-3-6.5-6.6-12.7-10.8-18.4c0,0-4.2-6.8-0.8-18.7s7.8-21.6-4.1-32.9L203.1,110.1z"/>
			<path class="st3" d="M172.6,110.1c0,0-16.5,5.3-16.5,20.6l0.6,49.4"/>
			<path class="st3" d="M203.9,110.2c0,0,16.5,5.3,16.5,20.5l-0.6,49.4"/>
			<line class="st3" x1="187.8" y1="128.7" x2="187.8" y2="160.9"/>
			<polyline class="st3" points="172,122 178,135.9 187.8,128.7 			"/>
			<polyline class="st3" points="203.2,122 197.1,135.9 187.8,128.7 			"/>
			<path class="st3" d="M205,84.1c0,11.9-7.9,21.5-17.6,21.5s-17.6-9.6-17.6-21.5"/>
			<path class="st3" d="M164.7,86.3c0,0,14.3-5.6,22.7-16.1"/>
			<path class="st3" d="M182.6,62.7c0,0,12.7,15.8,27.5,23.5"/>
			<path class="st3" d="M187.9,51.6c-22.8-2.7-31.8,30.5-28.7,52.6h19.5"/>
			<path class="st3" d="M197,104.2h19.5c3.1-22.1-5.8-55.3-28.7-52.6"/>
			<path class="st3" d="M187.8,115.6c-7.3,0-10.3-5.3-10.3-5.3"/>
			<path class="st3" d="M198.1,110.3c0.6,0-3.5,5.3-10.3,5.3"/>
		</g>
	</g>
	<g id="Communicatie" class="st0">
		<line class="st1" x1="14" y1="222.1" x2="356.4" y2="222.1"/>
		<g class="st2">
			<path class="st8" d="M226.1,188v-49.4c0-12.9-10.4-23.3-23.3-23.3l0,0c-8.4,8.4-21.9,8.4-30.3,0l0,0c-12.9,0-23.3,10.4-23.3,23.3
				V188H226.1z"/>
			<polyline class="st11" points="184.1,133.5 182.2,177.1 188.1,182.2 194.2,176.5 191.1,132.8 194.2,129.1 186.4,122.1 181,128.5 
							"/>
			<rect x="163.3" y="187.5" class="st11" width="48.9" height="91.6"/>
			<path class="st8" d="M218.7,287c0,3.5-2.9,6.4-6.4,6.4h-49c-3.5,0-6.4-2.9-6.4-6.4v-0.7c0-3.5,2.9-6.4,6.4-6.4h49
				c3.5,0,6.4,2.9,6.4,6.4V287z"/>
			<rect x="211.7" y="216.4" class="st8" width="15.2" height="51.6"/>
			<rect x="211.7" y="216.4" class="st12" width="15.2" height="51.6"/>
			<line class="st3" x1="219.3" y1="200.1" x2="219.3" y2="216.3"/>
			<path class="st13" d="M226.1,188v-49.4c0-12.9-10.4-23.3-23.3-23.3l0,0c-8.4,8.4-21.9,8.4-30.3,0l0,0
				c-12.9,0-23.3,10.4-23.3,23.3V188H226.1z"/>
			<path class="st3" d="M226.1,188v-49.4c0-12.9-10.4-23.3-23.3-23.3l0,0c-8.4,8.4-21.9,8.4-30.3,0l0,0c-12.9,0-23.3,10.4-23.3,23.3
				V188H226.1z"/>
			<path class="st3" d="M172.5,116.5l5.9,13.5l8.5-8.3 M180.1,129.1l3.9,3.7l-2.8,43.9l6.3,5.6 M202.8,116.5l-5.9,13.5l-8.5-8.3
				 M195.1,129.1l-3.9,3.7l2.8,43.9l-6.3,5.6 M184.1,132.8h7 M163.8,202.3c-8.1,0-14.7-6.4-14.7-14.3 M211.4,202.3
				c8.1,0,14.7-6.4,14.7-14.3 M211.4,142.1V279 M163.8,142.1V279 M199,65.7c5.4,4.4,9,12,9,20.5c0,13.7-9.1,24.8-20.4,24.8
				c-11.2,0-20.4-11.1-20.4-24.8c0-4.6,1-8.9,2.8-12.6 M208,88.4c3.5-3.5,5.7-8.3,5.7-13.7c0-10.7-8.7-19.4-19.4-19.4
				c0,0-18.1-0.2-25.5-4.6c-1.7,2.7-2.7,5.9-2.7,9.4c0,9.8,7.9,17.7,17.7,17.7c7,0,13.1-4.1,16-10.1"/>
			<line class="st12" x1="188.1" y1="209.4" x2="188.1" y2="286.8"/>
			<path class="st12" d="M218.7,287c0,3.5-2.9,6.4-6.4,6.4h-49c-3.5,0-6.4-2.9-6.4-6.4v-0.7c0-3.5,2.9-6.4,6.4-6.4h49
				c3.5,0,6.4,2.9,6.4,6.4V287z"/>
			<path class="st3" d="M226.1,170.5"/>
		</g>
		<g class="st2">
			<path class="st20" d="M253.4,66.6c-15.7,0-26.7,9.7-26.7,21.7c0,7.7,3.5,14.4,11.3,18.2v12.4l13.6-9c0.6,0,1.2,0.1,1.8,0.1
				c15.7,0,26.7-9.7,26.7-21.7S269,66.6,253.4,66.6z"/>
			<circle class="st20" cx="265.7" cy="88.6" r="0.9"/>
			<path class="st20" d="M254.2,88.6c0,0.5-0.4,0.8-0.9,0.8s-0.9-0.4-0.9-0.8s0.4-0.8,0.9-0.8S254.2,88.1,254.2,88.6z"/>
			<path class="st20" d="M241.9,88.6c0,0.5-0.4,0.8-0.9,0.8s-0.9-0.4-0.9-0.8s0.4-0.8,0.9-0.8S241.9,88.1,241.9,88.6z"/>
		</g>
		<g class="st2">
			<path class="st3" d="M110.1,35.5c24.1,0,40.9,14.9,40.9,33.3c0,11.8-5.3,22.1-17.4,28v19l-20.8-13.8c-0.9,0.1-1.8,0.1-2.7,0.1
				c-24,0-40.9-14.9-40.9-33.3C69.2,50.4,86.1,35.5,110.1,35.5z"/>
			<g>
				<line class="st3" x1="129.3" y1="56.8" x2="91" y2="56.8"/>
				<line class="st3" x1="129.3" y1="69.3" x2="91" y2="69.3"/>
				<line class="st3" x1="129.3" y1="81.7" x2="110.1" y2="81.7"/>
			</g>
		</g>
	</g>
	<g id="Communicatie_vrouw" class="st0">
		<line class="st1" x1="14" y1="222.1" x2="356.4" y2="222.1"/>
		<g class="st2">
			<path class="st3" d="M226.1,170.5"/>
		</g>
		<g class="st2">
			<path class="st20" d="M253.4,66.6c-15.7,0-26.7,9.7-26.7,21.7c0,7.7,3.5,14.4,11.3,18.2v12.4l13.6-9c0.6,0,1.2,0.1,1.8,0.1
				c15.7,0,26.7-9.7,26.7-21.7S269,66.6,253.4,66.6z"/>
			<circle class="st21" cx="265.7" cy="88.6" r="0.9"/>
			<path class="st21" d="M254.2,88.6c0,0.5-0.4,0.8-0.9,0.8s-0.9-0.4-0.9-0.8s0.4-0.8,0.9-0.8S254.2,88.1,254.2,88.6z"/>
			<path class="st21" d="M241.9,88.6c0,0.5-0.4,0.8-0.9,0.8s-0.9-0.4-0.9-0.8s0.4-0.8,0.9-0.8S241.9,88.1,241.9,88.6z"/>
		</g>
		<g class="st2">
			<path class="st3" d="M110.1,35.5c24.1,0,40.9,14.9,40.9,33.3c0,11.8-5.3,22.1-17.4,28v19l-20.8-13.8c-0.9,0.1-1.8,0.1-2.7,0.1
				c-24,0-40.9-14.9-40.9-33.3C69.2,50.4,86.1,35.5,110.1,35.5z"/>
			<g>
				<line class="st3" x1="129.3" y1="56.8" x2="91" y2="56.8"/>
				<line class="st3" x1="129.3" y1="69.3" x2="91" y2="69.3"/>
				<line class="st3" x1="129.3" y1="81.7" x2="110.1" y2="81.7"/>
			</g>
		</g>
		<g class="st2">
			<rect x="210.4" y="210.1" class="st8" width="15.2" height="51.6"/>
			<rect x="210.4" y="217.3" class="st3" width="15.7" height="44.4"/>
			<line class="st9" x1="218.2" y1="191.6" x2="218.2" y2="208.4"/>
			<path class="st8" d="M207.4,287.6c1.2,3.4-0.8,6.2-4.4,6.2h-30.1c-3.6,0-5.6-2.8-4.3-6.2l0.6-1.5c1.2-3.4,5.2-6.2,8.8-6.2h20.3
				c3.6,0,7.5,2.8,8.7,6.2L207.4,287.6z"/>
			<path class="st3" d="M207.4,287.6c1.2,3.4-0.8,6.2-4.4,6.2h-30.1c-3.6,0-5.6-2.8-4.3-6.2l0.6-1.5c1.2-3.4,5.2-6.2,8.8-6.2h20.3
				c3.6,0,7.5,2.8,8.7,6.2L207.4,287.6z"/>
			<line class="st3" x1="169.5" y1="226.6" x2="173.2" y2="279.9"/>
			<line class="st3" x1="206.7" y1="226.7" x2="202.9" y2="280"/>
			<line class="st3" x1="188.2" y1="229.3" x2="188.2" y2="287.4"/>
			<path class="st8" d="M202.9,110.4c0,8.1-6.8,14.7-15.3,14.7s-15.3-6.6-15.3-14.7c-11.9,11.3-7.4,21-4.1,32.9s-0.8,18.7-0.8,18.7
				c-4.1,5.8-7.7,11.9-10.8,18.4c-5.2,11.2-8.6,23.4-9.9,36.2c11.8,7.8,25.8,12.3,41,12.3l0.6,0.1c15.1,0,29.2-4.5,41-12.3
				c-1.3-12.8-4.7-25-9.9-36.2c-3-6.5-6.6-12.7-10.8-18.4c0,0-4.2-6.8-0.8-18.7s7.8-21.6-4.1-32.9L202.9,110.4z"/>
			<path class="st3" d="M202.9,110.4c0,8.1-6.8,14.7-15.3,14.7s-15.3-6.6-15.3-14.7c-11.9,11.3-7.4,21-4.1,32.9s-0.8,18.7-0.8,18.7
				c-4.1,5.8-7.7,11.9-10.8,18.4c-5.2,11.2-8.6,23.4-9.9,36.2c11.8,7.8,25.8,12.3,41,12.3l0.6,0.1c15.1,0,29.2-4.5,41-12.3
				c-1.3-12.8-4.7-25-9.9-36.2c-3-6.5-6.6-12.7-10.8-18.4c0,0-4.2-6.8-0.8-18.7s7.8-21.6-4.1-32.9L202.9,110.4z"/>
			<path class="st3" d="M172.4,110.4c0,0-16.5,5.3-16.5,20.6l0.6,49.4"/>
			<path class="st3" d="M203.8,110.5c0,0,16.5,5.3,16.5,20.5l-0.6,49.4"/>
			<line class="st3" x1="187.6" y1="129" x2="187.6" y2="161.3"/>
			<polyline class="st3" points="171.8,122.3 177.9,136.2 187.6,129 			"/>
			<polyline class="st3" points="203,122.3 197,136.2 187.6,129 			"/>
			<path class="st3" d="M204.9,84.4c0,11.9-7.9,21.5-17.6,21.5s-17.6-9.6-17.6-21.5"/>
			<path class="st3" d="M164.5,86.6c0,0,14.3-5.6,22.7-16.1"/>
			<path class="st3" d="M182.4,63.1c0,0,12.7,15.8,27.5,23.5"/>
			<path class="st3" d="M187.7,52c-22.8-2.7-31.8,30.5-28.7,52.6h19.5"/>
			<path class="st3" d="M196.9,104.6h19.5c3.1-22.1-5.8-55.3-28.7-52.6"/>
			<path class="st3" d="M187.6,115.9c-7.3,0-10.3-5.3-10.3-5.3"/>
			<path class="st3" d="M198,110.6c0.6,0-3.5,5.3-10.3,5.3"/>
		</g>
	</g>
	<g id="Klant__x26__markt" class="st0">
		<line class="st22" x1="11.2" y1="221.9" x2="358.4" y2="221.9"/>
		<path class="st4" d="M226.3,189.4v-50.1c0-13.1-10.6-23.7-23.6-23.7l0,0c-8.5,8.5-22.2,8.5-30.7,0l0,0c-7.3,0-68.8,1.8-68.8,1.8
			c0.3,0,0,13.8,0,13.8c4.5,1.4,45.1-0.2,59.5,1.2v57L226.3,189.4L226.3,189.4z"/>
		<g class="st2">
			<rect x="249.7" y="57.4" class="st10" width="68.1" height="103.6"/>
			<line class="st10" x1="314.5" y1="242.7" x2="295.3" y2="161.8"/>
			<line class="st10" x1="255.4" y1="242.7" x2="274.6" y2="161.8"/>
			<line class="st10" x1="284.9" y1="160.9" x2="284.9" y2="242.7"/>
			<g>
				<ellipse class="st10" cx="285.4" cy="130.1" rx="20.6" ry="20.6"/>
			</g>
			<polyline class="st10" points="304,122.6 285,130 305.9,130 			"/>
			<polyline class="st10" points="267.3,139.6 285,129.8 274.8,112.6 			"/>
			<rect x="263.3" y="80.9" class="st10" width="6.6" height="18.4"/>
			<rect x="274.6" y="83" class="st10" width="6.6" height="16.4"/>
			<rect x="285.9" y="74.1" class="st10" width="6.6" height="25.2"/>
			<rect x="297.1" y="68.8" class="st10" width="6.6" height="30.5"/>
		</g>
		<path class="st22" d="M163.1,131.2h-60c-7.9,0-14.3-6.6-14.3-14.7l83.1-0.4"/>
		<path class="st22" d="M103.2,117.4"/>
		<path class="st22" d="M103.2,131"/>
		<rect x="65.4" y="71.8" class="st22" width="38.6" height="59"/>
		<line class="st23" x1="82" y1="86.9" x2="96.6" y2="86.9"/>
		<line class="st23" x1="82" y1="98.1" x2="96.6" y2="98.1"/>
		<line class="st23" x1="82" y1="109.2" x2="96.6" y2="109.2"/>
		<polyline class="st22" points="71.8,84.4 73.9,86.9 77.2,82 		"/>
		<polyline class="st22" points="71.8,96.3 73.9,98.8 77.2,93.8 		"/>
		<polyline class="st22" points="71.8,106.8 73.9,109.2 77.2,104.3 		"/>
		<rect x="73.4" y="67.8" class="st24" width="23.7" height="7.3"/>
		<g class="st2">
			<path class="st8" d="M163.8,188h62.2v-49.4c0-12.9-10.4-23.3-23.3-23.3l0,0c-8.4,8.4-21.9,8.4-30.3,0l0,0"/>
			<polyline class="st11" points="184.1,133.5 182.2,177.1 188.1,182.2 194.2,176.5 191.1,132.8 194.2,129.1 186.4,122.1 181,128.5 
							"/>
			<rect x="163.3" y="187.5" class="st11" width="48.9" height="91.6"/>
			<path class="st8" d="M218.7,287c0,3.5-2.9,6.4-6.4,6.4h-49c-3.5,0-6.4-2.9-6.4-6.4v-0.7c0-3.5,2.9-6.4,6.4-6.4h49
				c3.5,0,6.4,2.9,6.4,6.4V287z"/>
			<rect x="211.7" y="216.4" class="st8" width="15.2" height="51.6"/>
			<rect x="211.7" y="216.4" class="st12" width="15.2" height="51.6"/>
			<line class="st3" x1="219.3" y1="200.1" x2="219.3" y2="216.3"/>
			<path class="st13" d="M163.8,188h62.2v-49.4c0-12.9-10.4-23.3-23.3-23.3l0,0c-8.4,8.4-21.9,8.4-30.3,0l0,0"/>
			<path class="st3" d="M163.8,188h62.2v-49.4c0-12.9-10.4-23.3-23.3-23.3l0,0c-8.4,8.4-21.9,8.4-30.3,0l0,0"/>
			<path class="st3" d="M172.5,116.5l5.9,13.5l8.5-8.3 M180.1,129.1l3.9,3.7l-2.8,43.9l6.3,5.6 M202.8,116.5l-5.9,13.5l-8.5-8.3
				 M195.1,129.1l-3.9,3.7l2.8,43.9l-6.3,5.6 M184.1,132.8h7 M211.4,202.3c8.1,0,14.7-6.4,14.7-14.3 M211.4,142.1V279 M163.8,131.2
				V279 M199,65.7c5.4,4.4,9,12,9,20.5c0,13.7-9.1,24.8-20.4,24.8c-11.2,0-20.4-11.1-20.4-24.8c0-4.6,1-8.9,2.8-12.6 M208,88.4
				c3.5-3.5,5.7-8.3,5.7-13.7c0-10.7-8.7-19.4-19.4-19.4c0,0-18.1-0.2-25.5-4.6c-1.7,2.7-2.7,5.9-2.7,9.4c0,9.8,7.9,17.7,17.7,17.7
				c7,0,13.1-4.1,16-10.1"/>
			<line class="st12" x1="188.1" y1="209.4" x2="188.1" y2="286.8"/>
			<path class="st12" d="M218.7,287c0,3.5-2.9,6.4-6.4,6.4h-49c-3.5,0-6.4-2.9-6.4-6.4v-0.7c0-3.5,2.9-6.4,6.4-6.4h49
				c3.5,0,6.4,2.9,6.4,6.4V287z"/>
			<path class="st3" d="M226.1,170.5"/>
		</g>
	</g>
	<g id="Klant__x26__markt_vrouw" class="st0">
		<line class="st22" x1="11.2" y1="221.9" x2="358.4" y2="221.9"/>
		<g class="st2">
			<rect x="249.7" y="57.4" class="st10" width="68.1" height="103.6"/>
			<line class="st10" x1="314.5" y1="242.7" x2="295.3" y2="161.8"/>
			<line class="st10" x1="255.4" y1="242.7" x2="274.6" y2="161.8"/>
			<line class="st10" x1="284.9" y1="160.9" x2="284.9" y2="242.7"/>
			<g>
				<ellipse class="st10" cx="285.4" cy="130.1" rx="20.6" ry="20.6"/>
			</g>
			<polyline class="st10" points="304,122.6 285,130 305.9,130 			"/>
			<polyline class="st10" points="267.3,139.6 285,129.8 274.8,112.6 			"/>
			<rect x="263.3" y="80.9" class="st10" width="6.6" height="18.4"/>
			<rect x="274.6" y="83" class="st10" width="6.6" height="16.4"/>
			<rect x="285.9" y="74.1" class="st10" width="6.6" height="25.2"/>
			<rect x="297.1" y="68.8" class="st10" width="6.6" height="30.5"/>
		</g>
		<path class="st22" d="M103.2,117.4"/>
		<rect x="65.4" y="66.4" class="st22" width="38.6" height="59"/>
		<line class="st23" x1="82" y1="81.5" x2="96.6" y2="81.5"/>
		<line class="st23" x1="82" y1="92.7" x2="96.6" y2="92.7"/>
		<line class="st23" x1="82" y1="103.8" x2="96.6" y2="103.8"/>
		<polyline class="st22" points="71.8,79 73.9,81.5 77.2,76.6 		"/>
		<polyline class="st22" points="71.8,90.9 73.9,93.3 77.2,88.4 		"/>
		<polyline class="st22" points="71.8,101.3 73.9,103.8 77.2,98.9 		"/>
		<rect x="73.4" y="62.3" class="st24" width="23.7" height="7.3"/>
		<g class="st2">
			<path class="st10" d="M163.4,125.4h-60c-7.9,0-14.3-6.6-14.3-14.7l83.1-0.4"/>
		</g>
		<g class="st2">
			<rect x="210.1" y="209.4" class="st8" width="15.2" height="51.6"/>
			<rect x="210.1" y="216.6" class="st3" width="15.7" height="44.4"/>
			<line class="st9" x1="217.9" y1="191" x2="217.9" y2="207.7"/>
			<path class="st8" d="M207.2,287c1.2,3.4-0.8,6.2-4.4,6.2h-30.1c-3.6,0-5.6-2.8-4.3-6.2l0.6-1.5c1.2-3.4,5.2-6.2,8.8-6.2H198
				c3.6,0,7.5,2.8,8.7,6.2L207.2,287z"/>
			<path class="st3" d="M207.2,287c1.2,3.4-0.8,6.2-4.4,6.2h-30.1c-3.6,0-5.6-2.8-4.3-6.2l0.6-1.5c1.2-3.4,5.2-6.2,8.8-6.2H198
				c3.6,0,7.5,2.8,8.7,6.2L207.2,287z"/>
			<line class="st3" x1="169.2" y1="225.9" x2="173" y2="279.3"/>
			<line class="st3" x1="206.4" y1="226.1" x2="202.6" y2="279.4"/>
			<line class="st3" x1="187.9" y1="228.7" x2="187.9" y2="286.7"/>
			<path class="st8" d="M202.6,109.8c0,8.1-6.8,14.7-15.3,14.7c-8.4,0-15.3-6.6-15.3-14.7c-11.9,11.3-7.4,21-4.1,32.9
				s-0.8,18.7-0.8,18.7c-4.1,5.8-7.7,11.9-10.8,18.4c-5.2,11.2-8.6,23.4-9.9,36.2c11.8,7.8,25.8,12.3,41,12.3l0.6,0.1
				c15.1,0,29.2-4.5,41-12.3c-1.3-12.8-4.7-25-9.9-36.2c-3-6.5-6.6-12.7-10.8-18.4c0,0-4.2-6.8-0.8-18.7s7.8-21.6-4.1-32.9
				L202.6,109.8z"/>
			<path class="st3" d="M202.6,109.8c0,8.1-6.8,14.7-15.3,14.7c-8.4,0-15.3-6.6-15.3-14.7c-11.9,11.3-7.4,21-4.1,32.9
				s-0.8,18.7-0.8,18.7c-4.1,5.8-7.7,11.9-10.8,18.4c-5.2,11.2-8.6,23.4-9.9,36.2c11.8,7.8,25.8,12.3,41,12.3l0.6,0.1
				c15.1,0,29.2-4.5,41-12.3c-1.3-12.8-4.7-25-9.9-36.2c-3-6.5-6.6-12.7-10.8-18.4c0,0-4.2-6.8-0.8-18.7s7.8-21.6-4.1-32.9
				L202.6,109.8z"/>
			<path class="st3" d="M203.5,109.9c0,0,16.5,5.3,16.5,20.6l-0.6,49.4"/>
			<line class="st3" x1="187.4" y1="128.4" x2="187.4" y2="160.6"/>
			<polyline class="st3" points="171.5,121.7 177.6,135.6 187.4,128.4 			"/>
			<polyline class="st3" points="202.8,121.7 196.7,135.6 187.4,128.4 			"/>
			<path class="st3" d="M204.6,83.8c0,11.9-7.9,21.5-17.6,21.5s-17.6-9.6-17.6-21.5"/>
			<path class="st3" d="M164.2,86c0,0,14.3-5.6,22.7-16.1"/>
			<path class="st3" d="M182.1,62.4c0,0,12.7,15.8,27.5,23.5"/>
			<path class="st3" d="M187.4,51.3c-22.8-2.7-31.8,30.5-28.7,52.6h19.5"/>
			<path class="st3" d="M196.6,103.9h19.5c3.1-22.1-5.8-55.3-28.7-52.6"/>
			<path class="st3" d="M187.4,115.3c-7.3,0-10.3-5.3-10.3-5.3"/>
			<path class="st3" d="M197.7,110c0.6,0-3.5,5.3-10.3,5.3"/>
		</g>
	</g>
	<g id="financieel" class="st0">
		<g class="st2">
			<rect x="70.7" y="85.4" class="st25" width="54.1" height="31.1"/>
			<path class="st25" d="M124.8,91.8c-3.5,0-6.4-2.9-6.4-6.4"/>
			<path class="st25" d="M118.4,116.5c0-3.5,2.9-6.4,6.4-6.4"/>
			<path class="st25" d="M70.7,91.8c3.5,0,6.4-2.9,6.4-6.4"/>
			<path class="st25" d="M77.1,116.5c0-3.5-2.9-6.4-6.4-6.4"/>
		</g>
		<path class="st26" d="M103.5,95.2c-2.9-2.9-7.7-2.9-10.7,0s-2.9,7.7,0,10.7s7.7,2.9,10.7,0"/>
		<line class="st26" x1="86.9" y1="99.4" x2="97.6" y2="99.4"/>
		<line class="st26" x1="86.9" y1="103.1" x2="97.6" y2="103.1"/>
		<path class="st5" d="M155.2,201.6"/>
		<line class="st1" x1="14" y1="222.1" x2="356.4" y2="222.1"/>
		<rect x="251.5" y="186.5" class="st5" width="56" height="73"/>
		<rect x="91.5" y="186.5" class="st5" width="9" height="89"/>
		<g class="st2">
			<rect x="290.4" y="141.3" class="st27" width="9.7" height="17.1"/>
			<path class="st27" d="M349.5,134.3c0,3.8-3.1,6.9-6.9,6.9h-94.6c-3.8,0-6.9-3.1-6.9-6.9V84.9c0-3.8,3.1-6.9,6.9-6.9h94.6
				c3.8,0,6.9,3.1,6.9,6.9V134.3z"/>
			<path class="st27" d="M349.5,134.3c0,3.8-3.1,6.9-6.9,6.9h-94.6c-3.8,0-6.9-3.1-6.9-6.9V84.9c0-3.8,3.1-6.9,6.9-6.9h94.6
				c3.8,0,6.9,3.1,6.9,6.9V134.3z"/>
			<path class="st27" d="M349.5,134.3c0,3.8-3.1,6.9-6.9,6.9h-94.6c-3.8,0-6.9-3.1-6.9-6.9v-9.6V84.9c0-3.8,3.1-6.9,6.9-6.9h94.6
				c3.8,0,6.9,3.1,6.9,6.9V134.3z"/>
			<path class="st27" d="M273,163.7V161c0-1.5,3.1-2.7,6.9-2.7H309c3.8,0,6.9,1.2,6.9,2.7v2.7"/>
			<path class="st27" d="M273,163.7V161c0-1.5,3.1-2.7,6.9-2.7H309c3.8,0,6.9,1.2,6.9,2.7v2.7"/>
			<path class="st27" d="M273,163.7V161c0-1.5,3.1-2.7,6.9-2.7H309c3.8,0,6.9,1.2,6.9,2.7v2.7"/>
			<rect x="67.4" y="171.1" class="st25" width="270.6" height="14"/>
			<rect x="67.4" y="171.1" class="st25" width="270.6" height="14"/>
			<rect x="58.5" y="165.7" class="st25" width="290.4" height="5.4"/>
			<rect x="58.5" y="165.7" class="st25" width="290.4" height="5.4"/>
			<rect x="92.3" y="185.2" class="st25" width="6.6" height="89.6"/>
			<rect x="308.8" y="185.2" class="st25" width="8.6" height="89.6"/>
			<rect x="308.8" y="185.2" class="st28" width="8.6" height="89.6"/>
			<rect x="252.3" y="185.2" class="st25" width="56.5" height="74"/>
			<rect x="252.3" y="185.2" class="st25" width="56.5" height="74"/>
			<line class="st25" x1="254" y1="205" x2="308.8" y2="205"/>
			<line class="st25" x1="254" y1="222.2" x2="308.8" y2="222.2"/>
			<path class="st27" d="M250.7,126.9l8.3-7.2l14.9,4.9l19.3-16.5l5,2.8l5-2.8l7.7,6.6c1.6-2.2,22.6-24.2,22.6-24.2"/>
			<path class="st27" d="M327,90.5"/>
			<g>
				<line class="st27" x1="333.9" y1="90" x2="333.9" y2="96.2"/>
				<line class="st27" x1="327.7" y1="90" x2="333.9" y2="90"/>
			</g>
			<path class="st27" d="M248,91.6"/>
			<polyline class="st27" points="250.7,87.2 250.7,132.4 332.7,132.4 			"/>
			<rect x="166" y="186.6" class="st11" width="47.2" height="88.6"/>
		</g>
		<path class="st4" d="M226.3,189.4v-50.1c0-13.1-10.6-23.7-23.6-23.7l0,0c-8.5,8.5-22.2,8.5-30.7,0l0,0c-7.3,0-68.8,1.8-68.8,1.8
			c0.3,0,0,13.8,0,13.8c4.5,1.4,45.1-0.2,59.5,1.2v57L226.3,189.4L226.3,189.4z"/>
		<g class="st2">
			<path class="st8" d="M163.8,188h62.2v-49.4c0-12.9-10.4-23.3-23.3-23.3l0,0c-8.4,8.4-21.9,8.4-30.3,0l0,0"/>
			<polyline class="st11" points="184.1,133.5 182.2,177.1 188.1,182.2 194.2,176.5 191.1,132.8 194.2,129.1 186.4,122.1 181,128.5 
							"/>
			<rect x="163.3" y="187.5" class="st11" width="48.9" height="91.6"/>
			<path class="st8" d="M218.7,287c0,3.5-2.9,6.4-6.4,6.4h-49c-3.5,0-6.4-2.9-6.4-6.4v-0.7c0-3.5,2.9-6.4,6.4-6.4h49
				c3.5,0,6.4,2.9,6.4,6.4V287z"/>
			<rect x="211.7" y="216.4" class="st8" width="15.2" height="51.6"/>
			<rect x="211.7" y="216.4" class="st12" width="15.2" height="51.6"/>
			<line class="st3" x1="219.3" y1="200.1" x2="219.3" y2="216.3"/>
			<path class="st13" d="M163.8,188h62.2v-49.4c0-12.9-10.4-23.3-23.3-23.3l0,0c-8.4,8.4-21.9,8.4-30.3,0l0,0"/>
			<path class="st3" d="M163.8,188h62.2v-49.4c0-12.9-10.4-23.3-23.3-23.3l0,0c-8.4,8.4-21.9,8.4-30.3,0l0,0"/>
			<path class="st3" d="M172.5,116.5l5.9,13.5l8.5-8.3 M180.1,129.1l3.9,3.7l-2.8,43.9l6.3,5.6 M202.8,116.5l-5.9,13.5l-8.5-8.3
				 M195.1,129.1l-3.9,3.7l2.8,43.9l-6.3,5.6 M184.1,132.8h7 M211.4,202.3c8.1,0,14.7-6.4,14.7-14.3 M211.4,142.1V279 M163.8,131.2
				V279 M199,65.7c5.4,4.4,9,12,9,20.5c0,13.7-9.1,24.8-20.4,24.8c-11.2,0-20.4-11.1-20.4-24.8c0-4.6,1-8.9,2.8-12.6 M208,88.4
				c3.5-3.5,5.7-8.3,5.7-13.7c0-10.7-8.7-19.4-19.4-19.4c0,0-18.1-0.2-25.5-4.6c-1.7,2.7-2.7,5.9-2.7,9.4c0,9.8,7.9,17.7,17.7,17.7
				c7,0,13.1-4.1,16-10.1"/>
			<line class="st12" x1="188.1" y1="209.4" x2="188.1" y2="286.8"/>
			<path class="st12" d="M218.7,287c0,3.5-2.9,6.4-6.4,6.4h-49c-3.5,0-6.4-2.9-6.4-6.4v-0.7c0-3.5,2.9-6.4,6.4-6.4h49
				c3.5,0,6.4,2.9,6.4,6.4V287z"/>
			<path class="st3" d="M226.1,170.5"/>
		</g>
		<path class="st22" d="M163.1,131.2h-60c-7.9,0-14.3-6.6-14.3-14.7l83.1-0.4"/>
	</g>
	<g id="financieel_vrouw" class="st0">
		<rect x="67.4" y="171.1" class="st26" width="270.6" height="14"/>
		<rect x="67.4" y="171.1" class="st26" width="270.6" height="14"/>
		<rect x="58.5" y="165.7" class="st26" width="290.4" height="5.4"/>
		<rect x="58.5" y="165.7" class="st26" width="290.4" height="5.4"/>
		<polygon class="st5" points="208.7,159.8 206,179.4 212.3,186 219.6,183.4 217.3,154.5 		"/>
		<g class="st2">
			<rect x="70.7" y="80" class="st25" width="54.1" height="31.1"/>
			<path class="st25" d="M124.8,86.4c-3.5,0-6.4-2.9-6.4-6.4"/>
			<path class="st25" d="M118.4,111.1c0-3.5,2.9-6.4,6.4-6.4"/>
			<path class="st25" d="M70.7,86.4c3.5,0,6.4-2.9,6.4-6.4"/>
			<path class="st25" d="M77.1,111.1c0-3.5-2.9-6.4-6.4-6.4"/>
		</g>
		<path class="st26" d="M103.5,89.9c-2.9-2.9-7.7-2.9-10.7,0s-2.9,7.7,0,10.7s7.7,2.9,10.7,0"/>
		<line class="st26" x1="86.9" y1="94.1" x2="97.6" y2="94.1"/>
		<line class="st26" x1="86.9" y1="97.7" x2="97.6" y2="97.7"/>
		<path class="st5" d="M155.2,201.6"/>
		<line class="st1" x1="14" y1="222.1" x2="356.4" y2="222.1"/>
		<rect x="251.5" y="186.5" class="st5" width="56" height="73"/>
		<rect x="91.5" y="186.5" class="st5" width="9" height="89"/>
		<rect x="290.4" y="141.3" class="st29" width="9.7" height="17.1"/>
		<path class="st29" d="M349.5,134.3c0,3.8-3.1,6.9-6.9,6.9h-94.6c-3.8,0-6.9-3.1-6.9-6.9V84.9c0-3.8,3.1-6.9,6.9-6.9h94.6
			c3.8,0,6.9,3.1,6.9,6.9V134.3z"/>
		<path class="st29" d="M349.5,134.3c0,3.8-3.1,6.9-6.9,6.9h-94.6c-3.8,0-6.9-3.1-6.9-6.9V84.9c0-3.8,3.1-6.9,6.9-6.9h94.6
			c3.8,0,6.9,3.1,6.9,6.9V134.3z"/>
		<path class="st29" d="M349.5,134.3c0,3.8-3.1,6.9-6.9,6.9h-94.6c-3.8,0-6.9-3.1-6.9-6.9v-9.6V84.9c0-3.8,3.1-6.9,6.9-6.9h94.6
			c3.8,0,6.9,3.1,6.9,6.9V134.3z"/>
		<path class="st29" d="M273,163.7V161c0-1.5,3.1-2.7,6.9-2.7H309c3.8,0,6.9,1.2,6.9,2.7v2.7"/>
		<path class="st29" d="M273,163.7V161c0-1.5,3.1-2.7,6.9-2.7H309c3.8,0,6.9,1.2,6.9,2.7v2.7"/>
		<path class="st29" d="M273,163.7V161c0-1.5,3.1-2.7,6.9-2.7H309c3.8,0,6.9,1.2,6.9,2.7v2.7"/>
		<rect x="92.3" y="185.2" class="st26" width="6.6" height="89.6"/>
		<rect x="308.8" y="185.2" class="st26" width="8.6" height="89.6"/>
		<rect x="252.3" y="185.2" class="st26" width="56.5" height="74"/>
		<rect x="252.3" y="185.2" class="st26" width="56.5" height="74"/>
		<line class="st26" x1="254" y1="205" x2="308.8" y2="205"/>
		<line class="st26" x1="254" y1="222.2" x2="308.8" y2="222.2"/>
		<path class="st29" d="M250.7,126.9l8.3-7.2l14.9,4.9l19.3-16.5l5,2.8l5-2.8l7.7,6.6c1.6-2.2,22.6-24.2,22.6-24.2"/>
		<path class="st29" d="M327,90.5"/>
		<g class="st2">
			<line class="st27" x1="333.9" y1="90" x2="333.9" y2="96.2"/>
			<line class="st27" x1="327.7" y1="90" x2="333.9" y2="90"/>
		</g>
		<path class="st29" d="M248,91.6"/>
		<polyline class="st29" points="250.7,87.2 250.7,132.4 332.7,132.4 		"/>
		<g class="st2">
			<path class="st10" d="M163.3,125.9h-60c-7.9,0-14.3-6.6-14.3-14.7l83.1-0.4"/>
		</g>
		<g class="st2">
			<rect x="210" y="209.9" class="st8" width="15.2" height="51.6"/>
			<rect x="210" y="217.1" class="st3" width="15.7" height="44.4"/>
			<line class="st9" x1="217.9" y1="191.5" x2="217.9" y2="208.2"/>
			<path class="st8" d="M207.1,287.5c1.2,3.4-0.8,6.2-4.4,6.2h-30.1c-3.6,0-5.6-2.8-4.3-6.2l0.6-1.5c1.2-3.4,5.2-6.2,8.8-6.2h20.3
				c3.6,0,7.5,2.8,8.7,6.2L207.1,287.5z"/>
			<path class="st3" d="M207.1,287.5c1.2,3.4-0.8,6.2-4.4,6.2h-30.1c-3.6,0-5.6-2.8-4.3-6.2l0.6-1.5c1.2-3.4,5.2-6.2,8.8-6.2h20.3
				c3.6,0,7.5,2.8,8.7,6.2L207.1,287.5z"/>
			<line class="st3" x1="169.1" y1="226.4" x2="172.9" y2="279.8"/>
			<line class="st3" x1="206.3" y1="226.6" x2="202.6" y2="279.9"/>
			<line class="st3" x1="187.9" y1="229.2" x2="187.9" y2="287.2"/>
			<path class="st8" d="M202.6,110.3c0,8.1-6.8,14.7-15.3,14.7s-15.3-6.6-15.3-14.7c-11.9,11.3-7.4,21-4.1,32.9s-0.8,18.7-0.8,18.7
				c-4.1,5.8-7.7,11.9-10.8,18.4c-5.2,11.2-8.6,23.4-9.9,36.2c11.8,7.8,25.8,12.3,41,12.3l0.6,0.1c15.1,0,29.2-4.5,41-12.3
				c-1.3-12.8-4.7-25-9.9-36.2c-3-6.5-6.6-12.7-10.8-18.4c0,0-4.2-6.8-0.8-18.7s7.8-21.6-4.1-32.9L202.6,110.3z"/>
			<path class="st3" d="M202.6,110.3c0,8.1-6.8,14.7-15.3,14.7s-15.3-6.6-15.3-14.7c-11.9,11.3-7.4,21-4.1,32.9s-0.8,18.7-0.8,18.7
				c-4.1,5.8-7.7,11.9-10.8,18.4c-5.2,11.2-8.6,23.4-9.9,36.2c11.8,7.8,25.8,12.3,41,12.3l0.6,0.1c15.1,0,29.2-4.5,41-12.3
				c-1.3-12.8-4.7-25-9.9-36.2c-3-6.5-6.6-12.7-10.8-18.4c0,0-4.2-6.8-0.8-18.7s7.8-21.6-4.1-32.9L202.6,110.3z"/>
			<path class="st3" d="M219.4,180.4l0.6-49.4c0-15.2-16.5-20.6-16.5-20.6"/>
			<line class="st3" x1="187.3" y1="128.9" x2="187.3" y2="161.1"/>
			<polyline class="st3" points="171.5,122.2 177.5,136.1 187.3,128.9 			"/>
			<polyline class="st3" points="202.7,122.2 196.6,136.1 187.3,128.9 			"/>
			<path class="st3" d="M204.5,84.3c0,11.9-7.9,21.5-17.6,21.5s-17.6-9.6-17.6-21.5"/>
			<path class="st3" d="M164.2,86.5c0,0,14.3-5.6,22.7-16.1"/>
			<path class="st3" d="M182.1,62.9c0,0,12.7,15.8,27.5,23.5"/>
			<path class="st3" d="M187.4,51.8c-22.8-2.7-31.8,30.5-28.7,52.6h19.5"/>
			<path class="st3" d="M196.5,104.4H216c3.1-22.1-5.8-55.3-28.7-52.6"/>
			<path class="st3" d="M187.3,115.8c-7.3,0-10.3-5.3-10.3-5.3"/>
			<path class="st3" d="M197.6,110.5c0.6,0-3.5,5.3-10.3,5.3"/>
		</g>
		<rect x="308.8" y="185.2" class="st30" width="8.6" height="89.6"/>
	</g>
	<g id="Leiderschap" class="st0">
		<path class="st4" d="M212.5,188l-1-49.4c0-12.9,4.1-23.3-8.7-23.3l0,0c-8.4,8.4-21.9,8.4-30.3,0l0,0c-12.9,0-23.3,10.4-23.3,23.3
			V188H212.5z"/>
		<polyline class="st5" points="184.1,133.5 182.2,177.1 188.1,182.2 194.2,176.5 191.1,132.8 194.2,129.1 186.4,122.1 181,128.5 		
			"/>
		<rect x="163.3" y="187.5" class="st5" width="48.9" height="91.6"/>
		<path class="st4" d="M218.7,287c0,3.5-2.9,6.4-6.4,6.4h-49c-3.5,0-6.4-2.9-6.4-6.4v-0.7c0-3.5,2.9-6.4,6.4-6.4h49
			c3.5,0,6.4,2.9,6.4,6.4V287z"/>
		<path class="st1" d="M202.8,115.3L202.8,115.3c-8.4,8.4-21.9,8.4-30.3,0l0,0c-12.9,0-23.3,10.4-23.3,23.3V188H211"/>
		<path class="st1" d="M172.5,116.5l5.9,13.5l8.5-8.3 M180.1,129.1l3.9,3.7l-2.8,43.9l6.3,5.6 M202.8,116.5l-5.9,13.5l-8.5-8.3
			 M195.1,129.1l-3.9,3.7l2.8,43.9l-6.3,5.6 M184.1,132.8h7 M163.8,202.3c-8.1,0-14.7-6.4-14.7-14.3 M163.8,142.1V279 M199,65.7
			c5.4,4.4,9,12,9,20.5c0,13.7-9.1,24.8-20.4,24.8c-11.2,0-20.4-11.1-20.4-24.8c0-4.6,1-8.9,2.8-12.6 M208,88.4
			c3.5-3.5,5.7-8.3,5.7-13.7c0-10.7-8.7-19.4-19.4-19.4c0,0-18.1-0.2-25.5-4.6c-1.7,2.7-2.7,5.9-2.7,9.4c0,9.8,7.9,17.7,17.7,17.7
			c7,0,13.1-4.1,16-10.1"/>
		<line class="st6" x1="188.1" y1="209.4" x2="188.1" y2="286.8"/>
		<path class="st6" d="M218.7,287c0,3.5-2.9,6.4-6.4,6.4h-49c-3.5,0-6.4-2.9-6.4-6.4v-0.7c0-3.5,2.9-6.4,6.4-6.4h49
			c3.5,0,6.4,2.9,6.4,6.4V287z"/>
		<path class="st1" d="M226.1,170.5"/>
		<rect x="202.5" y="114.9" class="st4" width="63.5" height="14.4"/>
		<line class="st1" x1="265.1" y1="256" x2="265.1" y2="94.3"/>
		<path class="st1" d="M203,114.3l77.2,0.4c0,8.5-6.7,15.3-15,15.3h-52.8l-0.9-0.1v149"/>
		<line class="st1" x1="265.2" y1="130.1" x2="265.2" y2="115.8"/>
		<path class="st1" d="M340.6,91.6c0,0-5.9,10-23.5,10c-16.9,0-17.8-14.4-33.7-14.4c-12.2,0-18.3,7.1-18.3,7.1V49.6
			c0,0,6.1-7.1,18.3-7.1c16,0,16.8,14.4,33.7,14.4c17.5,0,23.5-10,23.5-10V91.6z"/>
		<polyline class="st1" points="164,222.5 16,222.5 92.3,138.5 136.3,179.5 149,166 		"/>
		<polyline class="st1" points="273.3,128.5 344,222.5 212.1,222.5 		"/>
		<polyline class="st1" points="203,115 236,79 262.3,114 		"/>
		<g class="st2">
			<path class="st3" d="M94.5,73.4l-3.9-3.9 M123.8,102.7l-3.9-3.9 M123.8,69.5l-3.9,3.9 M130.7,86.1h-5.5 M107.2,62.6v5.5
				 M115.9,94.8c2.2-2.2,3.6-5.3,3.6-8.7c0-6.8-5.5-12.3-12.3-12.3c-3.7,0-7,1.7-9.3,4.3 M100.6,109.3c5.7,0,10.2-4.6,10.2-10.2
				c0-5.7-4.6-10.2-10.2-10.2c-3.1,0-5.8,1.3-7.7,3.5 M72.3,91.8c0.1,0,0.2,0,0.3,0c1.5-6.2,7.1-10.7,13.7-10.7
				c5.6,0,10.3,3.2,12.6,7.9c0.5-0.1,1-0.1,1.6-0.1c5.7,0,10.2,4.6,10.2,10.2c0,5.7-4.6,10.2-10.2,10.2H72.3c-4.8,0-8.8-3.9-8.8-8.8
				C63.6,95.8,67.5,91.8,72.3,91.8z"/>
		</g>
	</g>
	<g id="Leiderschap_vrouw" class="st0">
		<polyline class="st1" points="207.3,110.3 236,79 259.9,110.7 		"/>
		<polygon class="st5" points="203,103.9 216.5,104 216.5,96.9 212,95.9 207,100 		"/>
		<path class="st1" d="M226.1,170.5"/>
		<line class="st1" x1="265.1" y1="256" x2="265.1" y2="94.3"/>
		<path class="st1" d="M265.2,115.8"/>
		<path class="st1" d="M265.2,130.1"/>
		<path class="st1" d="M340.6,91.6c0,0-5.9,10-23.5,10c-16.9,0-17.8-14.4-33.7-14.4c-12.2,0-18.3,7.1-18.3,7.1V49.6
			c0,0,6.1-7.1,18.3-7.1c16,0,16.8,14.4,33.7,14.4c17.5,0,23.5-10,23.5-10V91.6z"/>
		<polyline class="st1" points="164,222.5 16,222.5 92.3,138.5 136.3,179.5 156.3,158.3 		"/>
		<polyline class="st1" points="271.1,125.6 344,222.5 212.1,222.5 		"/>
		<g class="st2">
			<path class="st3" d="M94.5,73.4l-3.9-3.9 M123.8,102.7l-3.9-3.9 M123.8,69.5l-3.9,3.9 M130.7,86.1h-5.5 M107.2,62.6v5.5
				 M115.9,94.8c2.2-2.2,3.6-5.3,3.6-8.7c0-6.8-5.5-12.3-12.3-12.3c-3.7,0-7,1.7-9.3,4.3 M100.6,109.3c5.7,0,10.2-4.6,10.2-10.2
				c0-5.7-4.6-10.2-10.2-10.2c-3.1,0-5.8,1.3-7.7,3.5 M72.3,91.8c0.1,0,0.2,0,0.3,0c1.5-6.2,7.1-10.7,13.7-10.7
				c5.6,0,10.3,3.2,12.6,7.9c0.5-0.1,1-0.1,1.6-0.1c5.7,0,10.2,4.6,10.2,10.2c0,5.7-4.6,10.2-10.2,10.2H72.3c-4.8,0-8.8-3.9-8.8-8.8
				C63.6,95.8,67.5,91.8,72.3,91.8z"/>
		</g>
		<g class="st2">
			<path class="st10" d="M213.9,125.5h60c7.9,0,14.3-6.6,14.3-14.7l-83.1-0.4"/>
			<line class="st9" x1="218.3" y1="191" x2="218.3" y2="207.8"/>
			<path class="st8" d="M207.6,287.1c1.2,3.4-0.8,6.2-4.4,6.2H173c-3.6,0-5.6-2.8-4.3-6.2l0.6-1.5c1.2-3.4,5.2-6.2,8.8-6.2h20.3
				c3.6,0,7.5,2.8,8.7,6.2L207.6,287.1z"/>
			<path class="st3" d="M207.6,287.1c1.2,3.4-0.8,6.2-4.4,6.2H173c-3.6,0-5.6-2.8-4.3-6.2l0.6-1.5c1.2-3.4,5.2-6.2,8.8-6.2h20.3
				c3.6,0,7.5,2.8,8.7,6.2L207.6,287.1z"/>
			<line class="st3" x1="169.6" y1="226" x2="173.4" y2="279.3"/>
			<line class="st3" x1="206.8" y1="226.1" x2="203" y2="279.5"/>
			<line class="st3" x1="188.3" y1="228.7" x2="188.3" y2="286.8"/>
			<path class="st8" d="M203,109.8c0,8.1-6.8,14.7-15.3,14.7s-15.3-6.6-15.3-14.7c-11.9,11.3-7.4,21-4.1,32.9s-0.8,18.7-0.8,18.7
				c-4.1,5.8-7.7,11.9-10.8,18.4c-5.2,11.2-8.6,23.4-9.9,36.2c11.8,7.8,25.8,12.3,41,12.3l0.6,0.1c15.1,0,29.2-4.5,41-12.3
				c-1.3-12.8-4.7-25-9.9-36.2c-3-6.5-6.6-12.7-10.8-18.4c0,0-4.2-6.8-0.8-18.7s7.8-21.6-4.1-32.9L203,109.8z"/>
			<path class="st3" d="M203,109.8c0,8.1-6.8,14.7-15.3,14.7s-15.3-6.6-15.3-14.7c-11.9,11.3-7.4,21-4.1,32.9s-0.8,18.7-0.8,18.7
				c-4.1,5.8-7.7,11.9-10.8,18.4c-5.2,11.2-8.6,23.4-9.9,36.2c11.8,7.8,25.8,12.3,41,12.3l0.6,0.1c15.1,0,29.2-4.5,41-12.3
				c-1.3-12.8-4.7-25-9.9-36.2c-3-6.5-6.6-12.7-10.8-18.4c0,0-4.2-6.8-0.8-18.7s7.8-21.6-4.1-32.9L203,109.8z"/>
			<path class="st3" d="M172.4,109.9c0,0-16.5,5.3-16.5,20.6l0.6,49.4"/>
			<line class="st3" x1="187.8" y1="128.5" x2="187.8" y2="160.7"/>
			<polyline class="st3" points="171.9,121.7 178,135.7 187.8,128.5 			"/>
			<polyline class="st3" points="203.1,121.7 197.1,135.7 187.8,128.5 			"/>
			<path class="st3" d="M205,83.8c0,11.9-7.9,21.5-17.6,21.5s-17.6-9.6-17.6-21.5"/>
			<path class="st3" d="M164.6,86c0,0,14.3-5.6,22.7-16.1"/>
			<path class="st3" d="M182.5,62.5c0,0,12.7,15.8,27.5,23.5"/>
			<path class="st3" d="M187.8,51.4c-22.8-2.7-31.8,30.5-28.7,52.6h19.5"/>
			<path class="st3" d="M197,104h19.5c3.1-22.1-5.8-55.3-28.7-52.6"/>
			<path class="st3" d="M187.8,115.4c-7.3,0-10.3-5.3-10.3-5.3"/>
			<path class="st3" d="M198.1,110c0.6,0-3.5,5.3-10.3,5.3"/>
		</g>
	</g>
</g>
</svg>
