<?xml version="1.0" encoding="utf-8"?>
<!-- Generator: Adobe Illustrator 23.0.2, SVG Export Plug-In . SVG Version: 6.00 Build 0)  -->
<svg version="1.1" xmlns="http://www.w3.org/2000/svg" xmlns:xlink="http://www.w3.org/1999/xlink" x="0px" y="0px"
	 viewBox="0 0 370 370" style="enable-background:new 0 0 370 370;" xml:space="preserve">
<style type="text/css">
	.st0{fill:none;stroke:#29235C;stroke-width:2.9068;stroke-linecap:round;stroke-linejoin:round;stroke-miterlimit:10;}
	.st1{fill:#FFFFFF;}
	.st2{fill:none;stroke:#29235C;stroke-width:2.9;stroke-linecap:round;stroke-linejoin:round;stroke-miterlimit:10;}
	.st3{fill:#B0D2F0;}
	.st4{fill:none;stroke:#29235C;stroke-width:2.6838;stroke-linecap:round;stroke-miterlimit:10;}
	.st5{fill:none;stroke:#B0D2F0;stroke-width:2.9;stroke-linecap:round;stroke-linejoin:round;stroke-miterlimit:10;}
	.st6{fill:none;stroke:#29235C;stroke-width:2.6838;stroke-linecap:round;stroke-linejoin:round;stroke-miterlimit:10;}
	.st7{fill:none;stroke:#29235C;stroke-width:1.995;stroke-linecap:round;stroke-linejoin:round;stroke-miterlimit:10;}
</style>
<g id="Layer_2">
</g>
<g id="Intern_vrouw">
	<line class="st0" x1="14" y1="222.1" x2="356.4" y2="222.1"/>
	<rect x="110.4" y="232.7" class="st1" width="13.2" height="10.5"/>
	<rect x="75.2" y="232.7" class="st1" width="29.1" height="10.5"/>
	<rect x="261" y="233.1" class="st1" width="43.3" height="10.5"/>
	<rect x="260.6" y="179.3" class="st1" width="43.7" height="82.5"/>
	<path class="st2" d="M304.3,191.7c7.4,0,13.5-5.9,13.5-13.1h-13.5V191.7z"/>
	<path class="st3" d="M311,269.5c0,3.2-2.6,5.8-5.9,5.8h-45c-3.2,0-5.8-2.6-5.8-5.8v-0.6c0-3.2,2.6-5.8,5.8-5.8h45
		c3.2,0,5.9,2.6,5.9,5.8V269.5z"/>
	<path class="st3" d="M317.8,178.6v-45.4c0-11.8-9.6-21.4-21.4-21.4l0,0c-7.7,7.7-20.1,7.7-27.8,0l0,0c-11.8,0-21.4,9.6-21.4,21.4
		v45.4H317.8z"/>
	<path class="st2" d="M317.8,178.6v-45.4c0-11.8-9.6-21.4-21.4-21.4l0,0c-7.7,7.7-20.1,7.7-27.8,0l0,0c-11.8,0-21.4,9.6-21.4,21.4
		v45.4H317.8z"/>
	<path class="st2" d="M317.8,178.6v-45.4c0-11.8-9.6-21.4-21.4-21.4l0,0c-7.7,7.7-20.1,7.7-27.8,0l0,0c-11.8,0-21.4,9.6-21.4,21.4
		v45.4H317.8z"/>
	<path class="st2" d="M260.6,191.7c-7.4,0-13.5-5.9-13.5-13.1"/>
	<path class="st2" d="M304.3,191.7c7.4,0,13.5-5.9,13.5-13.1"/>
	<path class="st2" d="M260.6,191.7c-7.4,0-13.5-5.9-13.5-13.1h13.5V191.7z"/>
	<line class="st2" x1="304.3" y1="136.4" x2="304.3" y2="262.2"/>
	<line class="st2" x1="260.6" y1="136.4" x2="260.6" y2="262.2"/>
	<path class="st2" d="M285.7,127.8"/>
	<path class="st2" d="M279.2,127.8"/>
	<line class="st2" x1="282.9" y1="198.2" x2="282.9" y2="269.3"/>
	<path class="st2" d="M311,269.5c0,3.2-2.6,5.8-5.9,5.8h-45c-3.2,0-5.8-2.6-5.8-5.8v-0.6c0-3.2,2.6-5.8,5.8-5.8h45
		c3.2,0,5.9,2.6,5.9,5.8V269.5z"/>
	<polygon class="st2" points="287.4,121.7 285.7,127.8 288.2,168.1 282.4,173.2 276.6,168.1 279.2,127.8 277.4,121.8 282.6,117.7 
		282.6,117.7 	"/>
	<line class="st2" x1="279.2" y1="127.8" x2="285.7" y2="127.8"/>
	<polyline class="st2" points="268.5,111.7 273.9,124.2 282.6,117.7 	"/>
	<polyline class="st2" points="296.3,111.7 291,124.2 282.6,117.7 	"/>
	<ellipse class="st2" cx="282.4" cy="84.3" rx="19.2" ry="23.3"/>
	<path class="st2" d="M264.4,78c0,0,14.8,3.5,23.4-8.9c0,0,4,5.6,11.8,6.2"/>
	<g>
		<path class="st3" d="M125.4,178.3v-45.7c0-11.9-9.6-21.5-21.5-21.5l0,0c-7.7,7.7-20.2,7.7-28,0l0,0c-11.9,0-21.5,9.6-21.5,21.5
			v45.6L125.4,178.3L125.4,178.3z"/>
		<polyline class="st1" points="86.6,127.9 84.9,168.1 90.3,172.9 95.9,167.6 93.1,127.2 95.9,123.8 88.8,117.4 83.7,123.3 		"/>
		<rect x="67.4" y="177.8" class="st1" width="45.1" height="84.6"/>
		<path class="st3" d="M118.6,269.6c0,3.2-2.6,5.9-5.9,5.9H67.5c-3.2,0-5.9-2.6-5.9-5.9V269c0-3.2,2.6-5.9,5.9-5.9h45.2
			c3.2,0,5.9,2.6,5.9,5.9L118.6,269.6L118.6,269.6z"/>
		<rect x="112.1" y="204.5" class="st3" width="14.1" height="47.6"/>
		<rect x="112.1" y="204.5" class="st4" width="14.1" height="47.6"/>
		<line class="st2" x1="119.1" y1="189.4" x2="119.1" y2="204.4"/>
		<path class="st5" d="M125.4,178.3v-45.7c0-11.9-9.6-21.5-21.5-21.5l0,0c-7.7,7.7-20.2,7.7-28,0l0,0c-11.9,0-21.5,9.6-21.5,21.5
			v45.6L125.4,178.3L125.4,178.3z"/>
		<path class="st2" d="M125.4,178.3v-45.7c0-11.9-9.6-21.5-21.5-21.5l0,0c-7.7,7.7-20.2,7.7-28,0l0,0c-11.9,0-21.5,9.6-21.5,21.5
			v45.6L125.4,178.3L125.4,178.3z"/>
		<path class="st2" d="M75.9,112.2l5.4,12.5l7.8-7.7 M83,123.8l3.7,3.4l-2.6,40.5l5.8,5.2 M103.9,112.2l-5.4,12.5l-7.8-7.7
			 M96.8,123.8l-3.7,3.4l2.6,40.5l-5.8,5.2 M86.6,127.2h6.5 M67.9,191.5c-7.5,0-13.5-5.9-13.5-13.2 M111.8,191.5
			c7.5,0,13.5-5.9,13.5-13.2 M111.8,135.8v126.4 M67.9,135.8v126.4 M100.4,65.3c5,4.1,8.3,11.1,8.3,19c0,12.6-8.4,22.9-18.8,22.9
			c-10.4,0-18.8-10.2-18.8-22.9c0-4.3,0.9-8.2,2.6-11.6 M108.7,86.3c3.2-3.2,5.2-7.7,5.2-12.6c0-9.9-8-17.9-17.9-17.9
			c0,0-16.8-0.2-23.6-4.3C71,54,70.1,57,70.1,60.1c0,9,7.3,16.3,16.3,16.3c6.5,0,12.1-3.8,14.8-9.3"/>
		<line class="st4" x1="90.3" y1="198" x2="90.3" y2="269.5"/>
		<path class="st4" d="M118.6,269.6c0,3.2-2.6,5.9-5.9,5.9H67.5c-3.2,0-5.9-2.6-5.9-5.9V269c0-3.2,2.6-5.9,5.9-5.9h45.2
			c3.2,0,5.9,2.6,5.9,5.9L118.6,269.6L118.6,269.6z"/>
		<path class="st6" d="M125.4,162.1"/>
	</g>
	<g>
		<rect x="210.5" y="209.8" class="st3" width="15.2" height="51.6"/>
		<rect x="210.5" y="216.9" class="st0" width="15.7" height="44.4"/>
		<line class="st7" x1="218.4" y1="191.3" x2="218.4" y2="208"/>
		<path class="st3" d="M207.6,287.3c1.2,3.4-0.8,6.2-4.4,6.2h-30.1c-3.6,0-5.6-2.8-4.3-6.2l0.6-1.5c1.2-3.4,5.2-6.2,8.8-6.2h20.3
			c3.6,0,7.5,2.8,8.7,6.2L207.6,287.3z"/>
		<path class="st0" d="M207.6,287.3c1.2,3.4-0.8,6.2-4.4,6.2h-30.1c-3.6,0-5.6-2.8-4.3-6.2l0.6-1.5c1.2-3.4,5.2-6.2,8.8-6.2h20.3
			c3.6,0,7.5,2.8,8.7,6.2L207.6,287.3z"/>
		<line class="st0" x1="169.6" y1="226.2" x2="173.4" y2="279.6"/>
		<line class="st0" x1="206.8" y1="226.4" x2="203.1" y2="279.7"/>
		<line class="st0" x1="188.4" y1="229" x2="188.4" y2="287"/>
		<path class="st3" d="M203.1,110.1c0,8.1-6.8,14.7-15.3,14.7s-15.3-6.6-15.3-14.7c-11.9,11.3-7.4,21-4.1,32.9s-0.8,18.7-0.8,18.7
			c-4.1,5.8-7.7,11.9-10.8,18.4c-5.2,11.2-8.6,23.4-9.9,36.2c11.8,7.8,25.8,12.3,41,12.3l0.6,0.1c15.1,0,29.2-4.5,41-12.3
			c-1.3-12.8-4.7-25-9.9-36.2c-3-6.5-6.6-12.7-10.8-18.4c0,0-4.2-6.8-0.8-18.7s7.8-21.6-4.1-32.9L203.1,110.1z"/>
		<path class="st0" d="M203.1,110.1c0,8.1-6.8,14.7-15.3,14.7s-15.3-6.6-15.3-14.7c-11.9,11.3-7.4,21-4.1,32.9s-0.8,18.7-0.8,18.7
			c-4.1,5.8-7.7,11.9-10.8,18.4c-5.2,11.2-8.6,23.4-9.9,36.2c11.8,7.8,25.8,12.3,41,12.3l0.6,0.1c15.1,0,29.2-4.5,41-12.3
			c-1.3-12.8-4.7-25-9.9-36.2c-3-6.5-6.6-12.7-10.8-18.4c0,0-4.2-6.8-0.8-18.7s7.8-21.6-4.1-32.9L203.1,110.1z"/>
		<path class="st0" d="M172.6,110.1c0,0-16.5,5.3-16.5,20.6l0.6,49.4"/>
		<path class="st0" d="M203.9,110.2c0,0,16.5,5.3,16.5,20.5l-0.6,49.4"/>
		<line class="st0" x1="187.8" y1="128.7" x2="187.8" y2="160.9"/>
		<polyline class="st0" points="172,122 178,135.9 187.8,128.7 		"/>
		<polyline class="st0" points="203.2,122 197.1,135.9 187.8,128.7 		"/>
		<path class="st0" d="M205,84.1c0,11.9-7.9,21.5-17.6,21.5s-17.6-9.6-17.6-21.5"/>
		<path class="st0" d="M164.7,86.3c0,0,14.3-5.6,22.7-16.1"/>
		<path class="st0" d="M182.6,62.7c0,0,12.7,15.8,27.5,23.5"/>
		<path class="st0" d="M187.9,51.6c-22.8-2.7-31.8,30.5-28.7,52.6h19.5"/>
		<path class="st0" d="M197,104.2h19.5c3.1-22.1-5.8-55.3-28.7-52.6"/>
		<path class="st0" d="M187.8,115.6c-7.3,0-10.3-5.3-10.3-5.3"/>
		<path class="st0" d="M198.1,110.3c0.6,0-3.5,5.3-10.3,5.3"/>
	</g>
</g>
</svg>
